<svg width="500" height="374" viewBox="0 0 500 374" fill="none" xmlns="http://www.w3.org/2000/svg">
<g clip-path="url(#clip0_16151_15942)">
<path d="M500 328.398H0V328.648H500V328.398Z" fill="#EBEBEB"/>
<path d="M237.014 283.8H43.915C40.768 283.8 38.207 281.239 38.207 278.092V6.66C38.207 3.513 40.768 0.952 43.915 0.952H237.014C240.16 0.952 242.721 3.513 242.721 6.66V278.092C242.721 281.239 240.16 283.8 237.014 283.8ZM43.915 1.203C40.905 1.203 38.457 3.651 38.457 6.661V278.093C38.457 281.103 40.905 283.551 43.915 283.551H237.014C240.023 283.551 242.471 281.103 242.471 278.093V6.66C242.471 3.651 240.023 1.202 237.014 1.202L43.915 1.203Z" fill="#EBEBEB"/>
<path d="M453.31 283.8H260.212C257.065 283.8 254.505 281.239 254.505 278.092V6.66C254.505 3.513 257.066 0.952 260.212 0.952H453.31C456.458 0.952 459.018 3.513 459.018 6.66V278.092C459.019 281.239 456.458 283.8 453.31 283.8ZM260.212 1.203C257.203 1.203 254.755 3.651 254.755 6.661V278.093C254.755 281.103 257.203 283.551 260.212 283.551H453.31C456.32 283.551 458.768 281.103 458.768 278.093V6.66C458.768 3.651 456.32 1.202 453.31 1.202L260.212 1.203Z" fill="#EBEBEB"/>
<path d="M77.2761 337.922H51.2791V338.172H77.2761V337.922Z" fill="#EBEBEB"/>
<path d="M190.18 335.208H145.153V335.458H190.18V335.208Z" fill="#EBEBEB"/>
<path d="M139.069 347.208H78.2771V347.458H139.069V347.208Z" fill="#EBEBEB"/>
<path d="M448.722 345.528H429.487V345.778H448.722V345.528Z" fill="#EBEBEB"/>
<path d="M420.583 345.528H365.291V345.778H420.583V345.528Z" fill="#EBEBEB"/>
<path d="M331.514 341.306H257.047V341.556H331.514V341.306Z" fill="#EBEBEB"/>
<path d="M190.832 161.44L178.178 328.4H300.158L312.811 161.44H190.832ZM267.538 279.45C266.506 293.07 254.629 304.11 241.009 304.11C227.389 304.11 217.186 293.07 218.218 279.45L222.667 220.75C223.699 207.13 235.577 196.08 249.197 196.08C256.007 196.08 261.968 198.84 266.089 203.31C270.211 207.77 272.503 213.94 271.987 220.75L267.538 279.45Z" fill="#E6E6E6"/>
<path d="M338.875 328.398H161.005L162.03 317.444H339.9L338.875 328.398Z" fill="#E6E6E6"/>
<path d="M407.225 266.406H422.975C423.875 266.406 424.574 265.67 424.529 264.77L424.473 263.652C424.428 262.752 423.655 262.016 422.755 262.016H407.005C406.105 262.016 405.406 262.752 405.451 263.652L405.507 264.77C405.552 265.67 406.325 266.406 407.225 266.406Z" fill="#E0E0E0"/>
<path d="M380.886 266.406H396.636C397.536 266.406 398.235 265.67 398.19 264.77L398.134 263.652C398.089 262.752 397.316 262.016 396.416 262.016H380.666C379.766 262.016 379.067 262.752 379.112 263.652L379.168 264.77C379.214 265.67 379.987 266.406 380.886 266.406Z" fill="#E0E0E0"/>
<path d="M435.225 265.168H67.6009C63.3609 265.168 59.7519 261.731 59.5389 257.491L48.4729 36.673C48.2609 32.433 51.5249 28.996 55.7649 28.996H423.39C427.63 28.996 431.239 32.433 431.452 36.673L442.518 257.491C442.73 261.731 439.465 265.168 435.225 265.168Z" fill="#E0E0E0"/>
<path d="M439.73 265.168H72.1059C67.8659 265.168 64.2569 261.731 64.0439 257.491L52.9779 36.673C52.7649 32.433 56.0299 28.996 60.2699 28.996H427.895C432.135 28.996 435.744 32.433 435.956 36.673L447.022 257.491C447.235 261.731 443.97 265.168 439.73 265.168Z" fill="#E6E6E6"/>
<path d="M74.2559 249.758L63.9649 44.407C63.8319 41.75 65.8779 39.596 68.5349 39.596H420.692C423.349 39.596 425.611 41.75 425.744 44.407L436.035 249.757C436.168 252.414 434.122 254.568 431.465 254.568H79.3079C76.6509 254.568 74.3889 252.415 74.2559 249.758Z" fill="#F5F5F5"/>
<path d="M85.663 50.103C85.781 52.453 83.971 54.359 81.62 54.359C79.269 54.359 77.269 52.454 77.151 50.103C77.033 47.752 78.843 45.847 81.194 45.847C83.544 45.847 85.545 47.752 85.663 50.103Z" fill="white"/>
<path d="M104.935 50.103C105.053 52.453 103.243 54.359 100.892 54.359C98.5409 54.359 96.5399 52.454 96.4229 50.103C96.3049 47.752 98.1149 45.847 100.466 45.847C102.817 45.847 104.817 47.752 104.935 50.103Z" fill="white"/>
<path d="M124.207 50.103C124.325 52.453 122.515 54.359 120.164 54.359C117.814 54.359 115.813 52.454 115.695 50.103C115.577 47.752 117.387 45.847 119.738 45.847C122.088 45.847 124.089 47.752 124.207 50.103Z" fill="white"/>
<g opacity="0.6">
<path d="M110.875 254.568H161.625L208.025 39.596H157.275L110.875 254.568Z" fill="white"/>
<path d="M329.284 254.568H342.129L388.529 39.596H375.684L329.284 254.568Z" fill="white"/>
<path d="M172.908 254.568H244.911L291.311 39.596H219.308L172.908 254.568Z" fill="white"/>
</g>
<path d="M250 373.561C357.082 373.561 443.889 368.492 443.889 362.238C443.889 355.984 357.082 350.915 250 350.915C142.918 350.915 56.1111 355.984 56.1111 362.238C56.1111 368.492 142.918 373.561 250 373.561Z" fill="#F5F5F5"/>
<path d="M360.602 209.054C360.481 209.054 360.359 209.049 360.238 209.039C333.605 206.859 315.27 184.092 314.503 183.124C312.97 181.19 313.295 178.381 315.228 176.849C317.161 175.315 319.967 175.639 321.5 177.571C321.715 177.839 337.403 197.18 359.126 199.943C366.172 192.952 372.105 174.459 371.457 168.866C371.451 168.814 371.446 168.762 371.442 168.71C371.296 166.909 370.961 160.746 372.731 157.065C373.8 154.841 376.466 153.909 378.693 154.976C380.916 156.045 381.851 158.714 380.782 160.938C380.34 161.857 380.133 165.175 380.342 167.93C381.336 177.132 373.36 200.353 363.339 208.117C362.552 208.727 361.589 209.054 360.602 209.054Z" fill="#263238"/>
<path d="M148.824 184.821C140.896 184.821 118.447 182.875 100.259 162.544C98.8439 160.962 98.7379 158.604 100.003 156.901C107.218 147.194 119.963 124.26 121.949 116.787C121.131 115.37 119.644 113.322 117.806 112.459C116.382 111.79 115.414 110.421 115.26 108.856L114.536 101.533C114.293 99.078 116.087 96.891 118.542 96.648C120.994 96.405 123.184 98.198 123.427 100.654L123.93 105.745C128.295 108.875 130.469 113.76 130.735 114.389C131.037 115.102 131.15 115.88 131.06 116.649C130.14 124.587 117.269 147.548 109.351 159.16C127.838 177.589 149.936 175.908 150.91 175.822C153.351 175.623 155.531 177.418 155.753 179.871C155.974 182.323 154.176 184.491 151.725 184.719C151.518 184.735 150.492 184.821 148.824 184.821Z" fill="#263238"/>
<path d="M292.865 362.094H280.895C279.498 362.094 278.183 361.441 277.338 360.329C276.493 359.217 276.217 357.774 276.591 356.429C279.72 345.191 281.256 336.045 282.406 321.723C278.17 301.774 274.178 283.511 274.138 283.327C273.611 280.917 275.137 278.536 277.547 278.01C279.961 277.485 282.338 279.01 282.864 281.419C282.905 281.605 286.987 300.28 291.279 320.503C291.369 320.923 291.396 321.353 291.363 321.781C290.351 334.639 289.052 343.533 286.686 353.161H292.864C295.331 353.161 297.331 355.161 297.331 357.628C297.332 360.094 295.332 362.094 292.865 362.094Z" fill="#263238"/>
<path d="M200.324 362.094H193.564C192.272 362.094 191.043 361.534 190.194 360.559C189.345 359.584 188.961 358.289 189.14 357.01C190.285 348.807 196.179 333.875 202.435 318.866C204.667 299.066 206.492 282.066 206.51 281.895C206.773 279.442 208.971 277.657 211.428 277.93C213.881 278.194 215.656 280.395 215.393 282.848C215.374 283.021 213.508 300.405 211.241 320.499C211.194 320.918 211.087 321.329 210.925 321.719C206.488 332.347 201.435 344.865 199.123 353.159H200.324C202.791 353.159 204.791 355.159 204.791 357.626C204.79 360.094 202.79 362.094 200.324 362.094Z" fill="#263238"/>
<path d="M204.212 56.98L152.147 109.045C149.527 166.76 149.742 227.376 152.147 290.232H324.31C320.902 209.125 320.578 131.055 324.31 56.979H204.212V56.98Z" fill="white"/>
<path d="M324.31 291.125H152.146C151.667 291.125 151.272 290.746 151.254 290.267C148.757 225.005 148.757 164.02 151.255 109.006C151.265 108.783 151.358 108.572 151.515 108.415L203.58 56.35C203.747 56.182 203.975 56.088 204.211 56.088H324.31C324.554 56.088 324.788 56.189 324.956 56.365C325.125 56.543 325.213 56.781 325.201 57.025C321.606 128.37 321.606 204.64 325.201 290.195C325.212 290.437 325.122 290.674 324.954 290.85C324.785 291.025 324.553 291.125 324.31 291.125ZM153.006 289.34H323.379C319.836 204.482 319.834 128.746 323.371 57.873H204.581L153.022 109.433C150.554 164.065 150.549 224.587 153.006 289.34Z" fill="#263238"/>
<path d="M202.854 233.404L204.73 233.24C204.855 233.995 205.093 234.615 205.442 235.098C205.791 235.581 206.316 235.973 207.017 236.272C207.717 236.57 208.497 236.719 209.355 236.719C210.117 236.719 210.784 236.606 211.356 236.38C211.929 236.153 212.348 235.842 212.614 235.448C212.88 235.053 213.002 234.623 212.979 234.155C212.957 233.681 212.799 233.268 212.508 232.915C212.216 232.562 211.749 232.264 211.106 232.024C210.693 231.866 209.786 231.621 208.383 231.287C206.981 230.955 205.995 230.641 205.425 230.346C204.686 229.969 204.127 229.5 203.746 228.941C203.366 228.381 203.159 227.755 203.126 227.061C203.089 226.299 203.272 225.587 203.672 224.925C204.072 224.263 204.68 223.76 205.494 223.417C206.308 223.073 207.223 222.901 208.239 222.901C209.358 222.901 210.353 223.082 211.225 223.442C212.097 223.801 212.779 224.333 213.273 225.033C213.767 225.733 214.051 226.525 214.128 227.411L212.22 227.556C212.072 226.602 211.689 225.881 211.072 225.393C210.455 224.907 209.567 224.663 208.406 224.663C207.198 224.663 206.328 224.885 205.797 225.327C205.265 225.77 205.015 226.304 205.045 226.929C205.071 227.471 205.288 227.916 205.696 228.267C206.097 228.618 207.118 228.976 208.76 229.343C210.401 229.71 211.53 230.032 212.147 230.306C213.045 230.711 213.718 231.224 214.167 231.845C214.615 232.466 214.859 233.182 214.897 233.992C214.935 234.795 214.742 235.552 214.316 236.263C213.89 236.973 213.256 237.525 212.413 237.92C211.571 238.315 210.61 238.512 209.533 238.512C208.167 238.512 207.013 238.313 206.071 237.915C205.129 237.517 204.376 236.918 203.812 236.118C203.248 235.318 202.93 234.414 202.854 233.404Z" fill="#263238"/>
<path d="M224.91 234.732L226.836 234.969C226.588 236.088 226.07 236.956 225.282 237.573C224.495 238.191 223.466 238.5 222.196 238.5C220.597 238.5 219.305 238.008 218.321 237.023C217.337 236.038 216.802 234.657 216.718 232.878C216.63 231.038 217.035 229.61 217.933 228.595C218.832 227.579 220.037 227.071 221.547 227.071C223.009 227.071 224.227 227.569 225.201 228.564C226.176 229.559 226.705 230.96 226.792 232.765C226.797 232.875 226.802 233.039 226.806 233.259H218.652C218.777 234.46 219.161 235.38 219.803 236.018C220.445 236.657 221.222 236.976 222.135 236.976C222.815 236.976 223.386 236.797 223.849 236.44C224.312 236.085 224.665 235.516 224.91 234.732ZM218.682 231.736H224.787C224.661 230.817 224.394 230.127 223.988 229.667C223.364 228.953 222.581 228.597 221.641 228.597C220.789 228.597 220.088 228.881 219.535 229.451C218.982 230.021 218.698 230.782 218.682 231.736Z" fill="#263238"/>
<path d="M229.3 238.254L228.777 227.319H230.445L230.525 228.977C230.913 228.201 231.281 227.69 231.63 227.443C231.979 227.196 232.369 227.072 232.802 227.072C233.426 227.072 234.07 227.271 234.736 227.67L234.179 229.39C233.713 229.122 233.254 228.988 232.801 228.988C232.396 228.988 232.038 229.11 231.727 229.354C231.416 229.597 231.203 229.935 231.086 230.369C230.912 231.027 230.843 231.748 230.88 232.53L231.154 238.255H229.3V238.254Z" fill="#263238"/>
<path d="M239.38 238.254L234.697 227.319H236.654L239.315 233.867C239.602 234.575 239.871 235.309 240.12 236.071C240.258 235.495 240.454 234.801 240.71 233.991L242.821 227.319H244.726L241.11 238.254H239.38Z" fill="#263238"/>
<path d="M246.276 225.291L246.174 223.16H248.027L248.129 225.291H246.276ZM246.896 238.254L246.373 227.319H248.226L248.749 238.254H246.896Z" fill="#263238"/>
<path d="M258.515 234.249L260.349 234.486C260.209 235.741 259.747 236.725 258.961 237.435C258.174 238.145 257.184 238.501 255.989 238.501C254.493 238.501 253.266 238.013 252.31 237.034C251.354 236.055 250.831 234.654 250.744 232.828C250.687 231.647 250.834 230.614 251.183 229.728C251.532 228.842 252.096 228.179 252.873 227.737C253.652 227.294 254.512 227.072 255.452 227.072C256.64 227.072 257.625 227.373 258.408 227.972C259.192 228.574 259.717 229.427 259.983 230.531L258.194 230.809C257.987 230.076 257.657 229.523 257.204 229.152C256.75 228.781 256.215 228.596 255.597 228.596C254.663 228.596 253.921 228.93 253.369 229.599C252.817 230.269 252.577 231.327 252.646 232.777C252.716 234.245 253.048 235.313 253.643 235.978C254.238 236.644 254.989 236.977 255.895 236.977C256.622 236.977 257.219 236.754 257.685 236.308C258.152 235.862 258.429 235.176 258.515 234.249Z" fill="#263238"/>
<path d="M269.432 234.732L271.359 234.969C271.11 236.088 270.592 236.956 269.805 237.573C269.018 238.191 267.989 238.5 266.719 238.5C265.119 238.5 263.827 238.008 262.844 237.023C261.86 236.038 261.326 234.657 261.241 232.878C261.152 231.038 261.557 229.61 262.456 228.595C263.354 227.579 264.559 227.071 266.069 227.071C267.531 227.071 268.75 227.569 269.724 228.564C270.698 229.559 271.228 230.96 271.315 232.765C271.32 232.875 271.325 233.039 271.328 233.259H263.174C263.3 234.46 263.684 235.38 264.325 236.018C264.967 236.657 265.744 236.976 266.656 236.976C267.336 236.976 267.908 236.797 268.371 236.44C268.834 236.085 269.188 235.516 269.432 234.732ZM263.203 231.736H269.308C269.181 230.817 268.915 230.127 268.509 229.667C267.884 228.953 267.102 228.597 266.161 228.597C265.309 228.597 264.608 228.881 264.056 229.451C263.503 230.021 263.219 230.782 263.203 231.736Z" fill="#263238"/>
<path d="M193.516 259.341L193.439 257.735C192.647 258.97 191.52 259.588 190.058 259.588C189.412 259.588 188.805 259.466 188.233 259.218C187.662 258.971 187.232 258.66 186.943 258.286C186.653 257.912 186.441 257.454 186.305 256.912C186.212 256.548 186.147 255.972 186.109 255.183L185.785 248.407H187.639L187.929 254.471C187.975 255.44 188.044 256.091 188.136 256.428C188.276 256.916 188.542 257.298 188.932 257.576C189.323 257.853 189.796 257.992 190.353 257.992C190.909 257.992 191.424 257.849 191.897 257.565C192.371 257.28 192.697 256.893 192.876 256.401C193.055 255.911 193.122 255.199 193.077 254.265L192.797 248.406H194.651L195.174 259.341H193.516Z" fill="#263238"/>
<path d="M198.077 259.341L197.554 248.406H199.222L199.297 249.962C200.043 248.761 201.173 248.16 202.69 248.16C203.349 248.16 203.961 248.278 204.525 248.514C205.089 248.751 205.517 249.062 205.81 249.446C206.103 249.831 206.317 250.287 206.452 250.816C206.537 251.159 206.6 251.76 206.641 252.618L206.963 259.342H205.109L204.791 252.69C204.755 251.935 204.656 251.371 204.494 250.997C204.332 250.623 204.062 250.324 203.684 250.102C203.306 249.879 202.87 249.767 202.376 249.767C201.586 249.767 200.918 250.018 200.368 250.519C199.818 251.02 199.577 251.97 199.645 253.372L199.931 259.344H198.077V259.341Z" fill="#263238"/>
<path d="M216.876 257.991C216.217 258.575 215.576 258.987 214.953 259.227C214.329 259.467 213.654 259.586 212.926 259.586C211.725 259.586 210.788 259.294 210.115 258.706C209.441 258.119 209.083 257.369 209.039 256.456C209.014 255.922 209.112 255.432 209.335 254.989C209.557 254.546 209.859 254.191 210.241 253.924C210.623 253.656 211.058 253.454 211.546 253.317C211.905 253.221 212.449 253.128 213.18 253.039C214.668 252.86 215.759 252.648 216.455 252.401C216.449 252.146 216.445 251.985 216.442 251.917C216.406 251.162 216.205 250.63 215.84 250.32C215.346 249.902 214.632 249.693 213.699 249.693C212.827 249.693 212.191 249.845 211.791 250.15C211.39 250.457 211.109 250.997 210.947 251.773L209.123 251.525C209.25 250.75 209.492 250.123 209.847 249.646C210.202 249.169 210.73 248.802 211.432 248.544C212.134 248.287 212.954 248.158 213.895 248.158C214.828 248.158 215.592 248.267 216.186 248.487C216.78 248.707 217.222 248.983 217.513 249.315C217.803 249.649 218.015 250.07 218.15 250.577C218.227 250.893 218.285 251.463 218.324 252.287L218.442 254.758C218.525 256.481 218.616 257.571 218.717 258.027C218.818 258.484 218.995 258.922 219.248 259.34H217.312C217.1 258.956 216.955 258.507 216.876 257.991ZM216.523 253.853C215.863 254.128 214.865 254.362 213.529 254.553C212.773 254.662 212.239 254.786 211.93 254.924C211.621 255.062 211.386 255.261 211.228 255.526C211.069 255.791 210.998 256.084 211.013 256.407C211.037 256.901 211.243 257.313 211.634 257.642C212.024 257.971 212.579 258.136 213.3 258.136C214.014 258.136 214.641 257.98 215.182 257.668C215.723 257.355 216.111 256.929 216.346 256.386C216.525 255.967 216.595 255.349 216.556 254.532L216.523 253.853Z" fill="#263238"/>
<path d="M224.569 259.341L219.886 248.406H221.843L224.504 254.955C224.791 255.662 225.06 256.396 225.309 257.158C225.447 256.582 225.643 255.888 225.899 255.079L228.01 248.406H229.915L226.299 259.341H224.569Z" fill="#263238"/>
<path d="M239.146 257.991C238.487 258.575 237.846 258.987 237.223 259.227C236.599 259.467 235.924 259.586 235.196 259.586C233.995 259.586 233.057 259.294 232.385 258.706C231.711 258.119 231.353 257.369 231.309 256.456C231.284 255.922 231.382 255.432 231.605 254.989C231.827 254.546 232.129 254.191 232.511 253.924C232.893 253.656 233.328 253.454 233.816 253.317C234.175 253.221 234.719 253.128 235.45 253.039C236.938 252.86 238.029 252.648 238.725 252.401C238.719 252.146 238.715 251.985 238.712 251.917C238.676 251.162 238.475 250.63 238.11 250.32C237.616 249.902 236.902 249.693 235.969 249.693C235.097 249.693 234.461 249.845 234.061 250.15C233.66 250.457 233.379 250.997 233.217 251.773L231.393 251.525C231.52 250.75 231.762 250.123 232.117 249.646C232.472 249.169 233 248.802 233.702 248.544C234.404 248.287 235.224 248.158 236.165 248.158C237.098 248.158 237.862 248.267 238.456 248.487C239.05 248.707 239.492 248.983 239.783 249.315C240.073 249.649 240.285 250.07 240.42 250.577C240.497 250.893 240.555 251.463 240.594 252.287L240.712 254.758C240.795 256.481 240.886 257.571 240.987 258.027C241.088 258.484 241.265 258.922 241.518 259.34H239.582C239.371 258.956 239.226 258.507 239.146 257.991ZM238.794 253.853C238.134 254.128 237.136 254.362 235.8 254.553C235.043 254.662 234.51 254.786 234.201 254.924C233.892 255.062 233.657 255.261 233.499 255.526C233.34 255.791 233.269 256.084 233.284 256.407C233.308 256.901 233.514 257.313 233.904 257.642C234.294 257.971 234.85 258.136 235.571 258.136C236.285 258.136 236.912 257.98 237.453 257.668C237.994 257.355 238.382 256.929 238.617 256.386C238.796 255.967 238.867 255.349 238.828 254.532L238.794 253.853Z" fill="#263238"/>
<path d="M243.193 246.378L243.091 244.246H244.944L245.046 246.378H243.193ZM243.814 259.341L243.29 248.406H245.143L245.666 259.341H243.814Z" fill="#263238"/>
<path d="M248.446 259.341L247.723 244.246H249.577L250.3 259.341H248.446Z" fill="#263238"/>
<path d="M260.243 257.991C259.585 258.575 258.943 258.987 258.32 259.227C257.697 259.467 257.021 259.586 256.294 259.586C255.093 259.586 254.155 259.294 253.482 258.706C252.808 258.119 252.45 257.369 252.406 256.456C252.381 255.922 252.479 255.432 252.702 254.989C252.924 254.546 253.226 254.191 253.608 253.924C253.99 253.656 254.424 253.454 254.913 253.317C255.271 253.221 255.816 253.128 256.547 253.039C258.034 252.86 259.126 252.648 259.821 252.401C259.815 252.146 259.812 251.985 259.808 251.917C259.772 251.162 259.572 250.63 259.206 250.32C258.712 249.902 257.998 249.693 257.064 249.693C256.193 249.693 255.556 249.845 255.156 250.15C254.756 250.457 254.474 250.997 254.312 251.773L252.488 251.525C252.616 250.75 252.857 250.123 253.212 249.646C253.566 249.169 254.095 248.802 254.797 248.544C255.498 248.287 256.319 248.158 257.26 248.158C258.193 248.158 258.957 248.267 259.551 248.487C260.145 248.707 260.587 248.983 260.878 249.315C261.168 249.649 261.38 250.07 261.515 250.577C261.592 250.893 261.65 251.463 261.689 252.287L261.807 254.758C261.89 256.481 261.982 257.571 262.082 258.027C262.183 258.484 262.36 258.922 262.613 259.34H260.677C260.468 258.956 260.323 258.507 260.243 257.991ZM259.892 253.853C259.232 254.128 258.234 254.362 256.898 254.553C256.141 254.662 255.608 254.786 255.298 254.924C254.989 255.062 254.755 255.261 254.596 255.526C254.438 255.791 254.366 256.084 254.381 256.407C254.404 256.901 254.611 257.313 255.001 257.642C255.391 257.971 255.946 258.136 256.667 258.136C257.381 258.136 258.009 257.98 258.55 257.668C259.091 257.355 259.479 256.929 259.714 256.386C259.893 255.967 259.963 255.349 259.924 254.532L259.892 253.853Z" fill="#263238"/>
<path d="M266.609 259.341H264.89L264.167 244.246H266.02L266.278 249.631C267.013 248.65 267.989 248.159 269.204 248.159C269.877 248.159 270.52 248.295 271.134 248.565C271.747 248.837 272.26 249.217 272.671 249.708C273.082 250.199 273.414 250.792 273.667 251.484C273.92 252.177 274.065 252.919 274.103 253.708C274.193 255.582 273.798 257.03 272.92 258.054C272.043 259.076 270.955 259.587 269.658 259.587C268.367 259.587 267.329 259.049 266.543 257.971L266.609 259.341ZM266.323 253.791C266.386 255.103 266.609 256.05 266.994 256.633C267.624 257.587 268.435 258.064 269.431 258.064C270.242 258.064 270.925 257.713 271.482 257.008C272.039 256.305 272.284 255.256 272.217 253.863C272.149 252.435 271.815 251.381 271.216 250.702C270.616 250.022 269.916 249.682 269.113 249.682C268.303 249.682 267.62 250.035 267.063 250.738C266.506 251.441 266.26 252.46 266.323 253.791Z" fill="#263238"/>
<path d="M276.586 259.341L275.864 244.246H277.718L278.44 259.341H276.586Z" fill="#263238"/>
<path d="M288.629 255.819L290.556 256.056C290.307 257.174 289.789 258.042 289.002 258.66C288.215 259.279 287.186 259.587 285.916 259.587C284.317 259.587 283.025 259.095 282.041 258.11C281.057 257.125 280.523 255.744 280.438 253.965C280.35 252.125 280.754 250.698 281.654 249.682C282.552 248.666 283.757 248.159 285.267 248.159C286.729 248.159 287.947 248.656 288.921 249.651C289.896 250.647 290.426 252.047 290.512 253.852C290.517 253.962 290.522 254.127 290.526 254.347H282.372C282.498 255.547 282.882 256.467 283.522 257.105C284.164 257.745 284.941 258.063 285.854 258.063C286.534 258.063 287.105 257.884 287.569 257.528C288.031 257.171 288.385 256.602 288.629 255.819ZM282.401 252.822H288.506C288.379 251.903 288.113 251.213 287.706 250.754C287.082 250.04 286.3 249.683 285.359 249.683C284.507 249.683 283.805 249.968 283.252 250.538C282.699 251.108 282.417 251.868 282.401 252.822Z" fill="#263238"/>
<path d="M293.439 265.461H274.663C274.294 265.461 273.995 265.162 273.995 264.793C273.995 264.424 274.294 264.125 274.663 264.125H293.439C293.808 264.125 294.107 264.424 294.107 264.793C294.106 265.162 293.808 265.461 293.439 265.461Z" fill="#18181B"/>
<path d="M266.885 265.461H183.017C182.648 265.461 182.349 265.162 182.349 264.793C182.349 264.424 182.648 264.125 183.017 264.125H266.885C267.254 264.125 267.553 264.424 267.553 264.793C267.553 265.162 267.254 265.461 266.885 265.461Z" fill="#18181B"/>
<path d="M214.279 165.185C214.082 160.832 211.606 157.386 208.748 157.489C205.891 157.592 203.734 161.204 203.932 165.557C204.129 169.91 206.605 173.356 209.463 173.253C212.32 173.15 214.476 169.538 214.279 165.185Z" fill="#18181B"/>
<path d="M274.65 163.825C274.453 159.472 271.977 156.026 269.119 156.129C266.262 156.232 264.105 159.844 264.302 164.198C264.499 168.552 266.975 171.997 269.833 171.894C272.69 171.791 274.847 168.178 274.65 163.825Z" fill="#18181B"/>
<path d="M229.349 183.029C245.179 177.378 257.409 184.017 257.975 184.333C258.595 184.679 258.815 185.455 258.468 186.069C258.121 186.682 257.336 186.9 256.716 186.557C256.574 186.479 242.322 178.797 225.309 187.572C224.677 187.894 223.9 187.654 223.57 187.029C223.24 186.404 223.484 185.634 224.114 185.309C225.895 184.39 227.643 183.638 229.349 183.029Z" fill="#18181B"/>
<path d="M205.641 124.339C206.069 124.349 206.501 124.466 206.897 124.7C208.122 125.424 208.534 126.993 207.816 128.206C200.627 140.352 188.776 140.953 188.275 140.972C186.854 141.029 185.652 139.929 185.584 138.518C185.517 137.112 186.605 135.926 188.017 135.863C188.407 135.843 197.641 135.278 203.378 125.585C203.864 124.764 204.743 124.318 205.641 124.339Z" fill="#18181B"/>
<path d="M266.053 122.872C266.87 122.714 267.751 122.953 268.384 123.586C276.416 131.617 285.521 129.981 285.904 129.908C287.292 129.642 288.651 130.539 288.936 131.918C289.221 133.297 288.339 134.636 286.953 134.917C286.449 135.007 274.808 137.235 264.744 127.174C263.739 126.169 263.739 124.552 264.745 123.561C265.116 123.194 265.573 122.964 266.053 122.872Z" fill="#18181B"/>
<path opacity="0.2" d="M321.717 150.858L314.415 151.543C311.797 151.789 309.406 150.049 308.833 147.483L298.703 102.102C298.091 99.362 299.757 96.629 302.472 95.916L322.062 90.775L321.717 150.858Z" fill="black"/>
<path opacity="0.2" d="M209.016 113.693C203.926 99.795 198.837 77.565 204.212 56.98L152.147 109.045C166.859 113.968 190.319 116.111 209.016 113.693Z" fill="black"/>
<path d="M204.212 109.046C198.504 92.187 200.831 69.267 204.212 56.981L152.147 109.046C167.91 111.915 185.516 111.464 204.212 109.046Z" fill="white"/>
<path d="M175.956 111.925C167.264 111.925 159.316 111.258 151.987 109.924C151.66 109.865 151.394 109.629 151.295 109.312C151.196 108.996 151.281 108.65 151.516 108.416L203.581 56.351C203.868 56.064 204.311 56.007 204.661 56.21C205.011 56.414 205.181 56.828 205.073 57.218C201.926 68.658 199.324 91.823 205.058 108.761C205.144 109.014 205.112 109.292 204.97 109.52C204.828 109.747 204.593 109.898 204.327 109.932C194.049 111.26 184.632 111.925 175.956 111.925ZM153.994 108.461C167.826 110.753 183.898 110.699 203.029 108.297C198.323 93.364 199.386 73.595 202.555 59.9L153.994 108.461Z" fill="#263238"/>
<path d="M383.104 185.114C382.442 185.114 381.836 184.67 381.661 183.999L363.324 114.12C363.114 113.322 363.592 112.506 364.389 112.297C365.19 112.085 366.003 112.565 366.212 113.362L384.549 183.241C384.759 184.039 384.281 184.855 383.484 185.064C383.357 185.099 383.229 185.114 383.104 185.114Z" fill="#263238"/>
<path d="M416.648 82.7772L415.681 83.031L417.08 88.3628L418.047 88.109L416.648 82.7772Z" fill="#18181B"/>
<path d="M414.108 77.094L410.256 62.415C409.363 59.013 406.285 56.637 402.771 56.637C402.108 56.637 401.446 56.723 400.804 56.892L390.734 59.535L390.48 58.568L400.549 55.925C401.274 55.734 402.022 55.637 402.771 55.637C406.74 55.637 410.215 58.32 411.223 62.161L415.075 76.84L414.108 77.094Z" fill="#18181B"/>
<path d="M416.165 115.436L320.826 140.454C318.026 141.189 315.16 139.515 314.426 136.714L302.359 90.728C301.624 87.928 303.299 85.062 306.099 84.328L401.438 59.31C404.238 58.575 407.104 60.249 407.838 63.05L419.905 109.036C420.64 111.836 418.966 114.702 416.165 115.436Z" fill="#18181B"/>
<path d="M403.125 137.404L342.972 153.189C340.172 153.924 337.306 152.25 336.572 149.449L332.801 135.079C332.066 132.279 333.74 129.413 336.54 128.679L396.693 112.894C399.493 112.159 402.359 113.833 403.093 116.634L406.864 131.004C407.6 133.803 405.926 136.669 403.125 137.404Z" fill="#18181B"/>
<path d="M342.152 133.94L350.38 131.801L350.931 133.922L345.781 135.261L346.191 136.84L350.969 135.598L351.496 137.625L346.718 138.867L347.228 140.826L352.527 139.448L353.112 141.698L344.735 143.877L342.152 133.94Z" fill="white"/>
<path d="M354.807 141.257L352.223 131.321L357.34 129.99C358.289 129.744 359.035 129.636 359.58 129.668C360.124 129.7 360.606 129.897 361.028 130.257C361.45 130.618 361.743 131.115 361.908 131.747C362.051 132.298 362.057 132.804 361.926 133.265C361.795 133.727 361.555 134.135 361.208 134.49C360.987 134.717 360.662 134.94 360.233 135.164C360.63 135.191 360.928 135.243 361.127 135.322C361.261 135.375 361.47 135.506 361.754 135.717C362.038 135.928 362.234 136.096 362.345 136.223L364.58 138.715L361.111 139.617L358.681 137.008C358.37 136.669 358.119 136.461 357.925 136.387C357.663 136.291 357.393 136.279 357.113 136.352L356.842 136.422L357.891 140.455L354.807 141.257ZM356.354 134.545L357.649 134.208C357.788 134.172 358.047 134.055 358.426 133.862C358.619 133.767 358.759 133.62 358.843 133.419C358.929 133.22 358.943 133.011 358.887 132.794C358.803 132.473 358.638 132.253 358.39 132.134C358.142 132.016 357.737 132.03 357.177 132.175L355.828 132.526L356.354 134.545Z" fill="white"/>
<path d="M365.603 138.448L363.019 128.513L368.136 127.182C369.085 126.935 369.831 126.827 370.376 126.859C370.92 126.892 371.403 127.088 371.824 127.449C372.246 127.809 372.539 128.307 372.704 128.939C372.847 129.489 372.853 129.996 372.722 130.457C372.591 130.919 372.352 131.326 372.004 131.681C371.783 131.908 371.458 132.131 371.029 132.356C371.426 132.383 371.724 132.434 371.924 132.514C372.058 132.567 372.267 132.698 372.55 132.908C372.834 133.12 373.03 133.288 373.141 133.414L375.376 135.907L371.907 136.808L369.477 134.199C369.167 133.86 368.915 133.653 368.721 133.578C368.46 133.482 368.189 133.47 367.909 133.543L367.638 133.614L368.687 137.647L365.603 138.448ZM367.15 131.737L368.445 131.399C368.584 131.363 368.844 131.247 369.222 131.053C369.415 130.959 369.555 130.811 369.639 130.61C369.725 130.41 369.739 130.201 369.683 129.984C369.599 129.663 369.434 129.443 369.186 129.325C368.938 129.206 368.534 129.22 367.973 129.366L366.624 129.717L367.15 131.737Z" fill="white"/>
<path d="M374.446 130.852C374.024 129.23 374.147 127.849 374.816 126.71C375.484 125.572 376.625 124.792 378.238 124.372C379.892 123.942 381.282 124.055 382.407 124.71C383.532 125.364 384.303 126.493 384.72 128.091C385.021 129.252 385.074 130.257 384.877 131.101C384.679 131.946 384.265 132.672 383.633 133.276C383.002 133.882 382.135 134.328 381.033 134.615C379.913 134.907 378.938 134.969 378.112 134.803C377.285 134.637 376.543 134.228 375.885 133.574C375.228 132.922 374.748 132.014 374.446 130.852ZM377.52 130.067C377.781 131.071 378.154 131.743 378.641 132.083C379.127 132.424 379.692 132.513 380.334 132.345C380.993 132.174 381.449 131.826 381.697 131.304C381.947 130.78 381.927 129.962 381.639 128.851C381.396 127.915 381.029 127.281 380.54 126.948C380.05 126.614 379.482 126.531 378.836 126.699C378.216 126.86 377.777 127.209 377.516 127.745C377.255 128.28 377.256 129.056 377.52 130.067Z" fill="white"/>
<path d="M387.726 132.695L385.142 122.759L390.259 121.429C391.207 121.182 391.953 121.074 392.498 121.106C393.043 121.139 393.525 121.335 393.947 121.695C394.369 122.056 394.661 122.553 394.826 123.185C394.969 123.736 394.975 124.242 394.844 124.703C394.713 125.165 394.473 125.573 394.127 125.928C393.905 126.155 393.58 126.378 393.151 126.602C393.549 126.629 393.846 126.681 394.046 126.76C394.18 126.813 394.389 126.944 394.672 127.155C394.956 127.367 395.153 127.534 395.263 127.661L397.498 130.153L394.03 131.056L391.599 128.447C391.289 128.108 391.037 127.901 390.844 127.826C390.582 127.73 390.311 127.718 390.031 127.791L389.761 127.861L390.809 131.894L387.726 132.695ZM389.273 125.983L390.567 125.646C390.707 125.61 390.966 125.493 391.345 125.3C391.538 125.205 391.677 125.058 391.762 124.857C391.847 124.658 391.861 124.449 391.805 124.232C391.721 123.911 391.556 123.691 391.308 123.572C391.06 123.454 390.656 123.468 390.095 123.614L388.747 123.964L389.273 125.983Z" fill="white"/>
<path d="M318.736 94.236L339.436 88.804L341.262 95.761L327.241 99.44L327.728 104.346C328.578 103.635 329.448 103.04 330.337 102.563C331.226 102.086 332.134 101.725 333.062 101.482C336.201 100.658 338.998 100.939 341.451 102.324C343.904 103.709 345.509 105.843 346.265 108.725C346.797 110.751 346.805 112.831 346.289 114.965C345.773 117.099 344.721 118.9 343.131 120.37C341.541 121.84 339.305 122.953 336.423 123.709C334.354 124.252 332.529 124.521 330.949 124.516C329.369 124.511 327.96 124.256 326.721 123.749C325.482 123.242 324.413 122.582 323.512 121.765C322.612 120.949 321.754 119.862 320.941 118.504L329.507 115.227C330.092 116.584 330.873 117.526 331.851 118.055C332.829 118.584 333.86 118.706 334.944 118.422C336.157 118.104 337.039 117.38 337.589 116.252C338.139 115.124 338.175 113.646 337.696 111.82C337.206 109.951 336.446 108.685 335.419 108.025C334.392 107.365 333.214 107.208 331.887 107.556C331.045 107.777 330.286 108.197 329.61 108.817C329.103 109.27 328.604 109.981 328.11 110.949L320.401 111.828L318.736 94.236Z" fill="white"/>
<path d="M348.529 103.052C346.964 97.087 346.942 92.631 348.465 89.684C349.987 86.737 352.946 84.687 357.342 83.534C359.454 82.98 361.256 82.785 362.749 82.95C364.241 83.115 365.525 83.503 366.601 84.113C367.676 84.723 368.581 85.424 369.315 86.215C370.049 87.006 370.727 87.976 371.348 89.125C372.547 91.312 373.48 93.675 374.147 96.216C375.641 101.91 375.771 106.33 374.538 109.475C373.304 112.621 370.333 114.811 365.623 116.047C362.983 116.74 360.739 116.879 358.891 116.464C357.043 116.049 355.385 115.165 353.916 113.811C352.856 112.853 351.853 111.428 350.906 109.533C349.957 107.638 349.165 105.478 348.529 103.052ZM357.182 100.804C358.231 104.8 359.3 107.436 360.39 108.714C361.48 109.991 362.696 110.454 364.038 110.102C364.923 109.87 365.608 109.358 366.095 108.567C366.581 107.776 366.802 106.669 366.757 105.247C366.712 103.825 366.317 101.694 365.571 98.854C364.478 94.687 363.39 91.979 362.307 90.73C361.224 89.481 359.976 89.042 358.564 89.413C357.123 89.791 356.273 90.796 356.015 92.427C355.755 94.059 356.145 96.851 357.182 100.804Z" fill="white"/>
<path d="M380.19 93.1587C378.625 87.1937 378.603 82.7377 380.126 79.7907C381.648 76.8437 384.607 74.7937 389.003 73.6407C391.115 73.0867 392.917 72.8917 394.41 73.0567C395.902 73.2217 397.186 73.6097 398.262 74.2197C399.337 74.8297 400.242 75.5307 400.976 76.3217C401.71 77.1127 402.388 78.0827 403.009 79.2317C404.208 81.4187 405.141 83.7817 405.808 86.3227C407.302 92.0167 407.432 96.4367 406.199 99.5817C404.965 102.728 401.994 104.918 397.284 106.154C394.644 106.847 392.4 106.986 390.552 106.571C388.704 106.156 387.046 105.272 385.577 103.918C384.517 102.96 383.514 101.535 382.567 99.6397C381.618 97.7447 380.826 95.5847 380.19 93.1587ZM388.843 90.9107C389.892 94.9067 390.961 97.5427 392.051 98.8207C393.141 100.098 394.357 100.561 395.699 100.209C396.584 99.9767 397.269 99.4647 397.756 98.6737C398.242 97.8827 398.463 96.7757 398.418 95.3537C398.373 93.9317 397.978 91.8007 397.232 88.9607C396.139 84.7937 395.051 82.0857 393.968 80.8367C392.885 79.5877 391.637 79.1487 390.225 79.5197C388.784 79.8977 387.934 80.9027 387.676 82.5337C387.416 84.1657 387.806 86.9577 388.843 90.9107Z" fill="white"/>
</g>
<defs>
<clipPath id="clip0_16151_15942">
<rect width="500" height="374" fill="white"/>
</clipPath>
</defs>
</svg>
