<svg width="641" height="642" viewBox="0 0 641 642" fill="none" xmlns="http://www.w3.org/2000/svg">
<path d="M529.394 133.032C508.11 112.218 483.732 94.9178 457.814 82.7991C418.349 64.346 374.879 55.4515 331.406 54.9233C204.355 53.3785 194.682 202.634 155.619 223.386C116.556 244.139 45.7533 246.58 43.3111 329.589C41.7752 381.8 53.9632 435.488 88.2375 476.167C119.629 513.424 165.746 532.308 211.179 546.259C262.2 561.925 316.309 577.292 369.976 566.723C425.052 555.876 463.746 512.267 508.976 482.797C537.454 464.243 563.015 444.703 580.597 414.929C582.697 411.373 584.67 407.739 586.543 404.057C610.082 357.791 614.698 304.425 601.716 254.359C590.066 209.432 563.77 166.648 529.394 133.032Z" fill="#64B5F7"/>
<path opacity="0.7" d="M528.518 133.372C507.234 112.559 482.856 95.2579 456.937 83.1392C417.472 64.6861 374.002 55.7916 330.53 55.2634C203.478 53.7186 193.806 202.974 154.743 223.726C115.679 244.479 44.8769 246.92 42.4347 329.929C40.8989 382.14 53.0869 435.828 87.3611 476.507C118.752 513.764 164.87 532.648 210.302 546.599C261.323 562.265 315.433 577.632 369.1 567.063C424.176 556.216 462.869 512.607 508.099 483.137C536.578 464.583 562.138 445.043 579.721 415.27C581.821 411.713 583.794 408.079 585.667 404.397C609.206 358.131 613.822 304.765 600.839 254.699C589.19 209.773 562.893 166.988 528.518 133.372Z" fill="white"/>
<path d="M19.7209 593.953H613.841" stroke="#263238" stroke-miterlimit="10" stroke-linecap="round" stroke-linejoin="round"/>
<path d="M366.86 141.492H279.844L265.953 204.683H380.75L366.86 141.492Z" fill="#F0F0F0" stroke="#263238" stroke-miterlimit="10" stroke-linecap="round" stroke-linejoin="round"/>
<path d="M394.616 203.522H252.087L229.336 297.821H417.369L394.616 203.522Z" fill="#E3E3E3" stroke="#263238" stroke-miterlimit="10" stroke-linecap="round" stroke-linejoin="round"/>
<path d="M366.758 203.698H279.947V215.146H366.758V203.698Z" fill="white" stroke="#263238" stroke-miterlimit="10" stroke-linecap="round" stroke-linejoin="round"/>
<path d="M369.098 214.084H277.606V225.77H369.098V214.084Z" fill="white" stroke="#263238" stroke-miterlimit="10" stroke-linecap="round" stroke-linejoin="round"/>
<path d="M371.438 225.07H275.266V236.995H371.438V225.07Z" fill="white" stroke="#263238" stroke-miterlimit="10" stroke-linecap="round" stroke-linejoin="round"/>
<path d="M373.779 236.358H272.926V248.522H373.779V236.358Z" fill="white" stroke="#263238" stroke-miterlimit="10" stroke-linecap="round" stroke-linejoin="round"/>
<path d="M376.118 247.946H270.585V260.348H376.118V247.946Z" fill="white" stroke="#263238" stroke-miterlimit="10" stroke-linecap="round" stroke-linejoin="round"/>
<path d="M378.458 259.836H268.246V272.476H378.458V259.836Z" fill="white" stroke="#263238" stroke-miterlimit="10" stroke-linecap="round" stroke-linejoin="round"/>
<path d="M380.799 272.325H265.906V285.204H380.799V272.325Z" fill="white" stroke="#263238" stroke-miterlimit="10" stroke-linecap="round" stroke-linejoin="round"/>
<path d="M383.137 284.515H263.565V297.633H383.137V284.515Z" fill="white" stroke="#263238" stroke-miterlimit="10" stroke-linecap="round" stroke-linejoin="round"/>
<path d="M343.639 141.652H303.064V149.214H343.639V141.652Z" fill="white" stroke="#263238" stroke-miterlimit="10" stroke-linecap="round" stroke-linejoin="round"/>
<path d="M344.734 148.512H301.97V156.232H344.734V148.512Z" fill="white" stroke="#263238" stroke-miterlimit="10" stroke-linecap="round" stroke-linejoin="round"/>
<path d="M345.827 155.769H300.876V163.646H345.827V155.769Z" fill="white" stroke="#263238" stroke-miterlimit="10" stroke-linecap="round" stroke-linejoin="round"/>
<path d="M346.922 163.225H299.783V171.26H346.922V163.225Z" fill="white" stroke="#263238" stroke-miterlimit="10" stroke-linecap="round" stroke-linejoin="round"/>
<path d="M348.016 170.879H298.689V179.071H348.016V170.879Z" fill="white" stroke="#263238" stroke-miterlimit="10" stroke-linecap="round" stroke-linejoin="round"/>
<path d="M349.109 178.732H297.596V187.082H349.109V178.732Z" fill="white" stroke="#263238" stroke-miterlimit="10" stroke-linecap="round" stroke-linejoin="round"/>
<path d="M350.201 186.982H296.501V195.489H350.201V186.982Z" fill="white" stroke="#263238" stroke-miterlimit="10" stroke-linecap="round" stroke-linejoin="round"/>
<path d="M351.296 195.033H295.407V203.698H351.296V195.033Z" fill="white" stroke="#263238" stroke-miterlimit="10" stroke-linecap="round" stroke-linejoin="round"/>
<path d="M443.493 297.165H203.212L164.855 438.723H481.849L443.493 297.165Z" fill="#C7C7C7" stroke="#263238" stroke-miterlimit="10" stroke-linecap="round" stroke-linejoin="round"/>
<path d="M533.029 434.282H113.675L73.1727 593.953H573.532L533.029 434.282Z" fill="#C7C7C7" stroke="#263238" stroke-miterlimit="10" stroke-linecap="round" stroke-linejoin="round"/>
<path d="M481.169 450.298H165.534L166.609 434.525H480.095L481.169 450.298Z" fill="white" stroke="#263238" stroke-miterlimit="10" stroke-linecap="round" stroke-linejoin="round"/>
<path d="M485.186 466.758H161.518L162.647 450.47H484.056L485.186 466.758Z" fill="white" stroke="#263238" stroke-miterlimit="10" stroke-linecap="round" stroke-linejoin="round"/>
<path d="M489.26 483.452H157.445L158.631 466.639H488.073L489.26 483.452Z" fill="white" stroke="#263238" stroke-miterlimit="10" stroke-linecap="round" stroke-linejoin="round"/>
<path d="M493.392 500.388H153.312L154.558 483.034H492.146L493.392 500.388Z" fill="white" stroke="#263238" stroke-miterlimit="10" stroke-linecap="round" stroke-linejoin="round"/>
<path d="M497.585 517.568H149.12L150.427 499.661H496.276L497.585 517.568Z" fill="white" stroke="#263238" stroke-miterlimit="10" stroke-linecap="round" stroke-linejoin="round"/>
<path d="M501.929 536.217H144.775L146.148 517.723H500.556L501.929 536.217Z" fill="white" stroke="#263238" stroke-miterlimit="10" stroke-linecap="round" stroke-linejoin="round"/>
<path d="M506.341 555.158H140.362L141.805 536.063H504.899L506.341 555.158Z" fill="white" stroke="#263238" stroke-miterlimit="10" stroke-linecap="round" stroke-linejoin="round"/>
<path d="M510.825 574.403H135.879L137.393 554.687H509.312L510.825 574.403Z" fill="white" stroke="#263238" stroke-miterlimit="10" stroke-linecap="round" stroke-linejoin="round"/>
<path d="M515.379 593.953H131.326L132.913 573.601H513.792L515.379 593.953Z" fill="white" stroke="#263238" stroke-miterlimit="10" stroke-linecap="round" stroke-linejoin="round"/>
<path d="M406.636 297.115H240.067V313.865H406.636V297.115Z" fill="white" stroke="#263238" stroke-miterlimit="10" stroke-linecap="round" stroke-linejoin="round"/>
<path d="M411.127 312.31H235.578V329.411H411.127V312.31Z" fill="white" stroke="#263238" stroke-miterlimit="10" stroke-linecap="round" stroke-linejoin="round"/>
<path d="M415.615 328.385H231.087V345.835H415.615V328.385Z" fill="white" stroke="#263238" stroke-miterlimit="10" stroke-linecap="round" stroke-linejoin="round"/>
<path d="M420.106 344.901H226.597V362.699H420.106V344.901Z" fill="white" stroke="#263238" stroke-miterlimit="10" stroke-linecap="round" stroke-linejoin="round"/>
<path d="M424.596 361.857H222.108V380.004H424.596V361.857Z" fill="white" stroke="#263238" stroke-miterlimit="10" stroke-linecap="round" stroke-linejoin="round"/>
<path d="M429.087 379.251H217.618V397.747H429.087V379.251Z" fill="white" stroke="#263238" stroke-miterlimit="10" stroke-linecap="round" stroke-linejoin="round"/>
<path d="M433.575 397.526H213.127V416.37H433.575V397.526Z" fill="white" stroke="#263238" stroke-miterlimit="10" stroke-linecap="round" stroke-linejoin="round"/>
<path d="M438.066 415.361H208.638V434.554H438.066V415.361Z" fill="white" stroke="#263238" stroke-miterlimit="10" stroke-linecap="round" stroke-linejoin="round"/>
<path d="M199.693 204.354L188.222 214.439" stroke="#263238" stroke-miterlimit="10" stroke-linecap="round" stroke-linejoin="round"/>
<path d="M301.803 114.588L206.755 198.147" stroke="#263238" stroke-miterlimit="10" stroke-linecap="round" stroke-linejoin="round"/>
<path d="M291.818 112.092L226.914 135.806" stroke="#263238" stroke-miterlimit="10" stroke-linecap="round" stroke-linejoin="round"/>
<path d="M232.38 102.378L190.718 105.851" stroke="#263238" stroke-miterlimit="10" stroke-linecap="round" stroke-linejoin="round"/>
<path d="M280.585 98.3613L237.026 101.992" stroke="#263238" stroke-miterlimit="10" stroke-linecap="round" stroke-linejoin="round"/>
<path d="M169.061 43.1071L158.266 39.6982" stroke="#263238" stroke-miterlimit="10" stroke-linecap="round" stroke-linejoin="round"/>
<path d="M262.113 72.4918L172.167 44.0878" stroke="#263238" stroke-miterlimit="10" stroke-linecap="round" stroke-linejoin="round"/>
<path d="M276.84 77.1429L268.152 74.3994" stroke="#263238" stroke-miterlimit="10" stroke-linecap="round" stroke-linejoin="round"/>
<path d="M451.344 204.354L462.815 214.439" stroke="#263238" stroke-miterlimit="10" stroke-linecap="round" stroke-linejoin="round"/>
<path d="M349.234 114.588L444.282 198.147" stroke="#263238" stroke-miterlimit="10" stroke-linecap="round" stroke-linejoin="round"/>
<path d="M359.219 112.092L424.122 135.806" stroke="#263238" stroke-miterlimit="10" stroke-linecap="round" stroke-linejoin="round"/>
<path d="M418.656 102.378L460.319 105.851" stroke="#263238" stroke-miterlimit="10" stroke-linecap="round" stroke-linejoin="round"/>
<path d="M370.452 98.3613L414.01 101.992" stroke="#263238" stroke-miterlimit="10" stroke-linecap="round" stroke-linejoin="round"/>
<path d="M481.974 43.1071L492.77 39.6982" stroke="#263238" stroke-miterlimit="10" stroke-linecap="round" stroke-linejoin="round"/>
<path d="M388.923 72.4918L478.869 44.0878" stroke="#263238" stroke-miterlimit="10" stroke-linecap="round" stroke-linejoin="round"/>
<path d="M374.197 77.1429L382.885 74.3994" stroke="#263238" stroke-miterlimit="10" stroke-linecap="round" stroke-linejoin="round"/>
<path d="M310.034 274.375C310.034 274.375 304.898 272.865 305.201 277.396C305.503 281.928 310.94 284.949 310.94 284.949L310.034 274.375Z" fill="white" stroke="#27272A" stroke-miterlimit="10" stroke-linecap="round" stroke-linejoin="round"/>
<path d="M341.453 274.375C341.453 274.375 345.682 272.259 345.682 276.187C345.682 280.116 341.15 284.042 341.15 284.042L341.453 274.375Z" fill="white" stroke="#27272A" stroke-miterlimit="10" stroke-linecap="round" stroke-linejoin="round"/>
<path d="M309.43 261.988C309.43 261.988 309.733 283.437 310.94 287.365C312.149 291.292 315.773 296.429 319.098 296.429C322.42 296.429 333.598 295.523 335.714 294.315C337.828 293.106 341.152 288.877 341.152 284.044C341.152 279.21 341.756 267.125 341.756 267.125C341.756 267.125 343.568 265.916 344.777 263.198C345.986 260.479 341.756 256.552 340.85 256.25C339.944 255.947 336.621 255.041 336.621 255.041C336.621 255.041 338.736 253.228 338.131 251.718C337.528 250.208 331.787 249.301 329.37 249.301C326.954 249.301 323.932 251.114 323.932 251.114C323.932 251.114 314.264 250.812 311.244 254.437C308.222 258.06 309.43 261.988 309.43 261.988Z" fill="#263238" stroke="#27272A" stroke-miterlimit="10" stroke-linecap="round" stroke-linejoin="round"/>
<path d="M343.266 300.658L304.595 301.262C304.595 301.262 306.408 295.523 308.524 294.918C310.639 294.314 332.391 293.709 336.922 294.314C341.453 294.918 343.266 300.658 343.266 300.658Z" fill="#64B5F7" stroke="#27272A" stroke-miterlimit="10" stroke-linecap="round" stroke-linejoin="round"/>
<path d="M329.795 555.812C329.795 555.812 328.16 573.372 329.555 573.929C330.948 574.487 335.132 576.438 345.168 573.929C347.832 573.263 342.938 555.249 342.938 555.249C342.938 555.249 336.447 559.165 329.795 555.812Z" fill="#263238" stroke="#27272A" stroke-miterlimit="10" stroke-linecap="round" stroke-linejoin="round"/>
<path d="M283.268 419.812L288.381 496.248C288.381 496.248 285.313 510.308 288.126 522.834C290.937 535.36 295.54 579.329 295.54 579.329C295.54 579.329 297.841 574.983 305.51 574.217C313.179 573.45 314.713 576.518 314.713 576.518C314.713 576.518 314.202 543.285 314.202 539.45C314.202 535.616 317.269 511.329 317.013 503.917C316.758 496.503 314.968 488.067 314.968 488.067L316.758 441.798L320.847 441.286C320.847 441.286 318.036 479.375 319.824 488.067C321.614 496.759 325.96 523.857 326.215 526.157C326.47 528.458 329.795 555.811 329.795 555.811C329.795 555.811 336.442 557.601 339.508 557.345C342.576 557.09 344.621 554.789 344.621 554.789C344.621 554.789 350.245 513.632 349.734 507.241C349.222 500.85 343.343 485.512 343.343 484.233C343.343 482.955 341.809 474.263 341.809 474.263C341.809 474.263 352.546 444.354 354.336 433.617C356.126 422.88 356.381 418.023 356.381 418.023C356.381 418.023 325.96 422.88 310.877 422.88C295.795 422.88 283.268 419.812 283.268 419.812Z" fill="#64B5F7" stroke="#27272A" stroke-miterlimit="10" stroke-linecap="round" stroke-linejoin="round"/>
<path d="M297.032 495.854C300.534 492.969 305.149 489.464 309.852 486.751" stroke="#27272A" stroke-miterlimit="10" stroke-linecap="round" stroke-linejoin="round"/>
<path d="M290.87 501.266C290.87 501.266 292.213 499.977 294.406 498.073" stroke="#27272A" stroke-miterlimit="10" stroke-linecap="round" stroke-linejoin="round"/>
<path d="M296.452 490.844L312.457 480.051" stroke="#27272A" stroke-miterlimit="10" stroke-linecap="round" stroke-linejoin="round"/>
<path d="M356.381 418.024C356.381 418.024 325.96 422.882 310.877 422.882C295.795 422.882 283.268 419.814 283.268 419.814L283.572 424.362C287.998 427.697 295.877 433.804 302.338 439.728C309.947 446.702 314.767 449.631 316.418 450.536L316.757 441.798L320.847 441.286C320.847 441.286 318.036 479.375 319.824 488.067C320.649 492.072 322.015 499.982 323.276 507.574C325.15 501.643 328.755 494.543 335.375 493.858C340.093 493.37 344.144 494.877 347.287 496.83C345.479 490.881 343.343 485.003 343.343 484.233C343.343 482.955 341.808 474.263 341.808 474.263C341.808 474.263 352.545 444.354 354.335 433.617C356.124 422.88 356.381 418.024 356.381 418.024Z" fill="#263238" stroke="#27272A" stroke-miterlimit="10" stroke-linecap="round" stroke-linejoin="round"/>
<path d="M274.356 404.817C274.356 404.817 276.243 408.381 277.5 408.8C278.758 409.219 279.807 412.992 279.807 416.766C279.807 420.539 278.549 420.959 278.549 420.959C278.549 420.959 280.436 423.265 279.598 425.989C278.759 428.715 273.31 430.601 271.003 431.439C268.697 432.277 265.134 428.504 263.666 426.617C262.199 424.73 263.247 409.637 263.247 409.637C263.247 409.637 273.517 406.913 274.356 404.817Z" fill="white" stroke="#27272A" stroke-miterlimit="10" stroke-linecap="round" stroke-linejoin="round"/>
<path d="M278.548 420.959C278.548 420.959 274.356 422.635 273.726 423.055C273.097 423.474 270.792 420.748 271.63 419.91C272.469 419.072 275.613 416.975 275.613 416.975" stroke="#27272A" stroke-miterlimit="10" stroke-linecap="round" stroke-linejoin="round"/>
<path d="M269.953 413.411C269.953 413.411 274.356 414.459 272.888 418.442" stroke="#27272A" stroke-miterlimit="10" stroke-linecap="round" stroke-linejoin="round"/>
<path d="M272.469 422.425C272.469 422.425 268.066 424.102 268.066 425.779C268.066 427.456 270.162 429.552 271.42 429.343C272.678 429.133 271.211 427.456 271.211 427.456" stroke="#27272A" stroke-miterlimit="10" stroke-linecap="round" stroke-linejoin="round"/>
<path d="M377.281 413.411C377.281 413.411 373.717 417.604 372.67 419.91C371.621 422.216 369.525 424.312 369.944 425.779C370.363 427.247 370.574 428.294 370.574 428.294C370.574 428.294 368.686 432.697 370.574 433.954C372.461 435.212 373.927 435.422 374.766 435.422C375.604 435.422 378.958 438.148 381.264 437.728C383.571 437.309 386.924 436.261 387.133 429.134C387.342 422.006 388.182 413.832 388.182 413.832C388.182 413.832 380.635 413.411 377.281 413.411Z" stroke="#27272A" stroke-miterlimit="10" stroke-linecap="round" stroke-linejoin="round"/>
<path d="M370.574 428.296C370.574 428.296 376.234 431.859 377.911 431.859C379.587 431.859 380.845 429.344 379.587 428.087C378.33 426.829 374.766 424.523 374.766 424.523" stroke="#27272A" stroke-miterlimit="10" stroke-linecap="round" stroke-linejoin="round"/>
<path d="M381.683 420.12C381.683 420.12 378.33 423.893 379.587 428.087" stroke="#27272A" stroke-miterlimit="10" stroke-linecap="round" stroke-linejoin="round"/>
<path d="M380.215 429.343C380.215 429.343 384.199 430.39 384.408 431.649C384.618 432.907 384.199 435.003 383.359 435.003C382.521 435.003 382.101 433.535 382.101 433.535" stroke="#27272A" stroke-miterlimit="10" stroke-linecap="round" stroke-linejoin="round"/>
<path d="M391.306 411.838C391.306 411.838 389.789 415.456 386.172 417.272C382.542 419.087 376.202 414.25 376.202 414.25L369.551 375.276L355.055 353.532L353.837 385.247C353.837 385.247 359.58 420.293 358.673 420.902C357.765 421.5 344.475 427.542 322.122 429.965C299.769 432.377 280.126 421.809 280.126 421.809L289.487 385.545L285.26 358.666L274.836 375.002L276.198 403.075C276.198 403.075 273.785 409.416 269.558 410.323C265.319 411.231 261.391 410.323 261.391 410.323C261.391 410.323 261.391 410.287 261.379 410.228C261.343 410.049 261.284 409.644 261.188 409.035C261.141 408.76 261.092 408.45 261.033 408.091C260.95 407.53 260.842 406.885 260.723 406.157C260.628 405.608 260.543 405.022 260.437 404.39C260.341 403.77 260.234 403.112 260.127 402.42V402.408C258.491 392.258 255.864 375.828 255.661 374.371V374.312C255.661 371.47 275.304 320.888 276.498 319.695C277.716 318.488 277.716 314.56 281.942 311.837C286.169 309.114 308.834 299.753 308.834 299.753C317.586 297.03 341.754 300.661 341.754 300.661C341.754 300.661 351.128 306.094 352.333 306.703C353.54 307.312 366.531 315.156 369.552 316.972C372.573 318.787 372.871 322.106 374.077 326.036C375.295 329.964 384.047 358.969 386.77 364.103C389.491 369.234 391.306 411.838 391.306 411.838Z" fill="#64B5F7" stroke="#27272A" stroke-miterlimit="10" stroke-linecap="round" stroke-linejoin="round"/>
<path d="M274.835 375L276.197 403.073C276.197 403.073 273.784 409.414 269.557 410.322C265.318 411.23 261.39 410.322 261.39 410.322C261.39 410.322 261.39 410.286 261.378 410.227C261.342 410.048 261.283 409.642 261.187 409.033C261.14 408.759 261.091 408.436 261.032 408.09C260.949 407.528 260.841 406.884 260.722 406.155C260.638 405.607 260.542 405.021 260.436 404.389C260.34 403.768 260.233 403.111 260.125 402.418V402.407C258.49 392.257 255.863 375.827 255.66 374.369V374.31C257.404 375.29 260.651 376.89 262.718 376.519C264.306 376.232 266.205 374.131 267.614 372.28C267.888 371.432 268.115 370.799 268.247 370.429C269.764 366.368 278.623 341.746 278.623 341.746L285.263 358.666L274.835 375Z" fill="#263238" stroke="#27272A" stroke-miterlimit="10" stroke-linecap="round" stroke-linejoin="round"/>
<path d="M279.823 330.566L285.262 358.662" stroke="#27272A" stroke-miterlimit="10" stroke-linecap="round" stroke-linejoin="round"/>
<path d="M359.379 334.035L355.049 353.527L364.111 334.192" stroke="#27272A" stroke-miterlimit="10" stroke-linecap="round" stroke-linejoin="round"/>
<path d="M361.091 326.337L360.4 329.444" stroke="#27272A" stroke-miterlimit="10" stroke-linecap="round" stroke-linejoin="round"/>
<path d="M320.004 336.911C320.004 336.911 337.526 368.934 340.849 371.049" stroke="#27272A" stroke-miterlimit="10" stroke-linecap="round" stroke-linejoin="round"/>
<path d="M338.768 373.77L341.152 375.882" stroke="#27272A" stroke-miterlimit="10" stroke-linecap="round" stroke-linejoin="round"/>
<path d="M325.14 361.684L336.298 371.58" stroke="#27272A" stroke-miterlimit="10" stroke-linecap="round" stroke-linejoin="round"/>
<path d="M391.301 411.833C391.301 411.833 390.813 400.372 389.964 388.624C384.728 386.83 378.712 384.309 376.498 381.622C372.268 376.486 356.86 355.641 356.86 355.641L356.892 356.293L369.548 375.277L376.194 414.249C376.194 414.249 382.539 419.083 386.164 417.27C389.791 415.459 391.301 411.833 391.301 411.833Z" fill="#263238" stroke="#27272A" stroke-miterlimit="10" stroke-linecap="round" stroke-linejoin="round"/>
<path d="M295.538 579.331L294.98 588.426C294.98 588.426 290.519 594.561 291.634 597.907C292.75 601.253 297.211 600.695 303.902 600.695C310.594 600.695 315.334 595.955 315.334 591.772C315.334 587.59 314.71 576.518 314.71 576.518C314.71 576.518 311.853 573.949 305.507 574.217C299.162 574.486 295.538 579.331 295.538 579.331Z" fill="#263238" stroke="#27272A" stroke-miterlimit="10" stroke-linecap="round" stroke-linejoin="round"/>
<path d="M313.699 596.141C311.959 594.843 308.954 593.343 305.297 594.562C300.403 596.193 297.455 599.18 293.852 600.119C296.002 600.936 299.456 600.696 303.903 600.696C308.25 600.695 311.764 598.69 313.699 596.141Z" fill="white" stroke="#27272A" stroke-miterlimit="10" stroke-linecap="round" stroke-linejoin="round"/>
<path d="M318.232 97.6674C317.028 97.6674 316.088 97.3814 315.413 96.8096C314.736 96.2383 314.398 95.4346 314.398 94.3986C314.398 93.8144 314.526 93.2757 314.783 92.7835C315.04 92.2899 315.434 91.8909 315.967 91.5857C316.5 91.2818 317.156 91.1298 317.936 91.1298C318.666 91.1298 319.297 91.2714 319.83 91.5548C320.363 91.8386 320.767 92.2171 321.045 92.6908C321.323 93.1645 321.46 93.6797 321.46 94.2386C321.46 94.3947 321.398 94.5263 321.274 94.6327C321.15 94.7391 320.985 94.7927 320.778 94.7927H315.761C315.84 95.3686 316.096 95.8168 316.531 96.1373C316.965 96.4582 317.572 96.6187 318.351 96.6187C318.766 96.6187 319.128 96.5857 319.439 96.5198C319.75 96.4539 320.054 96.3593 320.35 96.2362C320.429 96.2032 320.517 96.1867 320.616 96.1867C320.774 96.1867 320.912 96.2321 321.03 96.3227C321.149 96.4129 321.208 96.5281 321.208 96.6682C321.208 96.849 321.08 97.001 320.823 97.1241C320.438 97.3049 320.058 97.4407 319.683 97.5314C319.307 97.622 318.824 97.6674 318.232 97.6674ZM315.76 93.8808H320.126C320.097 93.478 319.971 93.1407 319.749 92.8685C319.527 92.5975 319.253 92.3981 318.928 92.2704C318.602 92.1431 318.272 92.0795 317.936 92.0795C317.6 92.0795 317.27 92.1431 316.944 92.2704C316.618 92.3981 316.346 92.5975 316.129 92.8685C315.912 93.14 315.789 93.4772 315.759 93.8808H315.76ZM325.677 97.6674C324.69 97.6674 323.792 97.4821 322.983 97.111C322.815 97.0126 322.731 96.8771 322.731 96.7045C322.731 96.5726 322.785 96.4574 322.894 96.3591C323.002 96.2602 323.141 96.2107 323.309 96.2107C323.397 96.2107 323.485 96.2272 323.575 96.2602C323.891 96.3751 324.207 96.4655 324.522 96.5306C324.838 96.5965 325.193 96.6295 325.589 96.6295C326.684 96.6295 327.232 96.3377 327.232 95.754C327.232 95.5644 327.106 95.4204 326.855 95.3212C326.603 95.2221 326.191 95.1113 325.619 94.989C325.036 94.8736 324.555 94.7543 324.176 94.6312C323.795 94.5081 323.47 94.3211 323.198 94.0701C322.927 93.8192 322.79 93.4883 322.79 93.0771C322.79 92.5012 323.039 92.0324 323.538 91.6707C324.036 91.3091 324.749 91.1282 325.677 91.1282C326.437 91.1282 327.152 91.231 327.823 91.4373C327.961 91.4703 328.067 91.5318 328.141 91.6228C328.215 91.7134 328.252 91.808 328.252 91.9064C328.252 92.0383 328.196 92.1535 328.082 92.2518C327.969 92.3507 327.828 92.4002 327.66 92.4002C327.611 92.4002 327.547 92.3919 327.468 92.3755C326.895 92.2276 326.333 92.1537 325.78 92.1537C325.248 92.1537 324.831 92.2338 324.53 92.3932C324.229 92.5527 324.078 92.7611 324.078 93.0161C324.078 93.2628 324.217 93.4437 324.493 93.5586C324.769 93.6739 325.198 93.785 325.78 93.8909C326.362 94.0145 326.837 94.1358 327.201 94.2541C327.566 94.3736 327.878 94.5606 328.141 94.8151C328.402 95.0701 328.533 95.4114 328.533 95.839C328.533 96.3655 328.284 96.8013 327.786 97.1465C327.287 97.4922 326.584 97.6643 325.677 97.6643V97.6674ZM331.005 97.6055C330.817 97.6055 330.66 97.552 330.532 97.4448C330.403 97.3382 330.339 97.2068 330.339 97.0507V89.0449C330.339 88.8888 330.403 88.7551 330.532 88.643C330.66 88.5323 330.817 88.4769 331.005 88.4769C331.094 88.4757 331.183 88.4898 331.266 88.5184C331.349 88.547 331.424 88.5894 331.486 88.643C331.551 88.695 331.602 88.7575 331.636 88.8266C331.671 88.8958 331.688 88.97 331.686 89.0449V94.091L335.208 91.3771C335.356 91.2699 335.505 91.2163 335.653 91.2163C335.88 91.2163 336.045 91.2699 336.149 91.3771C336.253 91.4842 336.305 91.6117 336.305 91.7596C336.305 91.8992 336.221 92.0391 336.053 92.1792L333.922 93.7711L336.602 96.7308C336.701 96.8374 336.75 96.9481 336.75 97.0631C336.75 97.2279 336.686 97.3596 336.557 97.4572C336.429 97.5561 336.266 97.6055 336.069 97.6055C335.97 97.6055 335.872 97.5849 335.772 97.5437C335.672 97.5025 335.589 97.445 335.522 97.3714L332.975 94.4843L331.688 95.458V97.0499C331.688 97.206 331.621 97.3374 331.488 97.444C331.355 97.5512 331.194 97.6048 331.006 97.6048L331.005 97.6055ZM340.181 97.6674C339.747 97.6674 339.345 97.5932 338.976 97.4448C338.606 97.297 338.313 97.0811 338.095 96.7972C337.878 96.5139 337.77 96.187 337.77 95.8158C337.77 95.2074 338.059 94.7224 338.637 94.3607C339.214 93.9985 340.06 93.8174 341.176 93.8174H342.965V93.7193C342.965 93.1763 342.805 92.7856 342.483 92.547C342.161 92.3085 341.661 92.1892 340.981 92.1892C340.606 92.1892 340.273 92.214 339.982 92.2634C339.691 92.3129 339.368 92.3871 339.012 92.486C338.933 92.5024 338.869 92.5107 338.82 92.5107C338.672 92.5107 338.544 92.4653 338.435 92.3747C338.327 92.2841 338.272 92.1738 338.272 92.0424C338.272 91.8204 338.4 91.664 338.657 91.5733C339.496 91.2776 340.349 91.1298 341.216 91.1298C341.898 91.1298 342.473 91.2457 342.941 91.4752C343.41 91.7047 343.755 92.0035 343.977 92.3693C344.199 92.735 344.311 93.1318 344.311 93.5593V97.0507C344.311 97.2068 344.244 97.3382 344.111 97.4448C344.048 97.4969 343.973 97.538 343.89 97.5656C343.808 97.5932 343.719 97.6068 343.63 97.6055C343.443 97.6055 343.285 97.552 343.157 97.4448C343.029 97.3382 342.965 97.2068 342.965 97.0507V96.7308C342.235 97.3557 341.308 97.6681 340.183 97.6681L340.181 97.6674ZM340.685 96.6805C341.119 96.6805 341.538 96.5919 341.943 96.4147C342.348 96.238 342.688 96.0183 342.963 95.7555V94.72H341.35C339.86 94.72 339.115 95.0448 339.115 95.6937C339.115 95.9895 339.236 96.2269 339.477 96.4085C339.718 96.5899 340.121 96.6805 340.682 96.6805H340.685ZM347.241 97.6055C347.054 97.6055 346.896 97.552 346.768 97.4448C346.64 97.3382 346.575 97.2068 346.575 97.0507V89.0449C346.574 88.9707 346.59 88.897 346.623 88.8281C346.656 88.7592 346.706 88.6966 346.768 88.6438C346.896 88.5331 347.054 88.4777 347.241 88.4777C347.439 88.4777 347.603 88.5317 347.73 88.6376C347.859 88.7448 347.923 88.8805 347.923 89.0449V97.0507C347.923 97.2068 347.856 97.3382 347.723 97.4448C347.59 97.552 347.429 97.6055 347.24 97.6055H347.241ZM352.185 97.6674C351.751 97.6674 351.349 97.5932 350.98 97.4448C350.61 97.297 350.316 97.0811 350.099 96.7972C349.882 96.5139 349.774 96.187 349.774 95.8158C349.774 95.2074 350.063 94.7224 350.64 94.3607C351.218 93.9985 352.064 93.8174 353.179 93.8174H354.969V93.7193C354.969 93.1763 354.808 92.7856 354.487 92.547C354.165 92.3085 353.665 92.1892 352.984 92.1892C352.609 92.1892 352.276 92.214 351.986 92.2634C351.695 92.3129 351.371 92.3871 351.016 92.486C350.937 92.5024 350.873 92.5107 350.824 92.5107C350.675 92.5107 350.547 92.4653 350.439 92.3747C350.33 92.2841 350.276 92.1738 350.276 92.0424C350.276 91.8204 350.404 91.664 350.661 91.5733C351.499 91.2776 352.353 91.1298 353.22 91.1298C353.901 91.1298 354.476 91.2457 354.945 91.4752C355.413 91.7047 355.758 92.0035 355.98 92.3693C356.202 92.735 356.314 93.1318 356.314 93.5593V97.0507C356.314 97.2068 356.248 97.3382 356.115 97.4448C356.052 97.4969 355.976 97.538 355.894 97.5656C355.811 97.5932 355.723 97.6068 355.634 97.6055C355.446 97.6055 355.288 97.552 355.161 97.4448C355.033 97.3382 354.969 97.2068 354.969 97.0507V96.7308C354.239 97.3557 353.311 97.6681 352.187 97.6681L352.185 97.6674ZM352.689 96.6805C353.123 96.6805 353.542 96.5919 353.947 96.4147C354.351 96.238 354.692 96.0183 354.967 95.7555V94.72H353.353C351.864 94.72 351.119 95.0448 351.119 95.6937C351.119 95.9895 351.239 96.2269 351.48 96.4085C351.722 96.5899 352.124 96.6805 352.686 96.6805H352.689ZM361.006 97.6674C359.566 97.6674 358.846 97.1246 358.846 96.0391V92.214H357.795C357.716 92.214 357.649 92.1908 357.595 92.1467C357.54 92.1014 357.513 92.0457 357.513 91.9798C357.513 91.8979 357.558 91.8281 357.647 91.7712L359.659 90.1306C359.747 90.0564 359.831 90.0193 359.909 90.0193C359.947 90.0189 359.984 90.0253 360.019 90.0381C360.054 90.051 360.084 90.0698 360.109 90.0935C360.163 90.143 360.19 90.2004 360.19 90.2658V91.2526H361.863C362.031 91.2526 362.169 91.298 362.277 91.3887C362.386 91.4793 362.441 91.5944 362.441 91.7341C362.442 91.7968 362.428 91.8591 362.4 91.9173C362.372 91.9756 362.33 92.0286 362.277 92.0733C362.169 92.1676 362.031 92.2147 361.863 92.2147H360.19V95.9395C360.19 96.2599 360.282 96.4634 360.465 96.5499C360.647 96.6365 360.876 96.6798 361.153 96.6798C361.353 96.6794 361.553 96.6544 361.744 96.6056L361.87 96.5809C361.915 96.5726 361.972 96.5685 362.041 96.5685C362.179 96.5685 362.302 96.6118 362.412 96.6983C362.52 96.7843 362.574 96.8892 362.574 97.0128C362.574 97.2019 362.461 97.3457 362.234 97.444C361.849 97.5924 361.44 97.6666 361.005 97.6666L361.006 97.6674ZM367.326 97.6674C366.123 97.6674 365.183 97.3814 364.507 96.8096C363.831 96.2383 363.493 95.4346 363.493 94.3986C363.493 93.8144 363.621 93.2757 363.878 92.7835C364.134 92.2899 364.529 91.8909 365.062 91.5857C365.595 91.2818 366.251 91.1298 367.03 91.1298C367.76 91.1298 368.392 91.2714 368.925 91.5548C369.458 91.8386 369.861 92.2171 370.14 92.6908C370.418 93.1645 370.554 93.6797 370.554 94.2386C370.554 94.3947 370.493 94.5263 370.369 94.6327C370.245 94.7391 370.08 94.7927 369.873 94.7927H364.856C364.934 95.3686 365.191 95.8168 365.625 96.1373C366.059 96.4582 366.666 96.6187 367.446 96.6187C367.86 96.6187 368.223 96.5857 368.533 96.5198C368.844 96.4539 369.148 96.3593 369.444 96.2362C369.523 96.2032 369.611 96.1867 369.71 96.1867C369.869 96.1867 370.007 96.2321 370.125 96.3227C370.243 96.4129 370.303 96.5281 370.303 96.6682C370.303 96.849 370.175 97.001 369.918 97.1241C369.533 97.3049 369.153 97.4407 368.777 97.5314C368.402 97.622 367.918 97.6674 367.326 97.6674ZM364.855 93.8808H369.221C369.192 93.478 369.066 93.1407 368.843 92.8685C368.621 92.5975 368.348 92.3981 368.023 92.2704C367.697 92.1431 367.366 92.0795 367.03 92.0795C366.695 92.0795 366.364 92.1431 366.038 92.2704C365.712 92.3981 365.441 92.5975 365.224 92.8685C365.007 93.14 364.884 93.4772 364.853 93.8808H364.855ZM307.924 92.4574L307.905 92.4999C307.905 92.4999 307.523 95.0732 304.714 97.2717L304.547 97.3953H304.554C303.901 97.9054 303.07 98.4424 302.112 98.944C304.195 98.607 306.582 97.9517 308.194 96.9294C309.127 95.611 309.614 94.2015 309.535 92.9326C309.525 92.7858 309.51 92.6568 309.49 92.5416C309.11 92.3214 308.623 92.1908 307.925 92.4566L307.924 92.4574ZM300.62 101.336C299.561 101.36 298.432 101.132 297.353 100.699C296.122 100.975 294.832 101.127 293.532 101.093C293.897 101.228 294.28 101.348 294.685 101.447C300.57 102.889 305.557 100.377 307.977 97.2246C307.812 97.4355 307.553 97.7477 307.188 98.1318C306.88 98.4563 304.128 101.257 300.62 101.336ZM304.931 91.5509C304.528 92.9442 303.185 95.8838 299.123 96.0523C299.86 96.2169 300.653 96.213 301.404 96.043C302.322 95.8344 305.896 94.921 306.71 91.6104C306.821 91.0965 307.394 87.623 302.834 85.8379C304.308 87.3788 305.488 89.6244 304.93 91.5509H304.931ZM291.342 90.381C291.535 89.5 291.876 88.6214 292.34 87.8038C291.533 88.4645 290.887 89.1561 290.454 89.7604C289.867 90.5796 289.434 91.4358 289.152 92.2966C289.754 91.673 290.496 91.0061 291.342 90.3802V90.381Z" fill="#1C9DD7"/>
<path opacity="0.6" d="M301.43 85.3888C301.946 85.5217 302.413 85.6724 302.835 85.837C302.028 84.9947 301.133 84.361 300.384 84.1099C296.942 82.9523 293.925 85.0117 292.34 87.8022C294.51 86.0248 297.855 84.4669 301.43 85.3881V85.3888Z" fill="url(#paint0_linear_12247_28654)"/>
<path d="M299.11 87.813L299.203 87.8177C299.489 87.8408 299.761 87.8857 300.021 87.9475C300.022 87.9475 300.023 87.9475 300.024 87.9482C302.495 88.5379 303.761 90.7457 303.074 92.438C302.607 93.5871 301.087 94.5013 300.167 94.7934C299.595 94.9758 298.978 95.0067 298.501 94.7053C297.459 94.0454 298.399 93.2293 298.733 92.9264C299.17 92.5292 299.997 91.7982 299.656 91.1622C299.262 90.425 297.995 90.2681 297.106 91.0718C296.218 91.8754 295.752 92.9086 296.643 94.3699C297.19 95.2694 298.103 95.8227 299.124 96.0507C303.188 95.8822 304.53 92.9418 304.932 91.5493C305.488 89.6228 304.31 87.3764 302.836 85.8363C302.413 85.6709 301.946 85.5195 301.431 85.3881C297.856 84.4669 294.511 86.0256 292.341 87.803C291.877 88.6206 291.534 89.4992 291.343 90.3801C293.439 88.8269 296.184 87.534 299.11 87.813Z" fill="#1C9DD7"/>
<path opacity="0.6" d="M299.11 87.813L299.203 87.8177C299.489 87.8408 299.761 87.8857 300.021 87.9475C300.022 87.9475 300.023 87.9475 300.024 87.9482C302.495 88.5379 303.761 90.7457 303.074 92.438C302.607 93.5871 301.087 94.5013 300.167 94.7934C299.595 94.9758 298.978 95.0067 298.501 94.7053C297.459 94.0454 298.399 93.2293 298.733 92.9264C299.17 92.5292 299.997 91.7982 299.656 91.1622C299.262 90.425 297.995 90.2681 297.106 91.0718C296.218 91.8754 295.752 92.9086 296.643 94.3699C297.19 95.2694 298.103 95.8227 299.124 96.0507C303.188 95.8822 304.53 92.9418 304.932 91.5493C305.488 89.6228 304.31 87.3764 302.836 85.8363C302.413 85.6709 301.946 85.5195 301.431 85.3881C297.856 84.4669 294.511 86.0256 292.341 87.803C291.877 88.6206 291.534 89.4992 291.343 90.3801C293.439 88.8269 296.184 87.534 299.11 87.813Z" fill="url(#paint1_linear_12247_28654)"/>
<path opacity="0.52" d="M289.152 92.295C288.396 93.0755 287.854 93.7842 287.585 94.2532C286.95 95.3645 285.04 99.6827 291.522 100.887C292.19 101.01 292.862 101.076 293.531 101.094C289.441 99.5753 287.967 95.8946 289.151 92.2958L289.152 92.295Z" fill="#1C75BC"/>
<path d="M299.353 99.2177L299.195 99.2136L299.299 99.2194L299.355 99.2177H299.353Z" fill="#1C9DD7"/>
<path opacity="0.52" d="M299.353 99.2177L299.195 99.2136L299.299 99.2194L299.355 99.2177H299.353Z" fill="#1C75BC"/>
<path d="M302.112 98.9446C303.071 98.4423 303.901 97.9068 304.553 97.396H304.546C303.168 98.4315 301.721 98.9972 300.324 99.1656C300.871 99.1208 301.478 99.0482 302.112 98.9454V98.9446Z" fill="#1C9DD7"/>
<path opacity="0.52" d="M302.112 98.9446C303.071 98.4423 303.901 97.9068 304.553 97.396H304.546C303.168 98.4315 301.721 98.9972 300.324 99.1656C300.871 99.1208 301.478 99.0482 302.112 98.9454V98.9446Z" fill="#1C75BC"/>
<path d="M292.27 95.3196C291.639 94.4356 291.188 93.3738 291.16 92.1327C291.148 91.5609 291.212 90.9713 291.341 90.3809C290.496 91.0068 289.756 91.6737 289.151 92.2973C287.968 95.8961 289.442 99.5767 293.531 101.095C294.832 101.129 296.121 100.977 297.351 100.701C294.98 99.7475 292.859 97.7955 292.269 95.3211L292.27 95.3196Z" fill="#1C9DD7"/>
<path opacity="0.52" d="M292.27 95.3196C291.639 94.4356 291.188 93.3738 291.16 92.1327C291.148 91.5609 291.212 90.9713 291.341 90.3809C290.496 91.0068 289.756 91.6737 289.151 92.2973C287.968 95.8961 289.442 99.5767 293.531 101.095C294.832 101.129 296.121 100.977 297.351 100.701C294.98 99.7475 292.859 97.7955 292.269 95.3211L292.27 95.3196Z" fill="#1C75BC"/>
<path d="M297.366 87.9227C297.366 87.9227 297.244 87.9436 297.04 88C297.667 87.84 298.359 87.7635 299.109 87.8145C296.182 87.5363 293.438 88.8284 291.341 90.3801C291.212 90.9697 291.149 91.5601 291.161 92.132C291.187 93.3738 291.639 94.4348 292.271 95.3196L292.212 95.0569C291.049 88.9644 297.366 87.9227 297.366 87.9227Z" fill="#1C9DD7"/>
<path opacity="0.6" d="M297.366 87.9227C297.366 87.9227 297.244 87.9436 297.04 88C297.667 87.84 298.359 87.7635 299.109 87.8145C296.182 87.5363 293.438 88.8284 291.341 90.3801C291.212 90.9697 291.149 91.5601 291.161 92.132C291.187 93.3738 291.639 94.4348 292.271 95.3196L292.212 95.0569C291.049 88.9644 297.366 87.9227 297.366 87.9227Z" fill="url(#paint2_linear_12247_28654)"/>
<path opacity="0.52" d="M297.366 87.9227C297.366 87.9227 297.244 87.9436 297.04 88C297.667 87.84 298.359 87.7635 299.109 87.8145C296.182 87.5363 293.438 88.8284 291.341 90.3801C291.212 90.9697 291.149 91.5601 291.161 92.132C291.187 93.3738 291.639 94.4348 292.271 95.3196L292.212 95.0569C291.049 88.9644 297.366 87.9227 297.366 87.9227Z" fill="#1C75BC"/>
<path d="M300.024 87.9486C300.023 87.9486 300.022 87.9486 300.021 87.9475C300.022 87.9486 300.023 87.9486 300.024 87.9486Z" fill="#1C9DD7"/>
<path opacity="0.6" d="M300.024 87.9486C300.023 87.9486 300.022 87.9486 300.021 87.9475C300.022 87.9486 300.023 87.9486 300.024 87.9486Z" fill="url(#paint3_linear_12247_28654)"/>
<path opacity="0.52" d="M300.024 87.9486C300.023 87.9486 300.022 87.9486 300.021 87.9475C300.022 87.9486 300.023 87.9486 300.024 87.9486Z" fill="#1C75BC"/>
<path opacity="0.24" d="M308.194 96.9293C308.194 96.9293 308.194 96.9301 308.193 96.9301L307.975 97.2253L308.194 96.9293Z" fill="#262262"/>
<path d="M297.353 100.7C298.431 101.132 299.56 101.361 300.62 101.337C304.127 101.258 306.88 98.4578 307.188 98.1325C307.551 97.7492 307.811 97.437 307.976 97.2252C308.051 97.1279 308.123 97.0295 308.194 96.9301C306.58 97.9524 304.195 98.607 302.112 98.9446C300.742 99.6618 299.108 100.306 297.354 100.699L297.353 100.7Z" fill="#1C9DD7"/>
<path opacity="0.24" d="M297.353 100.7C298.431 101.132 299.56 101.361 300.62 101.337C304.127 101.258 306.88 98.4578 307.188 98.1325C307.551 97.7492 307.811 97.437 307.976 97.2252C308.051 97.1279 308.123 97.0295 308.194 96.9301C306.58 97.9524 304.195 98.607 302.112 98.9446C300.742 99.6618 299.108 100.306 297.354 100.699L297.353 100.7Z" fill="#262262"/>
<path d="M299.353 99.2175L299.297 99.219C299.262 99.2198 299.228 99.2159 299.193 99.2136C298.254 99.185 297.355 98.9787 296.532 98.6186L296.531 98.6201C296.531 98.6201 293.842 97.5244 292.27 95.3204C292.86 97.7956 294.981 99.7468 297.352 100.699C299.106 100.305 300.74 99.661 302.111 98.9447C301.476 99.0475 300.871 99.1201 300.323 99.1649C300.001 99.2028 299.676 99.2201 299.351 99.2167L299.353 99.2175Z" fill="#1C9DD7"/>
<path opacity="0.52" d="M299.353 99.2175L299.297 99.219C299.262 99.2198 299.228 99.2159 299.193 99.2136C298.254 99.185 297.355 98.9787 296.532 98.6186L296.531 98.6201C296.531 98.6201 293.842 97.5244 292.27 95.3204C292.86 97.7956 294.981 99.7468 297.352 100.699C299.106 100.305 300.74 99.661 302.111 98.9447C301.476 99.0475 300.871 99.1201 300.323 99.1649C300.001 99.2028 299.676 99.2201 299.351 99.2167L299.353 99.2175Z" fill="#1C75BC"/>
<path opacity="0.24" d="M299.353 99.2175L299.297 99.219C299.262 99.2198 299.228 99.2159 299.193 99.2136C298.254 99.185 297.355 98.9787 296.532 98.6186L296.531 98.6201C296.531 98.6201 293.842 97.5244 292.27 95.3204C292.86 97.7956 294.981 99.7468 297.352 100.699C299.106 100.305 300.74 99.661 302.111 98.9447C301.476 99.0475 300.871 99.1201 300.323 99.1649C300.001 99.2028 299.676 99.2201 299.351 99.2167L299.353 99.2175Z" fill="#262262"/>
<path d="M296.532 98.6193L296.533 98.6177C294.944 97.9223 293.643 96.6572 292.909 94.9989C292.45 93.9595 291.885 91.9349 293.765 89.9203C294.395 89.2441 295.527 88.3825 297.04 87.9984C297.244 87.9428 297.367 87.9211 297.367 87.9211C297.367 87.9211 291.049 88.9644 292.211 95.0553C292.227 95.1442 292.248 95.2315 292.269 95.318C293.842 97.522 296.531 98.6177 296.531 98.6177L296.532 98.6193Z" fill="#1C9DD7"/>
<path opacity="0.6" d="M296.532 98.6193L296.533 98.6177C294.944 97.9223 293.643 96.6572 292.909 94.9989C292.45 93.9595 291.885 91.9349 293.765 89.9203C294.395 89.2441 295.527 88.3825 297.04 87.9984C297.244 87.9428 297.367 87.9211 297.367 87.9211C297.367 87.9211 291.049 88.9644 292.211 95.0553C292.227 95.1442 292.248 95.2315 292.269 95.318C293.842 97.522 296.531 98.6177 296.531 98.6177L296.532 98.6193Z" fill="url(#paint4_linear_12247_28654)"/>
<path opacity="0.52" d="M296.532 98.6193L296.533 98.6177C294.944 97.9223 293.643 96.6572 292.909 94.9989C292.45 93.9595 291.885 91.9349 293.765 89.9203C294.395 89.2441 295.527 88.3825 297.04 87.9984C297.244 87.9428 297.367 87.9211 297.367 87.9211C297.367 87.9211 291.049 88.9644 292.211 95.0553C292.227 95.1442 292.248 95.2315 292.269 95.318C293.842 97.522 296.531 98.6177 296.531 98.6177L296.532 98.6193Z" fill="#1C75BC"/>
<path opacity="0.24" d="M296.532 98.6193L296.533 98.6177C294.944 97.9223 293.643 96.6572 292.909 94.9989C292.45 93.9595 291.885 91.9349 293.765 89.9203C294.395 89.2441 295.527 88.3825 297.04 87.9984C297.244 87.9428 297.367 87.9211 297.367 87.9211C297.367 87.9211 291.049 88.9644 292.211 95.0553C292.227 95.1442 292.248 95.2315 292.269 95.318C293.842 97.522 296.531 98.6177 296.531 98.6177L296.532 98.6193Z" fill="#262262"/>
<path d="M309.014 90.6336C308.802 90.4582 308.499 90.5903 308.182 90.8654L308.859 91.6706C308.859 91.6706 308.609 91.6219 308.345 91.8429C308.278 91.9001 308.215 91.9728 308.16 92.0477C308.178 92.0323 309.235 91.0493 309.489 92.5423C310.026 92.8514 310.354 93.3344 310.768 93.1242C311.244 92.8831 309.804 91.2904 309.012 90.6336H309.014Z" fill="#1C9DD7"/>
<path d="M308.161 92.0477C308.042 92.2099 307.959 92.3799 307.924 92.4572C308.622 92.1922 309.108 92.3228 309.49 92.5422C309.236 91.0508 308.178 92.0322 308.161 92.0477Z" fill="#1C9DD7"/>
<path d="M308.161 92.0485C308.217 91.9736 308.278 91.9017 308.347 91.8438C308.608 91.6227 308.86 91.6714 308.86 91.6714L308.183 90.8662C307.899 91.1135 307.602 91.4767 307.349 91.8399L308.161 92.0485Z" fill="#1C9DD7"/>
<path d="M307.348 91.8414C306.823 92.5987 306.483 93.3606 306.819 93.1041C307.239 92.7842 307.605 92.5786 307.925 92.4573C307.96 92.3816 308.043 92.21 308.162 92.0477L308.161 92.0485L307.348 91.8398V91.8414Z" fill="#1C9DD7"/>
<path d="M383.882 283.087C382.855 277.262 381.373 262.807 390.165 255.717C401.33 246.713 409.253 262.919 418.977 250.314C428.701 237.71 431.582 210.338 460.393 210.698C489.205 211.058 491.365 227.265 491.365 232.666C491.365 238.069 500.008 242.03 501.809 242.03C503.611 242.03 513.695 237.348 517.296 247.793C520.897 258.237 518.455 264.278 524.178 264.498C529.901 264.719 537.009 256.913 544.799 260.816C552.589 264.719 552.589 273.003 555.83 275.884C559.071 278.764 564.474 273.722 571.677 276.604C576.042 278.35 577.358 281.148 577.723 283.087H383.882Z" fill="white" stroke="black" stroke-miterlimit="10"/>
<path d="M441.662 260.145V261.275H439.802V267.125H438.402V261.275H436.542V260.145H441.662ZM444.283 262.445C444.463 262.152 444.696 261.922 444.983 261.755C445.276 261.589 445.61 261.505 445.983 261.505V262.975H445.613C445.173 262.975 444.84 263.079 444.613 263.285C444.393 263.492 444.283 263.852 444.283 264.365V267.125H442.883V261.585H444.283V262.445ZM446.766 264.335C446.766 263.775 446.876 263.279 447.096 262.845C447.323 262.412 447.626 262.079 448.006 261.845C448.393 261.612 448.823 261.495 449.296 261.495C449.709 261.495 450.069 261.579 450.376 261.745C450.689 261.912 450.939 262.122 451.126 262.375V261.585H452.536V267.125H451.126V266.315C450.946 266.575 450.696 266.792 450.376 266.965C450.063 267.132 449.699 267.215 449.286 267.215C448.819 267.215 448.393 267.095 448.006 266.855C447.626 266.615 447.323 266.279 447.096 265.845C446.876 265.405 446.766 264.902 446.766 264.335ZM451.126 264.355C451.126 264.015 451.059 263.725 450.926 263.485C450.793 263.239 450.613 263.052 450.386 262.925C450.159 262.792 449.916 262.725 449.656 262.725C449.396 262.725 449.156 262.789 448.936 262.915C448.716 263.042 448.536 263.229 448.396 263.475C448.263 263.715 448.196 264.002 448.196 264.335C448.196 264.669 448.263 264.962 448.396 265.215C448.536 265.462 448.716 265.652 448.936 265.785C449.163 265.919 449.403 265.985 449.656 265.985C449.916 265.985 450.159 265.922 450.386 265.795C450.613 265.662 450.793 265.475 450.926 265.235C451.059 264.989 451.126 264.695 451.126 264.355ZM454.813 260.925C454.567 260.925 454.36 260.849 454.193 260.695C454.033 260.535 453.953 260.339 453.953 260.105C453.953 259.872 454.033 259.679 454.193 259.525C454.36 259.365 454.567 259.285 454.813 259.285C455.06 259.285 455.263 259.365 455.423 259.525C455.59 259.679 455.673 259.872 455.673 260.105C455.673 260.339 455.59 260.535 455.423 260.695C455.263 260.849 455.06 260.925 454.813 260.925ZM455.503 261.585V267.125H454.103V261.585H455.503ZM460.157 261.505C460.817 261.505 461.35 261.715 461.757 262.135C462.163 262.549 462.367 263.129 462.367 263.875V267.125H460.967V264.065C460.967 263.625 460.857 263.289 460.637 263.055C460.417 262.815 460.117 262.695 459.737 262.695C459.35 262.695 459.043 262.815 458.817 263.055C458.597 263.289 458.487 263.625 458.487 264.065V267.125H457.087V261.585H458.487V262.275C458.673 262.035 458.91 261.849 459.197 261.715C459.49 261.575 459.81 261.505 460.157 261.505ZM464.608 260.925C464.361 260.925 464.155 260.849 463.988 260.695C463.828 260.535 463.748 260.339 463.748 260.105C463.748 259.872 463.828 259.679 463.988 259.525C464.155 259.365 464.361 259.285 464.608 259.285C464.855 259.285 465.058 259.365 465.218 259.525C465.385 259.679 465.468 259.872 465.468 260.105C465.468 260.339 465.385 260.535 465.218 260.695C465.058 260.849 464.855 260.925 464.608 260.925ZM465.298 261.585V267.125H463.898V261.585H465.298ZM469.951 261.505C470.611 261.505 471.144 261.715 471.551 262.135C471.958 262.549 472.161 263.129 472.161 263.875V267.125H470.761V264.065C470.761 263.625 470.651 263.289 470.431 263.055C470.211 262.815 469.911 262.695 469.531 262.695C469.144 262.695 468.838 262.815 468.611 263.055C468.391 263.289 468.281 263.625 468.281 264.065V267.125H466.881V261.585H468.281V262.275C468.468 262.035 468.704 261.849 468.991 261.715C469.284 261.575 469.604 261.505 469.951 261.505ZM475.862 261.495C476.276 261.495 476.639 261.579 476.952 261.745C477.266 261.905 477.512 262.115 477.692 262.375V261.585H479.102V267.165C479.102 267.679 478.999 268.135 478.792 268.535C478.586 268.942 478.276 269.262 477.862 269.495C477.449 269.735 476.949 269.855 476.362 269.855C475.576 269.855 474.929 269.672 474.422 269.305C473.922 268.939 473.639 268.439 473.572 267.805H474.962C475.036 268.059 475.192 268.259 475.432 268.405C475.679 268.559 475.976 268.635 476.322 268.635C476.729 268.635 477.059 268.512 477.312 268.265C477.566 268.025 477.692 267.659 477.692 267.165V266.305C477.512 266.565 477.262 266.782 476.942 266.955C476.629 267.129 476.269 267.215 475.862 267.215C475.396 267.215 474.969 267.095 474.582 266.855C474.196 266.615 473.889 266.279 473.662 265.845C473.442 265.405 473.332 264.902 473.332 264.335C473.332 263.775 473.442 263.279 473.662 262.845C473.889 262.412 474.192 262.079 474.572 261.845C474.959 261.612 475.389 261.495 475.862 261.495ZM477.692 264.355C477.692 264.015 477.626 263.725 477.492 263.485C477.359 263.239 477.179 263.052 476.952 262.925C476.726 262.792 476.482 262.725 476.222 262.725C475.962 262.725 475.722 262.789 475.502 262.915C475.282 263.042 475.102 263.229 474.962 263.475C474.829 263.715 474.762 264.002 474.762 264.335C474.762 264.669 474.829 264.962 474.962 265.215C475.102 265.462 475.282 265.652 475.502 265.785C475.729 265.919 475.969 265.985 476.222 265.985C476.482 265.985 476.726 265.922 476.952 265.795C477.179 265.662 477.359 265.475 477.492 265.235C477.626 264.989 477.692 264.695 477.692 264.355Z" fill="black"/>
<path d="M397.321 90.9462C396.984 89.0321 396.497 84.2823 399.387 81.9516C403.056 78.9928 405.659 84.3182 408.854 80.1761C412.049 76.0339 412.996 67.0394 422.464 67.1586C431.931 67.2766 432.642 72.602 432.642 74.3776C432.642 76.1532 435.481 77.4544 436.074 77.4544C436.665 77.4544 439.978 75.916 441.162 79.3479C442.345 82.7798 441.543 84.7644 443.423 84.8374C445.304 84.9092 447.64 82.3452 450.2 83.6272C452.76 84.9092 452.76 87.6322 453.825 88.5783C454.891 89.5257 456.665 87.8681 459.033 88.8155C460.467 89.3898 460.899 90.309 461.02 90.9462H397.321Z" fill="white" stroke="black" stroke-miterlimit="10"/>
<path d="M382.013 172.075C381.387 168.521 380.483 159.704 385.847 155.378C392.657 149.886 397.49 159.772 403.423 152.082C409.355 144.393 411.112 127.696 428.687 127.916C446.262 128.136 447.581 138.022 447.581 141.317C447.581 144.612 452.854 147.03 453.953 147.03C455.052 147.03 461.203 144.174 463.4 150.545C465.597 156.917 464.108 160.601 467.599 160.736C471.089 160.87 475.425 156.109 480.178 158.49C484.93 160.87 484.93 165.924 486.907 167.682C488.884 169.439 492.18 166.364 496.573 168.121C499.236 169.187 500.038 170.893 500.261 172.076L382.013 172.075Z" fill="white" stroke="black" stroke-miterlimit="10"/>
<path d="M283.983 65.3421C284.436 62.7768 285.089 56.4104 281.216 53.2875C276.298 49.3222 272.808 56.4604 268.526 50.9081C264.243 45.3557 262.975 33.3011 250.285 33.4601C237.596 33.619 236.643 40.7572 236.643 43.1353C236.643 45.5147 232.837 47.2595 232.043 47.2595C231.25 47.2595 226.809 45.1968 225.223 49.7979C223.637 54.3977 224.713 57.0591 222.192 57.1565C219.672 57.254 216.541 53.8157 213.109 55.5348C209.679 57.254 209.679 60.9025 208.251 62.1717C206.824 63.4409 204.444 61.2205 201.271 62.4884C199.348 63.2576 198.769 64.4896 198.609 65.3434H283.983V65.3421Z" fill="white" stroke="black" stroke-miterlimit="10"/>
<path d="M305.829 260.916C307.093 253.743 308.918 235.945 298.092 227.215C284.345 216.128 274.589 236.083 262.616 220.562C250.644 205.042 247.096 171.34 211.62 171.783C176.144 172.227 173.484 192.181 173.484 198.834C173.484 205.486 162.841 210.363 160.624 210.363C158.408 210.363 145.99 204.598 141.556 217.457C137.121 230.317 140.128 237.755 133.082 238.028C126.036 238.3 117.282 228.689 107.691 233.494C98.0986 238.3 98.0986 248.498 94.1077 252.046C90.1169 255.593 83.4646 249.385 74.5957 252.933C69.2216 255.083 67.6011 258.527 67.1511 260.914H305.829V260.916Z" fill="white" stroke="black" stroke-miterlimit="10"/>
<path d="M186.374 225.145V232.125H184.974V225.145H186.374ZM191.027 226.505C191.687 226.505 192.22 226.715 192.627 227.135C193.034 227.549 193.237 228.129 193.237 228.875V232.125H191.837V229.065C191.837 228.625 191.727 228.289 191.507 228.055C191.287 227.815 190.987 227.695 190.607 227.695C190.22 227.695 189.914 227.815 189.687 228.055C189.467 228.289 189.357 228.625 189.357 229.065V232.125H187.957V226.585H189.357V227.275C189.544 227.035 189.78 226.849 190.067 226.715C190.36 226.575 190.68 226.505 191.027 226.505ZM196.398 227.735V230.415C196.398 230.602 196.442 230.739 196.528 230.825C196.622 230.905 196.775 230.945 196.988 230.945H197.638V232.125H196.758C195.578 232.125 194.988 231.552 194.988 230.405V227.735H194.328V226.585H194.988V225.215H196.398V226.585H197.638V227.735H196.398ZM200.245 227.445C200.425 227.152 200.659 226.922 200.945 226.755C201.239 226.589 201.572 226.505 201.945 226.505V227.975H201.575C201.135 227.975 200.802 228.079 200.575 228.285C200.355 228.492 200.245 228.852 200.245 229.365V232.125H198.845V226.585H200.245V227.445ZM205.548 232.215C205.015 232.215 204.535 232.099 204.108 231.865C203.682 231.625 203.345 231.289 203.098 230.855C202.858 230.422 202.738 229.922 202.738 229.355C202.738 228.789 202.862 228.289 203.108 227.855C203.362 227.422 203.705 227.089 204.138 226.855C204.572 226.615 205.055 226.495 205.588 226.495C206.122 226.495 206.605 226.615 207.038 226.855C207.472 227.089 207.812 227.422 208.058 227.855C208.312 228.289 208.438 228.789 208.438 229.355C208.438 229.922 208.308 230.422 208.048 230.855C207.795 231.289 207.448 231.625 207.008 231.865C206.575 232.099 206.088 232.215 205.548 232.215ZM205.548 230.995C205.802 230.995 206.038 230.935 206.258 230.815C206.485 230.689 206.665 230.502 206.798 230.255C206.932 230.009 206.998 229.709 206.998 229.355C206.998 228.829 206.858 228.425 206.578 228.145C206.305 227.859 205.968 227.715 205.568 227.715C205.168 227.715 204.832 227.859 204.558 228.145C204.292 228.425 204.158 228.829 204.158 229.355C204.158 229.882 204.288 230.289 204.548 230.575C204.815 230.855 205.148 230.995 205.548 230.995ZM211.888 229.355C211.888 228.782 212.005 228.282 212.238 227.855C212.471 227.422 212.795 227.089 213.208 226.855C213.621 226.615 214.095 226.495 214.628 226.495C215.315 226.495 215.881 226.669 216.328 227.015C216.781 227.355 217.085 227.835 217.238 228.455H215.728C215.648 228.215 215.511 228.029 215.318 227.895C215.131 227.755 214.898 227.685 214.618 227.685C214.218 227.685 213.901 227.832 213.668 228.125C213.435 228.412 213.318 228.822 213.318 229.355C213.318 229.882 213.435 230.292 213.668 230.585C213.901 230.872 214.218 231.015 214.618 231.015C215.185 231.015 215.555 230.762 215.728 230.255H217.238C217.085 230.855 216.781 231.332 216.328 231.685C215.875 232.039 215.308 232.215 214.628 232.215C214.095 232.215 213.621 232.099 213.208 231.865C212.795 231.625 212.471 231.292 212.238 230.865C212.005 230.432 211.888 229.929 211.888 229.355ZM218.104 229.335C218.104 228.775 218.214 228.279 218.434 227.845C218.66 227.412 218.964 227.079 219.344 226.845C219.73 226.612 220.16 226.495 220.634 226.495C221.047 226.495 221.407 226.579 221.714 226.745C222.027 226.912 222.277 227.122 222.464 227.375V226.585H223.874V232.125H222.464V231.315C222.284 231.575 222.034 231.792 221.714 231.965C221.4 232.132 221.037 232.215 220.624 232.215C220.157 232.215 219.73 232.095 219.344 231.855C218.964 231.615 218.66 231.279 218.434 230.845C218.214 230.405 218.104 229.902 218.104 229.335ZM222.464 229.355C222.464 229.015 222.397 228.725 222.264 228.485C222.13 228.239 221.95 228.052 221.724 227.925C221.497 227.792 221.254 227.725 220.994 227.725C220.734 227.725 220.494 227.789 220.274 227.915C220.054 228.042 219.874 228.229 219.734 228.475C219.6 228.715 219.534 229.002 219.534 229.335C219.534 229.669 219.6 229.962 219.734 230.215C219.874 230.462 220.054 230.652 220.274 230.785C220.5 230.919 220.74 230.985 220.994 230.985C221.254 230.985 221.497 230.922 221.724 230.795C221.95 230.662 222.13 230.475 222.264 230.235C222.397 229.989 222.464 229.695 222.464 229.355ZM226.841 224.725V232.125H225.441V224.725H226.841ZM229.824 224.725V232.125H228.424V224.725H229.824Z" fill="black"/>
<path d="M177.48 156.286C176.853 152.732 175.95 143.915 181.313 139.589C188.123 134.097 192.957 143.983 198.89 136.293C204.822 128.604 206.579 111.907 224.154 112.128C241.729 112.347 243.048 122.234 243.048 125.528C243.048 128.823 248.321 131.241 249.42 131.241C250.518 131.241 256.669 128.385 258.867 134.756C261.064 141.128 259.574 144.812 263.065 144.947C266.556 145.081 270.892 140.32 275.644 142.701C280.397 145.081 280.397 150.135 282.374 151.893C284.35 153.65 287.646 150.575 292.04 152.332C294.703 153.398 295.505 155.104 295.728 156.287L177.48 156.286Z" fill="white" stroke="black" stroke-miterlimit="10"/>
<path d="M200.295 139.615V140.3H199.365V143.125H198.51V140.3H197.58V139.615H200.295ZM203.554 141.685C203.554 141.765 203.549 141.849 203.539 141.935H201.604C201.618 142.109 201.673 142.242 201.769 142.335C201.869 142.425 201.991 142.47 202.134 142.47C202.348 142.47 202.496 142.38 202.579 142.2H203.489C203.443 142.384 203.358 142.549 203.234 142.695C203.114 142.842 202.963 142.957 202.779 143.04C202.596 143.124 202.391 143.165 202.164 143.165C201.891 143.165 201.648 143.107 201.434 142.99C201.221 142.874 201.054 142.707 200.934 142.49C200.814 142.274 200.754 142.02 200.754 141.73C200.754 141.44 200.813 141.187 200.929 140.97C201.049 140.754 201.216 140.587 201.429 140.47C201.643 140.354 201.888 140.295 202.164 140.295C202.434 140.295 202.674 140.352 202.884 140.465C203.094 140.579 203.258 140.74 203.374 140.95C203.494 141.16 203.554 141.405 203.554 141.685ZM202.679 141.46C202.679 141.314 202.629 141.197 202.529 141.11C202.429 141.024 202.304 140.98 202.154 140.98C202.011 140.98 201.889 141.022 201.789 141.105C201.693 141.189 201.633 141.307 201.609 141.46H202.679ZM204.035 141.73C204.035 141.44 204.094 141.187 204.21 140.97C204.33 140.754 204.495 140.587 204.705 140.47C204.919 140.354 205.162 140.295 205.435 140.295C205.785 140.295 206.077 140.387 206.31 140.57C206.547 140.754 206.702 141.012 206.775 141.345H205.865C205.789 141.132 205.64 141.025 205.42 141.025C205.264 141.025 205.139 141.087 205.045 141.21C204.952 141.33 204.905 141.504 204.905 141.73C204.905 141.957 204.952 142.132 205.045 142.255C205.139 142.375 205.264 142.435 205.42 142.435C205.64 142.435 205.789 142.329 205.865 142.115H206.775C206.702 142.442 206.547 142.699 206.31 142.885C206.074 143.072 205.782 143.165 205.435 143.165C205.162 143.165 204.919 143.107 204.705 142.99C204.495 142.874 204.33 142.707 204.21 142.49C204.094 142.274 204.035 142.02 204.035 141.73ZM209.148 140.305C209.468 140.305 209.724 140.412 209.918 140.625C210.111 140.835 210.208 141.125 210.208 141.495V143.125H209.358V141.61C209.358 141.424 209.309 141.279 209.213 141.175C209.116 141.072 208.986 141.02 208.823 141.02C208.659 141.02 208.529 141.072 208.433 141.175C208.336 141.279 208.288 141.424 208.288 141.61V143.125H207.433V139.425H208.288V140.71C208.374 140.587 208.493 140.489 208.643 140.415C208.793 140.342 208.961 140.305 209.148 140.305ZM213.531 143.16C213.275 143.16 213.045 143.119 212.841 143.035C212.638 142.952 212.475 142.829 212.351 142.665C212.231 142.502 212.168 142.305 212.161 142.075H213.071C213.085 142.205 213.13 142.305 213.206 142.375C213.283 142.442 213.383 142.475 213.506 142.475C213.633 142.475 213.733 142.447 213.806 142.39C213.88 142.33 213.916 142.249 213.916 142.145C213.916 142.059 213.886 141.987 213.826 141.93C213.77 141.874 213.698 141.827 213.611 141.79C213.528 141.754 213.408 141.712 213.251 141.665C213.025 141.595 212.84 141.525 212.696 141.455C212.553 141.385 212.43 141.282 212.326 141.145C212.223 141.009 212.171 140.83 212.171 140.61C212.171 140.284 212.29 140.029 212.526 139.845C212.763 139.659 213.071 139.565 213.451 139.565C213.838 139.565 214.15 139.659 214.386 139.845C214.623 140.029 214.75 140.285 214.766 140.615H213.841C213.835 140.502 213.793 140.414 213.716 140.35C213.64 140.284 213.541 140.25 213.421 140.25C213.318 140.25 213.235 140.279 213.171 140.335C213.108 140.389 213.076 140.467 213.076 140.57C213.076 140.684 213.13 140.772 213.236 140.835C213.343 140.899 213.51 140.967 213.736 141.04C213.963 141.117 214.146 141.19 214.286 141.26C214.43 141.33 214.553 141.432 214.656 141.565C214.76 141.699 214.811 141.87 214.811 142.08C214.811 142.28 214.76 142.462 214.656 142.625C214.556 142.789 214.41 142.919 214.216 143.015C214.023 143.112 213.795 143.16 213.531 143.16ZM217.092 142.4V143.125H216.657C216.347 143.125 216.106 143.05 215.932 142.9C215.759 142.747 215.672 142.499 215.672 142.155V141.045H215.332V140.335H215.672V139.655H216.527V140.335H217.087V141.045H216.527V142.165C216.527 142.249 216.547 142.309 216.587 142.345C216.627 142.382 216.694 142.4 216.787 142.4H217.092ZM217.599 141.725C217.599 141.439 217.652 141.187 217.759 140.97C217.869 140.754 218.017 140.587 218.204 140.47C218.39 140.354 218.599 140.295 218.829 140.295C219.025 140.295 219.197 140.335 219.344 140.415C219.494 140.495 219.609 140.6 219.689 140.73V140.335H220.544V143.125H219.689V142.73C219.605 142.86 219.489 142.965 219.339 143.045C219.192 143.125 219.02 143.165 218.824 143.165C218.597 143.165 218.39 143.107 218.204 142.99C218.017 142.87 217.869 142.702 217.759 142.485C217.652 142.265 217.599 142.012 217.599 141.725ZM219.689 141.73C219.689 141.517 219.629 141.349 219.509 141.225C219.392 141.102 219.249 141.04 219.079 141.04C218.909 141.04 218.764 141.102 218.644 141.225C218.527 141.345 218.469 141.512 218.469 141.725C218.469 141.939 218.527 142.109 218.644 142.235C218.764 142.359 218.909 142.42 219.079 142.42C219.249 142.42 219.392 142.359 219.509 142.235C219.629 142.112 219.689 141.944 219.689 141.73ZM221.192 141.73C221.192 141.44 221.251 141.187 221.367 140.97C221.487 140.754 221.652 140.587 221.862 140.47C222.076 140.354 222.319 140.295 222.592 140.295C222.942 140.295 223.234 140.387 223.467 140.57C223.704 140.754 223.859 141.012 223.932 141.345H223.022C222.946 141.132 222.797 141.025 222.577 141.025C222.421 141.025 222.296 141.087 222.202 141.21C222.109 141.33 222.062 141.504 222.062 141.73C222.062 141.957 222.109 142.132 222.202 142.255C222.296 142.375 222.421 142.435 222.577 142.435C222.797 142.435 222.946 142.329 223.022 142.115H223.932C223.859 142.442 223.704 142.699 223.467 142.885C223.231 143.072 222.939 143.165 222.592 143.165C222.319 143.165 222.076 143.107 221.862 142.99C221.652 142.874 221.487 142.707 221.367 142.49C221.251 142.274 221.192 142.02 221.192 141.73ZM226.295 143.125L225.445 141.955V143.125H224.59V139.425H225.445V141.47L226.29 140.335H227.345L226.185 141.735L227.355 143.125H226.295ZM229.995 139.615V143.125H229.14V139.615H229.995ZM232.515 140.305C232.841 140.305 233.101 140.412 233.295 140.625C233.491 140.835 233.59 141.125 233.59 141.495V143.125H232.74V141.61C232.74 141.424 232.691 141.279 232.595 141.175C232.498 141.072 232.368 141.02 232.205 141.02C232.041 141.02 231.911 141.072 231.815 141.175C231.718 141.279 231.67 141.424 231.67 141.61V143.125H230.815V140.335H231.67V140.705C231.756 140.582 231.873 140.485 232.02 140.415C232.166 140.342 232.331 140.305 232.515 140.305ZM235.939 142.4V143.125H235.504C235.194 143.125 234.952 143.05 234.779 142.9C234.605 142.747 234.519 142.499 234.519 142.155V141.045H234.179V140.335H234.519V139.655H235.374V140.335H235.934V141.045H235.374V142.165C235.374 142.249 235.394 142.309 235.434 142.345C235.474 142.382 235.54 142.4 235.634 142.4H235.939ZM239.245 141.685C239.245 141.765 239.24 141.849 239.23 141.935H237.295C237.308 142.109 237.363 142.242 237.46 142.335C237.56 142.425 237.682 142.47 237.825 142.47C238.038 142.47 238.187 142.38 238.27 142.2H239.18C239.133 142.384 239.048 142.549 238.925 142.695C238.805 142.842 238.653 142.957 238.47 143.04C238.287 143.124 238.082 143.165 237.855 143.165C237.582 143.165 237.338 143.107 237.125 142.99C236.912 142.874 236.745 142.707 236.625 142.49C236.505 142.274 236.445 142.02 236.445 141.73C236.445 141.44 236.503 141.187 236.62 140.97C236.74 140.754 236.907 140.587 237.12 140.47C237.333 140.354 237.578 140.295 237.855 140.295C238.125 140.295 238.365 140.352 238.575 140.465C238.785 140.579 238.948 140.74 239.065 140.95C239.185 141.16 239.245 141.405 239.245 141.685ZM238.37 141.46C238.37 141.314 238.32 141.197 238.22 141.11C238.12 141.024 237.995 140.98 237.845 140.98C237.702 140.98 237.58 141.022 237.48 141.105C237.383 141.189 237.323 141.307 237.3 141.46H238.37ZM240.751 140.8C240.851 140.647 240.976 140.527 241.126 140.44C241.276 140.35 241.443 140.305 241.626 140.305V141.21H241.391C241.178 141.21 241.018 141.257 240.911 141.35C240.804 141.44 240.751 141.6 240.751 141.83V143.125H239.896V140.335H240.751V140.8ZM243.49 142.325L244.095 140.335H245.005L244.015 143.125H242.96L241.97 140.335H242.885L243.49 142.325ZM245.995 140.045C245.845 140.045 245.721 140.002 245.625 139.915C245.531 139.825 245.485 139.715 245.485 139.585C245.485 139.452 245.531 139.342 245.625 139.255C245.721 139.165 245.845 139.12 245.995 139.12C246.141 139.12 246.261 139.165 246.355 139.255C246.451 139.342 246.5 139.452 246.5 139.585C246.5 139.715 246.451 139.825 246.355 139.915C246.261 140.002 246.141 140.045 245.995 140.045ZM246.42 140.335V143.125H245.565V140.335H246.42ZM249.869 141.685C249.869 141.765 249.864 141.849 249.854 141.935H247.919C247.933 142.109 247.988 142.242 248.084 142.335C248.184 142.425 248.306 142.47 248.449 142.47C248.663 142.47 248.811 142.38 248.894 142.2H249.804C249.758 142.384 249.673 142.549 249.549 142.695C249.429 142.842 249.278 142.957 249.094 143.04C248.911 143.124 248.706 143.165 248.479 143.165C248.206 143.165 247.963 143.107 247.749 142.99C247.536 142.874 247.369 142.707 247.249 142.49C247.129 142.274 247.069 142.02 247.069 141.73C247.069 141.44 247.128 141.187 247.244 140.97C247.364 140.754 247.531 140.587 247.744 140.47C247.958 140.354 248.203 140.295 248.479 140.295C248.749 140.295 248.989 140.352 249.199 140.465C249.409 140.579 249.573 140.74 249.689 140.95C249.809 141.16 249.869 141.405 249.869 141.685ZM248.994 141.46C248.994 141.314 248.944 141.197 248.844 141.11C248.744 141.024 248.619 140.98 248.469 140.98C248.326 140.98 248.204 141.022 248.104 141.105C248.008 141.189 247.948 141.307 247.924 141.46H248.994ZM254.525 140.335L253.77 143.125H252.825L252.385 141.315L251.93 143.125H250.99L250.23 140.335H251.085L251.48 142.33L251.95 140.335H252.855L253.33 142.32L253.72 140.335H254.525Z" fill="black"/>
<path d="M245.53 51.0195V52.4535C245.53 52.6755 245.467 52.8465 245.341 52.9665C245.217 53.0865 245.049 53.1465 244.837 53.1465C244.615 53.1465 244.437 53.0835 244.303 52.9575C244.169 52.8315 244.102 52.6525 244.102 52.4205H244.612C244.612 52.5085 244.63 52.5755 244.666 52.6215C244.702 52.6655 244.754 52.6875 244.822 52.6875C244.884 52.6875 244.932 52.6675 244.966 52.6275C245 52.5875 245.017 52.5295 245.017 52.4535V51.0195H245.53ZM246.906 53.1495C246.742 53.1495 246.594 53.1145 246.462 53.0445C246.332 52.9745 246.229 52.8745 246.153 52.7445C246.079 52.6145 246.042 52.4625 246.042 52.2885C246.042 52.1165 246.08 51.9655 246.156 51.8355C246.232 51.7035 246.336 51.6025 246.468 51.5325C246.6 51.4625 246.748 51.4275 246.912 51.4275C247.076 51.4275 247.224 51.4625 247.356 51.5325C247.488 51.6025 247.592 51.7035 247.668 51.8355C247.744 51.9655 247.782 52.1165 247.782 52.2885C247.782 52.4605 247.743 52.6125 247.665 52.7445C247.589 52.8745 247.484 52.9745 247.35 53.0445C247.218 53.1145 247.07 53.1495 246.906 53.1495ZM246.906 52.7055C247.004 52.7055 247.087 52.6695 247.155 52.5975C247.225 52.5255 247.26 52.4225 247.26 52.2885C247.26 52.1545 247.226 52.0515 247.158 51.9795C247.092 51.9075 247.01 51.8715 246.912 51.8715C246.812 51.8715 246.729 51.9075 246.663 51.9795C246.597 52.0495 246.564 52.1525 246.564 52.2885C246.564 52.4225 246.596 52.5255 246.66 52.5975C246.726 52.6695 246.808 52.7055 246.906 52.7055ZM248.768 51.6885C248.816 51.6105 248.885 51.5475 248.975 51.4995C249.065 51.4515 249.168 51.4275 249.284 51.4275C249.422 51.4275 249.547 51.4625 249.659 51.5325C249.771 51.6025 249.859 51.7025 249.923 51.8325C249.989 51.9625 250.022 52.1135 250.022 52.2855C250.022 52.4575 249.989 52.6095 249.923 52.7415C249.859 52.8715 249.771 52.9725 249.659 53.0445C249.547 53.1145 249.422 53.1495 249.284 53.1495C249.166 53.1495 249.063 53.1265 248.975 53.0805C248.887 53.0325 248.818 52.9695 248.768 52.8915V53.1255H248.255V50.9055H248.768V51.6885ZM249.5 52.2855C249.5 52.1575 249.464 52.0575 249.392 51.9855C249.322 51.9115 249.235 51.8745 249.131 51.8745C249.029 51.8745 248.942 51.9115 248.87 51.9855C248.8 52.0595 248.765 52.1605 248.765 52.2885C248.765 52.4165 248.8 52.5175 248.87 52.5915C248.942 52.6655 249.029 52.7025 249.131 52.7025C249.233 52.7025 249.32 52.6655 249.392 52.5915C249.464 52.5155 249.5 52.4135 249.5 52.2855ZM251.172 53.1495C251.026 53.1495 250.896 53.1245 250.782 53.0745C250.668 53.0245 250.578 52.9565 250.512 52.8705C250.446 52.7825 250.409 52.6845 250.401 52.5765H250.908C250.914 52.6345 250.941 52.6815 250.989 52.7175C251.037 52.7535 251.096 52.7715 251.166 52.7715C251.23 52.7715 251.279 52.7595 251.313 52.7355C251.349 52.7095 251.367 52.6765 251.367 52.6365C251.367 52.5885 251.342 52.5535 251.292 52.5315C251.242 52.5075 251.161 52.4815 251.049 52.4535C250.929 52.4255 250.829 52.3965 250.749 52.3665C250.669 52.3345 250.6 52.2855 250.542 52.2195C250.484 52.1515 250.455 52.0605 250.455 51.9465C250.455 51.8505 250.481 51.7635 250.533 51.6855C250.587 51.6055 250.665 51.5425 250.767 51.4965C250.871 51.4505 250.994 51.4275 251.136 51.4275C251.346 51.4275 251.511 51.4795 251.631 51.5835C251.753 51.6875 251.823 51.8255 251.841 51.9975H251.367C251.359 51.9395 251.333 51.8935 251.289 51.8595C251.247 51.8255 251.191 51.8085 251.121 51.8085C251.061 51.8085 251.015 51.8205 250.983 51.8445C250.951 51.8665 250.935 51.8975 250.935 51.9375C250.935 51.9855 250.96 52.0215 251.01 52.0455C251.062 52.0695 251.142 52.0935 251.25 52.1175C251.374 52.1495 251.475 52.1815 251.553 52.2135C251.631 52.2435 251.699 52.2935 251.757 52.3635C251.817 52.4315 251.848 52.5235 251.85 52.6395C251.85 52.7375 251.822 52.8255 251.766 52.9035C251.712 52.9795 251.633 53.0395 251.529 53.0835C251.427 53.1275 251.308 53.1495 251.172 53.1495Z" fill="black"/>
<path d="M415.471 85.1465C415.273 85.1465 415.091 85.1005 414.925 85.0085C414.761 84.9165 414.63 84.7885 414.532 84.6245C414.436 84.4585 414.388 84.2725 414.388 84.0665C414.388 83.8605 414.436 83.6755 414.532 83.5115C414.63 83.3475 414.761 83.2195 414.925 83.1275C415.091 83.0355 415.273 82.9895 415.471 82.9895C415.669 82.9895 415.85 83.0355 416.014 83.1275C416.18 83.2195 416.31 83.3475 416.404 83.5115C416.5 83.6755 416.548 83.8605 416.548 84.0665C416.548 84.2725 416.5 84.4585 416.404 84.6245C416.308 84.7885 416.178 84.9165 416.014 85.0085C415.85 85.1005 415.669 85.1465 415.471 85.1465ZM415.471 84.6785C415.639 84.6785 415.773 84.6225 415.873 84.5105C415.975 84.3985 416.026 84.2505 416.026 84.0665C416.026 83.8805 415.975 83.7325 415.873 83.6225C415.773 83.5105 415.639 83.4545 415.471 83.4545C415.301 83.4545 415.165 83.5095 415.063 83.6195C414.963 83.7295 414.913 83.8785 414.913 84.0665C414.913 84.2525 414.963 84.4015 415.063 84.5135C415.165 84.6235 415.301 84.6785 415.471 84.6785ZM418.053 83.4335C418.249 83.4335 418.405 83.4975 418.521 83.6255C418.639 83.7515 418.698 83.9255 418.698 84.1475V85.1255H418.188V84.2165C418.188 84.1045 418.159 84.0175 418.101 83.9555C418.043 83.8935 417.965 83.8625 417.867 83.8625C417.769 83.8625 417.691 83.8935 417.633 83.9555C417.575 84.0175 417.546 84.1045 417.546 84.2165V85.1255H417.033V83.4515H417.546V83.6735C417.598 83.5995 417.668 83.5415 417.756 83.4995C417.844 83.4555 417.943 83.4335 418.053 83.4335ZM419.768 83.6885C419.816 83.6105 419.885 83.5475 419.975 83.4995C420.065 83.4515 420.168 83.4275 420.284 83.4275C420.422 83.4275 420.547 83.4625 420.659 83.5325C420.771 83.6025 420.859 83.7025 420.923 83.8325C420.989 83.9625 421.022 84.1135 421.022 84.2855C421.022 84.4575 420.989 84.6095 420.923 84.7415C420.859 84.8715 420.771 84.9725 420.659 85.0445C420.547 85.1145 420.422 85.1495 420.284 85.1495C420.166 85.1495 420.063 85.1265 419.975 85.0805C419.887 85.0325 419.818 84.9695 419.768 84.8915V85.1255H419.255V82.9055H419.768V83.6885ZM420.5 84.2855C420.5 84.1575 420.464 84.0575 420.392 83.9855C420.322 83.9115 420.235 83.8745 420.131 83.8745C420.029 83.8745 419.942 83.9115 419.87 83.9855C419.8 84.0595 419.765 84.1605 419.765 84.2885C419.765 84.4165 419.8 84.5175 419.87 84.5915C419.942 84.6655 420.029 84.7025 420.131 84.7025C420.233 84.7025 420.32 84.6655 420.392 84.5915C420.464 84.5155 420.5 84.4135 420.5 84.2855ZM422.253 85.1495C422.089 85.1495 421.941 85.1145 421.809 85.0445C421.679 84.9745 421.576 84.8745 421.5 84.7445C421.426 84.6145 421.389 84.4625 421.389 84.2885C421.389 84.1165 421.427 83.9655 421.503 83.8355C421.579 83.7035 421.683 83.6025 421.815 83.5325C421.947 83.4625 422.095 83.4275 422.259 83.4275C422.423 83.4275 422.571 83.4625 422.703 83.5325C422.835 83.6025 422.939 83.7035 423.015 83.8355C423.091 83.9655 423.129 84.1165 423.129 84.2885C423.129 84.4605 423.09 84.6125 423.012 84.7445C422.936 84.8745 422.831 84.9745 422.697 85.0445C422.565 85.1145 422.417 85.1495 422.253 85.1495ZM422.253 84.7055C422.351 84.7055 422.434 84.6695 422.502 84.5975C422.572 84.5255 422.607 84.4225 422.607 84.2885C422.607 84.1545 422.573 84.0515 422.505 83.9795C422.439 83.9075 422.357 83.8715 422.259 83.8715C422.159 83.8715 422.076 83.9075 422.01 83.9795C421.944 84.0495 421.911 84.1525 421.911 84.2885C421.911 84.4225 421.943 84.5255 422.007 84.5975C422.073 84.6695 422.155 84.7055 422.253 84.7055ZM423.499 84.2855C423.499 84.1135 423.531 83.9625 423.595 83.8325C423.661 83.7025 423.75 83.6025 423.862 83.5325C423.974 83.4625 424.099 83.4275 424.237 83.4275C424.355 83.4275 424.458 83.4515 424.546 83.4995C424.636 83.5475 424.705 83.6105 424.753 83.6885V83.4515H425.266V85.1255H424.753V84.8885C424.703 84.9665 424.633 85.0295 424.543 85.0775C424.455 85.1255 424.352 85.1495 424.234 85.1495C424.098 85.1495 423.974 85.1145 423.862 85.0445C423.75 84.9725 423.661 84.8715 423.595 84.7415C423.531 84.6095 423.499 84.4575 423.499 84.2855ZM424.753 84.2885C424.753 84.1605 424.717 84.0595 424.645 83.9855C424.575 83.9115 424.489 83.8745 424.387 83.8745C424.285 83.8745 424.198 83.9115 424.126 83.9855C424.056 84.0575 424.021 84.1575 424.021 84.2855C424.021 84.4135 424.056 84.5155 424.126 84.5915C424.198 84.6655 424.285 84.7025 424.387 84.7025C424.489 84.7025 424.575 84.6655 424.645 84.5915C424.717 84.5175 424.753 84.4165 424.753 84.2885ZM426.35 83.7305C426.41 83.6385 426.485 83.5665 426.575 83.5145C426.665 83.4605 426.765 83.4335 426.875 83.4335V83.9765H426.734C426.606 83.9765 426.51 84.0045 426.446 84.0605C426.382 84.1145 426.35 84.2105 426.35 84.3485V85.1255H425.837V83.4515H426.35V83.7305ZM427.218 84.2855C427.218 84.1135 427.25 83.9625 427.314 83.8325C427.38 83.7025 427.469 83.6025 427.581 83.5325C427.693 83.4625 427.818 83.4275 427.956 83.4275C428.066 83.4275 428.166 83.4505 428.256 83.4965C428.348 83.5425 428.42 83.6045 428.472 83.6825V82.9055H428.985V85.1255H428.472V84.8855C428.424 84.9655 428.355 85.0295 428.265 85.0775C428.177 85.1255 428.074 85.1495 427.956 85.1495C427.818 85.1495 427.693 85.1145 427.581 85.0445C427.469 84.9725 427.38 84.8715 427.314 84.7415C427.25 84.6095 427.218 84.4575 427.218 84.2855ZM428.472 84.2885C428.472 84.1605 428.436 84.0595 428.364 83.9855C428.294 83.9115 428.208 83.8745 428.106 83.8745C428.004 83.8745 427.917 83.9115 427.845 83.9855C427.775 84.0575 427.74 84.1575 427.74 84.2855C427.74 84.4135 427.775 84.5155 427.845 84.5915C427.917 84.6655 428.004 84.7025 428.106 84.7025C428.208 84.7025 428.294 84.6655 428.364 84.5915C428.436 84.5175 428.472 84.4165 428.472 84.2885ZM429.814 83.2775C429.724 83.2775 429.65 83.2515 429.592 83.1995C429.536 83.1455 429.508 83.0795 429.508 83.0015C429.508 82.9215 429.536 82.8555 429.592 82.8035C429.65 82.7495 429.724 82.7225 429.814 82.7225C429.902 82.7225 429.974 82.7495 430.03 82.8035C430.088 82.8555 430.117 82.9215 430.117 83.0015C430.117 83.0795 430.088 83.1455 430.03 83.1995C429.974 83.2515 429.902 83.2775 429.814 83.2775ZM430.069 83.4515V85.1255H429.556V83.4515H430.069ZM431.661 83.4335C431.857 83.4335 432.013 83.4975 432.129 83.6255C432.247 83.7515 432.306 83.9255 432.306 84.1475V85.1255H431.796V84.2165C431.796 84.1045 431.767 84.0175 431.709 83.9555C431.651 83.8935 431.573 83.8625 431.475 83.8625C431.377 83.8625 431.299 83.8935 431.241 83.9555C431.183 84.0175 431.154 84.1045 431.154 84.2165V85.1255H430.641V83.4515H431.154V83.6735C431.206 83.5995 431.276 83.5415 431.364 83.4995C431.452 83.4555 431.551 83.4335 431.661 83.4335ZM433.499 83.4275C433.617 83.4275 433.72 83.4515 433.808 83.4995C433.898 83.5475 433.967 83.6105 434.015 83.6885V83.4515H434.528V85.1225C434.528 85.2765 434.497 85.4155 434.435 85.5395C434.375 85.6655 434.282 85.7655 434.156 85.8395C434.032 85.9135 433.877 85.9505 433.691 85.9505C433.443 85.9505 433.242 85.8915 433.088 85.7735C432.934 85.6575 432.846 85.4995 432.824 85.2995H433.331C433.347 85.3635 433.385 85.4135 433.445 85.4495C433.505 85.4875 433.579 85.5065 433.667 85.5065C433.773 85.5065 433.857 85.4755 433.919 85.4135C433.983 85.3535 434.015 85.2565 434.015 85.1225V84.8855C433.965 84.9635 433.896 85.0275 433.808 85.0775C433.72 85.1255 433.617 85.1495 433.499 85.1495C433.361 85.1495 433.236 85.1145 433.124 85.0445C433.012 84.9725 432.923 84.8715 432.857 84.7415C432.793 84.6095 432.761 84.4575 432.761 84.2855C432.761 84.1135 432.793 83.9625 432.857 83.8325C432.923 83.7025 433.012 83.6025 433.124 83.5325C433.236 83.4625 433.361 83.4275 433.499 83.4275ZM434.015 84.2885C434.015 84.1605 433.979 84.0595 433.907 83.9855C433.837 83.9115 433.751 83.8745 433.649 83.8745C433.547 83.8745 433.46 83.9115 433.388 83.9855C433.318 84.0575 433.283 84.1575 433.283 84.2855C433.283 84.4135 433.318 84.5155 433.388 84.5915C433.46 84.6655 433.547 84.7025 433.649 84.7025C433.751 84.7025 433.837 84.6655 433.907 84.5915C433.979 84.5175 434.015 84.4165 434.015 84.2885Z" fill="black"/>
<path d="M404.612 159.913V160.735H403.496V164.125H402.47V160.735H401.354V159.913H404.612ZM408.483 162.397C408.483 162.493 408.477 162.593 408.465 162.697H406.143C406.159 162.905 406.225 163.065 406.341 163.177C406.461 163.285 406.607 163.339 406.779 163.339C407.035 163.339 407.213 163.231 407.313 163.015H408.405C408.349 163.235 408.247 163.433 408.099 163.609C407.955 163.785 407.773 163.923 407.553 164.023C407.333 164.123 407.087 164.173 406.815 164.173C406.487 164.173 406.195 164.103 405.939 163.963C405.683 163.823 405.483 163.623 405.339 163.363C405.195 163.103 405.123 162.799 405.123 162.451C405.123 162.103 405.193 161.799 405.333 161.539C405.477 161.279 405.677 161.079 405.933 160.939C406.189 160.799 406.483 160.729 406.815 160.729C407.139 160.729 407.427 160.797 407.679 160.933C407.931 161.069 408.127 161.263 408.267 161.515C408.411 161.767 408.483 162.061 408.483 162.397ZM407.433 162.127C407.433 161.951 407.373 161.811 407.253 161.707C407.133 161.603 406.983 161.551 406.803 161.551C406.631 161.551 406.485 161.601 406.365 161.701C406.249 161.801 406.177 161.943 406.149 162.127H407.433ZM409.02 162.451C409.02 162.103 409.09 161.799 409.23 161.539C409.374 161.279 409.572 161.079 409.824 160.939C410.08 160.799 410.372 160.729 410.7 160.729C411.12 160.729 411.47 160.839 411.75 161.059C412.034 161.279 412.22 161.589 412.308 161.989H411.216C411.124 161.733 410.946 161.605 410.682 161.605C410.494 161.605 410.344 161.679 410.232 161.827C410.12 161.971 410.064 162.179 410.064 162.451C410.064 162.723 410.12 162.933 410.232 163.081C410.344 163.225 410.494 163.297 410.682 163.297C410.946 163.297 411.124 163.169 411.216 162.913H412.308C412.22 163.305 412.034 163.613 411.75 163.837C411.466 164.061 411.116 164.173 410.7 164.173C410.372 164.173 410.08 164.103 409.824 163.963C409.572 163.823 409.374 163.623 409.23 163.363C409.09 163.103 409.02 162.799 409.02 162.451ZM415.115 160.741C415.499 160.741 415.807 160.869 416.039 161.125C416.271 161.377 416.387 161.725 416.387 162.169V164.125H415.367V162.307C415.367 162.083 415.309 161.909 415.193 161.785C415.077 161.661 414.921 161.599 414.725 161.599C414.529 161.599 414.373 161.661 414.257 161.785C414.141 161.909 414.083 162.083 414.083 162.307V164.125H413.057V159.685H414.083V161.227C414.187 161.079 414.329 160.961 414.509 160.873C414.689 160.785 414.891 160.741 415.115 160.741ZM422.42 159.913V164.125H421.394V162.391H419.798V164.125H418.772V159.913H419.798V161.563H421.394V159.913H422.42ZM424.884 164.173C424.556 164.173 424.26 164.103 423.996 163.963C423.736 163.823 423.53 163.623 423.378 163.363C423.23 163.103 423.156 162.799 423.156 162.451C423.156 162.107 423.232 161.805 423.384 161.545C423.536 161.281 423.744 161.079 424.008 160.939C424.272 160.799 424.568 160.729 424.896 160.729C425.224 160.729 425.52 160.799 425.784 160.939C426.048 161.079 426.256 161.281 426.408 161.545C426.56 161.805 426.636 162.107 426.636 162.451C426.636 162.795 426.558 163.099 426.402 163.363C426.25 163.623 426.04 163.823 425.772 163.963C425.508 164.103 425.212 164.173 424.884 164.173ZM424.884 163.285C425.08 163.285 425.246 163.213 425.382 163.069C425.522 162.925 425.592 162.719 425.592 162.451C425.592 162.183 425.524 161.977 425.388 161.833C425.256 161.689 425.092 161.617 424.896 161.617C424.696 161.617 424.53 161.689 424.398 161.833C424.266 161.973 424.2 162.179 424.2 162.451C424.2 162.719 424.264 162.925 424.392 163.069C424.524 163.213 424.688 163.285 424.884 163.285ZM431.653 160.741C432.069 160.741 432.399 160.867 432.643 161.119C432.891 161.371 433.015 161.721 433.015 162.169V164.125H431.995V162.307C431.995 162.091 431.937 161.925 431.821 161.809C431.709 161.689 431.553 161.629 431.353 161.629C431.153 161.629 430.995 161.689 430.879 161.809C430.767 161.925 430.711 162.091 430.711 162.307V164.125H429.691V162.307C429.691 162.091 429.633 161.925 429.517 161.809C429.405 161.689 429.249 161.629 429.049 161.629C428.849 161.629 428.691 161.689 428.575 161.809C428.463 161.925 428.407 162.091 428.407 162.307V164.125H427.381V160.777H428.407V161.197C428.511 161.057 428.647 160.947 428.815 160.867C428.983 160.783 429.173 160.741 429.385 160.741C429.637 160.741 429.861 160.795 430.057 160.903C430.257 161.011 430.413 161.165 430.525 161.365C430.641 161.181 430.799 161.031 430.999 160.915C431.199 160.799 431.417 160.741 431.653 160.741ZM437.088 162.397C437.088 162.493 437.082 162.593 437.07 162.697H434.748C434.764 162.905 434.83 163.065 434.946 163.177C435.066 163.285 435.212 163.339 435.384 163.339C435.64 163.339 435.818 163.231 435.918 163.015H437.01C436.954 163.235 436.852 163.433 436.704 163.609C436.56 163.785 436.378 163.923 436.158 164.023C435.938 164.123 435.692 164.173 435.42 164.173C435.092 164.173 434.8 164.103 434.544 163.963C434.288 163.823 434.088 163.623 433.944 163.363C433.8 163.103 433.728 162.799 433.728 162.451C433.728 162.103 433.798 161.799 433.938 161.539C434.082 161.279 434.282 161.079 434.538 160.939C434.794 160.799 435.088 160.729 435.42 160.729C435.744 160.729 436.032 160.797 436.284 160.933C436.536 161.069 436.732 161.263 436.872 161.515C437.016 161.767 437.088 162.061 437.088 162.397ZM436.038 162.127C436.038 161.951 435.978 161.811 435.858 161.707C435.738 161.603 435.588 161.551 435.408 161.551C435.236 161.551 435.09 161.601 434.97 161.701C434.854 161.801 434.782 161.943 434.754 162.127H436.038ZM442.511 161.269C442.511 161.513 442.455 161.737 442.343 161.941C442.231 162.141 442.059 162.303 441.827 162.427C441.595 162.551 441.307 162.613 440.963 162.613H440.327V164.125H439.301V159.913H440.963C441.299 159.913 441.583 159.971 441.815 160.087C442.047 160.203 442.221 160.363 442.337 160.567C442.453 160.771 442.511 161.005 442.511 161.269ZM440.885 161.797C441.081 161.797 441.227 161.751 441.323 161.659C441.419 161.567 441.467 161.437 441.467 161.269C441.467 161.101 441.419 160.971 441.323 160.879C441.227 160.787 441.081 160.741 440.885 160.741H440.327V161.797H440.885ZM444.271 161.335C444.391 161.151 444.541 161.007 444.721 160.903C444.901 160.795 445.101 160.741 445.321 160.741V161.827H445.039C444.783 161.827 444.591 161.883 444.463 161.995C444.335 162.103 444.271 162.295 444.271 162.571V164.125H443.245V160.777H444.271V161.335ZM447.536 164.173C447.208 164.173 446.912 164.103 446.648 163.963C446.388 163.823 446.182 163.623 446.03 163.363C445.882 163.103 445.808 162.799 445.808 162.451C445.808 162.107 445.884 161.805 446.036 161.545C446.188 161.281 446.396 161.079 446.66 160.939C446.924 160.799 447.22 160.729 447.548 160.729C447.876 160.729 448.172 160.799 448.436 160.939C448.7 161.079 448.908 161.281 449.06 161.545C449.212 161.805 449.288 162.107 449.288 162.451C449.288 162.795 449.21 163.099 449.054 163.363C448.902 163.623 448.692 163.823 448.424 163.963C448.16 164.103 447.864 164.173 447.536 164.173ZM447.536 163.285C447.732 163.285 447.898 163.213 448.034 163.069C448.174 162.925 448.244 162.719 448.244 162.451C448.244 162.183 448.176 161.977 448.04 161.833C447.908 161.689 447.744 161.617 447.548 161.617C447.348 161.617 447.182 161.689 447.05 161.833C446.918 161.973 446.852 162.179 446.852 162.451C446.852 162.719 446.916 162.925 447.044 163.069C447.176 163.213 447.34 163.285 447.536 163.285ZM450.542 160.429C450.362 160.429 450.214 160.377 450.098 160.273C449.986 160.165 449.93 160.033 449.93 159.877C449.93 159.717 449.986 159.585 450.098 159.481C450.214 159.373 450.362 159.319 450.542 159.319C450.718 159.319 450.862 159.373 450.974 159.481C451.09 159.585 451.148 159.717 451.148 159.877C451.148 160.033 451.09 160.165 450.974 160.273C450.862 160.377 450.718 160.429 450.542 160.429ZM451.058 164.557C451.058 164.969 450.954 165.265 450.746 165.445C450.538 165.629 450.248 165.721 449.876 165.721H449.474V164.851H449.72C449.832 164.851 449.912 164.829 449.96 164.785C450.008 164.741 450.032 164.669 450.032 164.569V160.777H451.058V164.557ZM455.152 162.397C455.152 162.493 455.146 162.593 455.134 162.697H452.812C452.828 162.905 452.894 163.065 453.01 163.177C453.13 163.285 453.276 163.339 453.448 163.339C453.704 163.339 453.882 163.231 453.982 163.015H455.074C455.018 163.235 454.916 163.433 454.768 163.609C454.624 163.785 454.442 163.923 454.222 164.023C454.002 164.123 453.756 164.173 453.484 164.173C453.156 164.173 452.864 164.103 452.608 163.963C452.352 163.823 452.152 163.623 452.008 163.363C451.864 163.103 451.792 162.799 451.792 162.451C451.792 162.103 451.862 161.799 452.002 161.539C452.146 161.279 452.346 161.079 452.602 160.939C452.858 160.799 453.152 160.729 453.484 160.729C453.808 160.729 454.096 160.797 454.348 160.933C454.6 161.069 454.796 161.263 454.936 161.515C455.08 161.767 455.152 162.061 455.152 162.397ZM454.102 162.127C454.102 161.951 454.042 161.811 453.922 161.707C453.802 161.603 453.652 161.551 453.472 161.551C453.3 161.551 453.154 161.601 453.034 161.701C452.918 161.801 452.846 161.943 452.818 162.127H454.102ZM455.689 162.451C455.689 162.103 455.759 161.799 455.899 161.539C456.043 161.279 456.241 161.079 456.493 160.939C456.749 160.799 457.041 160.729 457.369 160.729C457.789 160.729 458.139 160.839 458.419 161.059C458.703 161.279 458.889 161.589 458.977 161.989H457.885C457.793 161.733 457.615 161.605 457.351 161.605C457.163 161.605 457.013 161.679 456.901 161.827C456.789 161.971 456.733 162.179 456.733 162.451C456.733 162.723 456.789 162.933 456.901 163.081C457.013 163.225 457.163 163.297 457.351 163.297C457.615 163.297 457.793 163.169 457.885 162.913H458.977C458.889 163.305 458.703 163.613 458.419 163.837C458.135 164.061 457.785 164.173 457.369 164.173C457.041 164.173 456.749 164.103 456.493 163.963C456.241 163.823 456.043 163.623 455.899 163.363C455.759 163.103 455.689 162.799 455.689 162.451ZM461.592 163.255V164.125H461.07C460.698 164.125 460.408 164.035 460.2 163.855C459.992 163.671 459.888 163.373 459.888 162.961V161.629H459.48V160.777H459.888V159.961H460.914V160.777H461.586V161.629H460.914V162.973C460.914 163.073 460.938 163.145 460.986 163.189C461.034 163.233 461.114 163.255 461.226 163.255H461.592Z" fill="black"/>
<defs>
<linearGradient id="paint0_linear_12247_28654" x1="298.788" y1="98.458" x2="297.738" y2="83.7916" gradientUnits="userSpaceOnUse">
<stop stop-color="#2B3990"/>
<stop offset="0.061" stop-color="#294898"/>
<stop offset="0.181" stop-color="#2961A8"/>
<stop offset="0.306" stop-color="#2A75B7"/>
<stop offset="0.433" stop-color="#2A87C5"/>
<stop offset="0.563" stop-color="#2996D1"/>
<stop offset="0.697" stop-color="#28A1DA"/>
<stop offset="0.839" stop-color="#28A8E0"/>
<stop offset="1" stop-color="#27AAE1"/>
</linearGradient>
<linearGradient id="paint1_linear_12247_28654" x1="299.042" y1="98.4402" x2="297.992" y2="83.7734" gradientUnits="userSpaceOnUse">
<stop stop-color="#2B3990"/>
<stop offset="0.061" stop-color="#294898"/>
<stop offset="0.181" stop-color="#2961A8"/>
<stop offset="0.306" stop-color="#2A75B7"/>
<stop offset="0.433" stop-color="#2A87C5"/>
<stop offset="0.563" stop-color="#2996D1"/>
<stop offset="0.697" stop-color="#28A1DA"/>
<stop offset="0.839" stop-color="#28A8E0"/>
<stop offset="1" stop-color="#27AAE1"/>
</linearGradient>
<linearGradient id="paint2_linear_12247_28654" x1="296.022" y1="98.6564" x2="294.972" y2="83.9901" gradientUnits="userSpaceOnUse">
<stop stop-color="#2B3990"/>
<stop offset="0.061" stop-color="#294898"/>
<stop offset="0.181" stop-color="#2961A8"/>
<stop offset="0.306" stop-color="#2A75B7"/>
<stop offset="0.433" stop-color="#2A87C5"/>
<stop offset="0.563" stop-color="#2996D1"/>
<stop offset="0.697" stop-color="#28A1DA"/>
<stop offset="0.839" stop-color="#28A8E0"/>
<stop offset="1" stop-color="#27AAE1"/>
</linearGradient>
<linearGradient id="paint3_linear_12247_28654" x1="300.413" y1="92.4169" x2="299.657" y2="83.4801" gradientUnits="userSpaceOnUse">
<stop stop-color="#2B3990"/>
<stop offset="0.061" stop-color="#294898"/>
<stop offset="0.181" stop-color="#2961A8"/>
<stop offset="0.306" stop-color="#2A75B7"/>
<stop offset="0.433" stop-color="#2A87C5"/>
<stop offset="0.563" stop-color="#2996D1"/>
<stop offset="0.697" stop-color="#28A1DA"/>
<stop offset="0.839" stop-color="#28A8E0"/>
<stop offset="1" stop-color="#27AAE1"/>
</linearGradient>
<linearGradient id="paint4_linear_12247_28654" x1="295.516" y1="98.6926" x2="294.465" y2="84.0265" gradientUnits="userSpaceOnUse">
<stop stop-color="#2B3990"/>
<stop offset="0.061" stop-color="#294898"/>
<stop offset="0.181" stop-color="#2961A8"/>
<stop offset="0.306" stop-color="#2A75B7"/>
<stop offset="0.433" stop-color="#2A87C5"/>
<stop offset="0.563" stop-color="#2996D1"/>
<stop offset="0.697" stop-color="#28A1DA"/>
<stop offset="0.839" stop-color="#28A8E0"/>
<stop offset="1" stop-color="#27AAE1"/>
</linearGradient>
</defs>
</svg>
