<svg width="250" height="63" viewBox="0 0 250 63" fill="none" xmlns="http://www.w3.org/2000/svg">
<g clip-path="url(#clip0_12595_9901)">
<path d="M63.8902 12.3009C63.8562 11.5146 63.7461 10.7332 63.5614 9.96704C62.9334 7.35594 61.4284 5.02481 59.286 3.34461C57.1789 1.64463 54.5453 0.68863 51.8118 0.631464H12.9454C11.9431 0.602202 10.9406 0.680468 9.95575 0.864853C7.615 1.36528 5.47464 2.52108 3.79694 4.19065C2.57563 5.34324 1.6356 6.74909 1.0464 8.30414C0.546576 9.45102 0.26299 10.6765 0.20928 11.9217H0V51.4811H0.20928C0.252761 52.7057 0.526374 53.9121 1.0165 55.0403C2.13136 57.8254 4.2606 60.1109 6.99594 61.4585C8.13013 62.0336 9.35148 62.4277 10.6135 62.6255C10.6544 62.6024 10.7008 62.5903 10.748 62.5903C10.7953 62.5903 10.8417 62.6024 10.8826 62.6255H53.0376H53.2468H53.9943C56.2429 62.1585 58.3154 61.0938 59.9826 59.5493C61.65 58.0048 62.8471 56.0403 63.4417 53.8734C63.7673 52.6847 63.9181 51.4568 63.8902 50.2267V12.3009ZM49.6591 42.3498C49.6108 42.4718 49.6108 42.6071 49.6591 42.7291C49.5857 43.1964 49.4655 43.6556 49.3004 44.1003L48.7623 46.1132L48.6128 46.5507C48.6128 46.9885 48.2541 47.3385 47.7159 47.3968H47.5066C47.4261 47.4448 47.3368 47.4768 47.2437 47.4909C47.1505 47.5052 47.0553 47.5013 46.9637 47.4796C46.8721 47.4579 46.7858 47.4189 46.7096 47.3647C46.6335 47.3104 46.569 47.2421 46.5199 47.1634C46.2454 46.8214 46.0678 46.4151 46.0048 45.9849C45.9419 45.5549 45.9958 45.1162 46.1612 44.7128L46.3406 44.3045C46.3854 44.1124 46.3854 43.913 46.3406 43.7209C46.1925 43.3053 46.1925 42.8529 46.3406 42.4373C46.3904 42.3147 46.4669 42.2041 46.5651 42.1134C46.6632 42.0226 46.7805 41.9539 46.9086 41.9122L47.6561 41.5912C47.7591 41.5549 47.8527 41.4969 47.9302 41.4212C48.0077 41.3456 48.0673 41.2542 48.1046 41.1536C48.2839 40.7745 48.5829 40.4827 48.7921 40.1034C49.0014 39.7242 48.9716 39.7242 49.2107 39.7242C49.4499 39.7242 49.5695 39.9575 49.6891 40.1618C49.7335 40.3242 49.7335 40.4952 49.6891 40.6578V41.2412C49.8094 41.6031 49.7989 41.9945 49.6591 42.3498ZM50.4963 27.3546C50.3808 27.7407 50.2204 28.1127 50.0179 28.4631C49.6891 29.0758 49.3004 29.6592 48.9716 30.2719C48.6293 30.8341 48.1712 31.3208 47.6261 31.7014C46.5838 32.4511 45.64 33.3232 44.8159 34.2978C44.3949 34.822 44.034 35.3893 43.7396 35.9899C43.6949 36.0653 43.6714 36.1509 43.6714 36.2379C43.6714 36.325 43.6949 36.4105 43.7396 36.4859C43.8815 36.8833 43.9816 37.2939 44.0386 37.7112C44.0739 38.0003 44.2113 38.2685 44.4272 38.4697C44.5115 38.5649 44.574 38.6766 44.6102 38.7975C44.6462 38.9183 44.6552 39.0454 44.6364 39.1699C44.5766 39.7031 44.5766 40.2411 44.6364 40.7745C44.6604 41.1987 44.542 41.6189 44.2992 41.9716C44.0565 42.3243 43.7025 42.5902 43.2911 42.7291C42.8461 42.8383 42.4609 43.1097 42.2148 43.4876C42.2148 43.6334 41.9756 43.6627 41.856 43.7501C41.692 43.8316 41.5629 43.9672 41.4917 44.1327C41.4206 44.2984 41.4119 44.4833 41.4674 44.6545C41.4674 44.8588 41.4674 45.0921 41.6169 45.3255C41.736 45.8048 41.736 46.3049 41.6169 46.7842C41.5879 46.897 41.5282 47 41.4439 47.0822C41.3596 47.1644 41.2541 47.2227 41.1385 47.251C40.9483 47.2881 40.7662 47.3572 40.6004 47.4552C40.5057 47.4821 40.4237 47.5408 40.369 47.6207C40.3143 47.7008 40.2904 47.7972 40.3014 47.8928C40.3018 48.592 40.0594 49.2707 39.6137 49.8183C39.0679 50.5868 38.4685 51.3179 37.8199 52.0063C37.5266 52.3326 37.1624 52.591 36.7538 52.7627C36.3452 52.9343 35.9025 53.0147 35.458 52.9981C35.0505 52.9572 34.6397 52.9572 34.2322 52.9981L33.425 53.1441C33.2168 53.1723 33.0055 53.1723 32.7972 53.1441C32.6598 53.1479 32.5228 53.1254 32.3944 53.0776C32.2659 53.0299 32.1483 52.9578 32.0484 52.8657C31.9485 52.7736 31.868 52.6632 31.8119 52.5407C31.7557 52.4183 31.7247 52.2862 31.7209 52.1522C31.7063 52.0849 31.7063 52.0153 31.7209 51.948C31.7629 51.5256 31.6799 51.1003 31.4817 50.7226C31.191 50.0441 30.8089 49.4065 30.3456 48.8264C30.1453 48.5918 30.0113 48.3102 29.957 48.0095L29.6879 46.2882C29.4808 45.6025 29.1464 44.9597 28.7013 44.3919L28.2528 43.6918C28.139 43.494 28.0676 43.2755 28.0435 43.05C27.9176 42.0499 28.0943 41.0358 28.5518 40.1326L28.9105 39.6075C29.0061 39.4588 29.0567 39.287 29.0567 39.1115C29.0567 38.936 29.0061 38.7642 28.9105 38.6156C28.7952 38.2756 28.7249 37.9227 28.7013 37.5653C28.5553 36.9432 28.3449 36.3371 28.0735 35.7565C27.8494 35.419 27.5888 35.106 27.2961 34.823L26.9075 34.4729C26.7114 34.2946 26.5731 34.0643 26.5093 33.8104C26.4456 33.5564 26.4593 33.2898 26.5487 33.0434C26.5487 32.6933 26.728 32.3432 26.7878 31.9931C26.8025 31.8086 26.8025 31.6234 26.7878 31.4389C26.7893 31.2828 26.7325 31.1315 26.6279 31.0133C26.5233 30.8953 26.3783 30.8182 26.2198 30.797H25.1136C24.9959 30.8083 24.8773 30.7869 24.7716 30.7353C24.6657 30.6837 24.577 30.604 24.5156 30.5053C24.4349 30.3952 24.3648 30.278 24.3063 30.1552C24.2246 30.009 24.0939 29.8946 23.9362 29.8308C23.7784 29.7672 23.6032 29.758 23.4393 29.8052C23.0633 29.8279 22.6917 29.8964 22.3331 30.0094L21.3765 30.301C20.9984 30.4552 20.5898 30.525 20.1806 30.5053H19.4033C18.9076 30.4555 18.407 30.5154 17.9383 30.6804C17.8275 30.7365 17.7044 30.7659 17.5796 30.7659C17.4546 30.7659 17.3316 30.7365 17.2208 30.6804C16.3278 30.2452 15.4858 29.7171 14.7094 29.1049C14.4609 28.9116 14.2657 28.661 14.1414 28.3756C14.0038 28.1142 13.822 27.8775 13.6032 27.6755C13.2744 27.3546 12.9754 27.0336 12.6465 26.7419C12.4625 26.6381 12.3049 26.4949 12.1858 26.323C12.0667 26.1513 11.9891 25.9553 11.9589 25.75C11.9574 25.6286 11.93 25.5089 11.8785 25.3985C11.8271 25.2878 11.7526 25.189 11.6599 25.1082C11.6344 25.0862 11.6141 25.0593 11.6001 25.0292C11.5861 24.9989 11.5789 24.9662 11.5789 24.9331C11.5789 24.9 11.5861 24.8672 11.6001 24.8371C11.6141 24.807 11.6344 24.7799 11.6599 24.7581L11.9589 24.4663C12.2452 23.911 12.4178 23.3066 12.4671 22.6867C12.5263 22.289 12.4639 21.8831 12.2877 21.5199C12.1987 21.3636 12.152 21.1879 12.152 21.0092C12.152 20.8305 12.1987 20.6548 12.2877 20.4987C12.629 19.9167 12.9287 19.3123 13.1846 18.6899C13.2157 18.4934 13.2869 18.3049 13.3939 18.1357C13.6331 17.8147 13.9022 17.523 14.1712 17.2021C14.2433 17.1171 14.3233 17.039 14.4104 16.9687L15.4569 16.2393C15.6321 16.1442 15.7774 16.0043 15.8775 15.8348C15.9775 15.6652 16.0286 15.4723 16.0249 15.2766C15.9957 15.0929 15.9957 14.9061 16.0249 14.7223C16.1753 14.1962 16.5014 13.7341 16.9516 13.4095L17.4599 13.0011C17.6572 12.8509 17.8202 12.6621 17.9383 12.4468C17.9681 12.332 18.0187 12.2233 18.0878 12.1259C18.1214 12.0886 18.1628 12.0588 18.2093 12.0384C18.2556 12.0179 18.306 12.0074 18.3569 12.0074C18.4077 12.0074 18.4581 12.0179 18.5044 12.0384C18.5509 12.0588 18.5923 12.0886 18.6259 12.1259C19.1072 12.3227 19.6357 12.3834 20.1506 12.3009C20.4237 12.3006 20.6918 12.2302 20.928 12.0967C21.934 11.546 23.0635 11.2454 24.2168 11.2215H24.6353C24.9414 11.1633 25.256 11.1633 25.5621 11.2215C26.0216 11.2264 26.4779 11.1472 26.9075 10.9881C27.0109 10.9124 27.1368 10.8714 27.2662 10.8714C27.3956 10.8714 27.5214 10.9124 27.625 10.9881C27.625 10.9881 28.0136 10.9881 28.0735 11.2215C28.1332 11.4549 28.0735 11.4841 27.894 11.6299C27.8621 11.7247 27.8621 11.8269 27.894 11.9217C27.9551 11.9961 27.999 12.0824 28.0232 12.1747C28.0473 12.267 28.051 12.3633 28.034 12.4572C28.0171 12.551 27.9798 12.6403 27.9247 12.7189C27.8697 12.7977 27.7981 12.864 27.7147 12.9136C27.7048 12.9813 27.7048 13.05 27.7147 13.1177C27.7147 13.1177 27.7147 13.1177 27.7147 13.2637H27.894C28.2634 13.4473 28.6552 13.5846 29.06 13.6721L29.9868 13.8471C30.1052 13.8637 30.2171 13.9101 30.3114 13.9817C30.4058 14.0533 30.4794 14.1477 30.525 14.2556C30.569 14.3507 30.6352 14.4346 30.7181 14.5005C30.8013 14.5663 30.8989 14.6123 31.0033 14.6348L32.1395 15.0725C32.2383 15.0893 32.3395 15.0893 32.4385 15.0725C32.6178 15.0725 32.7075 15.0725 32.7972 14.839C32.8261 14.6749 32.8261 14.5072 32.7972 14.3431C32.8028 14.2053 32.8518 14.0727 32.9373 13.9632C33.0228 13.8536 33.141 13.7722 33.2755 13.7304H33.7838C33.9367 13.6943 34.0966 13.6968 34.2482 13.7376C34.4 13.7784 34.5384 13.8563 34.6508 13.9638C34.8269 14.1182 35.0449 14.2195 35.2787 14.2556L37.4312 14.7807C37.767 14.9121 38.1419 14.9121 38.4777 14.7807C38.8267 14.6651 39.2049 14.6651 39.5539 14.7807H40.6602C40.9591 14.7807 41.1684 14.7807 41.1982 15.1892C41.2282 15.5975 41.1982 15.5392 41.1982 15.685C41.3463 16.1107 41.3463 16.5723 41.1982 16.9978C41.1445 17.0799 41.0731 17.1496 40.989 17.2021C40.8395 17.2021 40.8395 17.3771 40.989 17.523C41.1385 17.6689 41.2282 18.1357 41.3777 18.4274C41.6424 18.8023 41.8442 19.2158 41.9756 19.6527C42.0398 19.8188 42.1421 19.9685 42.2746 20.0903C42.6952 20.5002 42.9319 21.0564 42.9324 21.6365C42.9283 21.7985 42.958 21.9596 43.0197 22.1101C43.0813 22.2605 43.1736 22.3972 43.2911 22.5117C43.6306 22.8163 43.8698 23.2122 43.9787 23.6494C44.0992 23.993 44.3298 24.2896 44.6364 24.4955C45.1148 24.8748 45.5334 25.3124 45.9819 25.7209C46.1641 25.8952 46.289 26.1186 46.3406 26.3627C46.3406 26.8294 46.6694 27.0045 47.1777 26.917C47.5865 26.9284 47.9957 26.9187 48.4035 26.8877C48.9279 26.8341 49.4415 26.7063 49.9283 26.5085H50.1076C50.1449 26.4951 50.1846 26.4899 50.2242 26.4933C50.2638 26.4966 50.3022 26.5085 50.3364 26.528C50.3707 26.5476 50.4001 26.5742 50.4226 26.6062C50.4451 26.6381 50.46 26.6744 50.4664 26.7127C50.5346 26.9203 50.545 27.1418 50.4963 27.3546Z" fill="#264ECA"/>
<path d="M250 4.97905C249.783 4.45778 249.428 4.00218 248.971 3.65877C248.513 3.31537 247.971 3.09646 247.398 3.02441C247.367 3.03989 247.331 3.04794 247.294 3.04794C247.258 3.04794 247.222 3.03989 247.19 3.02441H246.831C246.798 3.03989 246.763 3.04794 246.726 3.04794C246.69 3.04794 246.655 3.03989 246.622 3.02441C246.075 3.0963 245.56 3.31418 245.133 3.65397C244.706 3.99377 244.382 4.44227 244.201 4.94987L242.556 8.97584L240.194 14.5772C239.327 16.6485 238.459 18.7199 237.623 20.7912L234.633 27.5886L231.643 34.4736C231.643 34.4736 231.643 34.6487 231.434 34.6487C231.306 34.4136 231.197 34.1699 231.105 33.9193C229.909 31.002 228.744 28.0846 227.577 25.3715C226.411 22.6582 225.454 19.7118 224.228 16.9111C224.05 16.4414 223.84 15.9833 223.602 15.5399C223.409 15.1455 223.121 14.8033 222.76 14.5438C222.401 14.2843 221.981 14.1154 221.538 14.052C220.74 13.95 219.931 14.1368 219.265 14.5772C218.99 14.725 218.754 14.935 218.579 15.1898C218.259 15.6075 218.06 16.1011 218.001 16.6193C217.944 17.1375 218.029 17.6614 218.249 18.1363C218.548 18.9241 218.877 19.7118 219.206 20.4994L222.614 28.6973C223.481 30.8269 224.378 32.9566 225.275 35.1154C226.411 37.8869 227.547 40.6293 228.713 43.4007C228.872 43.8374 229.094 44.25 229.371 44.6261C229.815 45.1816 230.451 45.5615 231.16 45.6956C231.868 45.8296 232.603 45.7088 233.227 45.3554C233.891 44.961 234.405 44.3672 234.693 43.6633C235.948 40.6 237.204 37.566 238.49 34.5028C239.775 31.4395 241.03 28.2888 242.316 25.1964L245.008 18.7782C245.665 17.1153 246.353 15.4816 247.041 13.8478L249.552 7.72137L250 6.61278V5.00823V4.97905Z" fill="#264ECA"/>
<path d="M133.527 38.9121C132.779 37.3369 132.062 35.7906 131.315 34.2444C130.268 32.0563 129.222 29.8683 128.325 27.6803C127.428 25.4922 126.352 23.5668 125.335 21.4955L122.345 14.9606C121.478 13.0935 120.581 11.2264 119.684 9.35926L118.608 7.11289C118.279 6.41272 117.98 5.68338 117.622 5.01238C117.426 4.53443 117.105 4.11537 116.69 3.79771C116.275 3.48005 115.782 3.27509 115.26 3.20361H115.05H114.333C114.296 3.22161 114.255 3.23097 114.213 3.23097C114.172 3.23097 114.131 3.22161 114.094 3.20361C113.907 3.23867 113.732 3.31892 113.585 3.43701H113.376C112.801 3.74837 112.341 4.22798 112.061 4.80816L110.655 7.72553L106.769 15.6024C105.573 18.1114 104.407 20.6203 103.211 23.1C102.015 25.5798 100.939 27.8553 99.8327 30.2476C99.5831 30.7202 99.3634 31.2074 99.175 31.7063C98.9705 32.2052 98.9297 32.7538 99.0582 33.2763C99.1868 33.7989 99.4783 34.2696 99.8925 34.6236C100.212 34.9258 100.592 35.1597 101.009 35.3103C101.426 35.461 101.87 35.5252 102.314 35.4988C102.994 35.4866 103.645 35.2265 104.138 34.7696C104.487 34.4219 104.77 34.017 104.975 33.5734L106.769 29.6932L110.327 22.1957L113.316 15.5441L113.735 14.7856C114.064 14.3771 114.153 13.852 114.452 13.4144C114.503 13.4278 114.548 13.4537 114.585 13.4894C114.621 13.5253 114.648 13.5698 114.662 13.6186L115.14 14.6105L118.519 21.6997L120.671 26.2508L124.438 34.1569C125.305 36.0532 126.202 37.8911 127.099 39.7873L127.996 41.7128C128.384 42.5297 128.744 43.3465 129.162 44.1343C129.405 44.7 129.825 45.1764 130.362 45.4959C130.898 45.8153 131.525 45.9617 132.151 45.9138C132.764 45.8795 133.35 45.6622 133.831 45.2917C134.312 44.9213 134.665 44.4153 134.843 43.8425C135.063 43.053 134.978 42.2115 134.603 41.4794C134.334 40.6043 133.945 39.7582 133.527 38.9121Z" fill="#264ECA"/>
<path d="M207.964 31.0599C207.58 29.4796 206.751 28.0351 205.574 26.888C204.61 25.9451 203.5 25.1574 202.284 24.5541C201.246 24.0416 200.166 23.6123 199.056 23.2704C197.59 22.7453 196.066 22.3661 194.571 21.9868C192.727 21.5679 190.91 21.0419 189.129 20.4115C188.279 20.0936 187.458 19.7031 186.678 19.2445C185.963 18.8352 185.374 18.2451 184.975 17.5366C184.575 16.8279 184.378 16.0271 184.406 15.2185C184.426 14.7058 184.508 14.1969 184.645 13.7015C184.949 12.4943 185.721 11.4489 186.798 10.7842C187.721 10.2232 188.731 9.80953 189.788 9.55887C191.065 9.22807 192.383 9.07098 193.704 9.0921C194.497 9.0921 195.258 8.78473 195.819 8.23762C196.378 7.6905 196.694 6.94846 196.694 6.17473C196.701 5.46682 196.444 4.78053 195.971 4.24379C195.497 3.70703 194.841 3.35644 194.123 3.25737H193.405C191.615 3.10068 189.813 3.19896 188.053 3.5491C185.489 4.16533 183.155 5.48066 181.326 7.34168C179.541 9.16962 178.481 11.559 178.336 14.0808C178.241 15.2613 178.312 16.449 178.546 17.6108C178.774 18.8384 179.251 20.009 179.952 21.0533C180.878 22.4015 182.104 23.5282 183.539 24.3499C184.893 25.1499 186.339 25.796 187.844 26.2753C189.907 26.9464 192.06 27.4423 194.152 28.0258C195.534 28.3556 196.893 28.7747 198.218 29.2802C199.114 29.6266 199.959 30.0876 200.73 30.6514C201.365 31.1541 201.825 31.8372 202.046 32.606C202.313 33.732 202.194 34.9124 201.708 35.9664C201.222 37.0203 200.396 37.8897 199.354 38.4409C197.721 39.3148 195.896 39.7949 194.033 39.8412C193.268 39.9134 192.496 39.9134 191.731 39.8412C190.813 39.7345 189.905 39.5689 189.01 39.3452C187.638 38.9881 186.343 38.3953 185.183 37.5948C184.635 37.2044 184.124 36.7649 183.659 36.2819C183.33 35.9148 182.871 35.685 182.373 35.6401C181.67 35.5027 180.942 35.5737 180.28 35.8443C179.89 35.9933 179.541 36.2291 179.26 36.533C178.98 36.8369 178.777 37.2005 178.666 37.5948C178.511 38.1041 178.501 38.6448 178.638 39.1589C178.775 39.6732 179.053 40.141 179.443 40.5121C180.599 41.6866 181.942 42.6716 183.419 43.4295C185.121 44.3001 186.944 44.9195 188.831 45.2674C190.166 45.5489 191.53 45.6859 192.897 45.6759H193.136C194.418 45.6848 195.698 45.5872 196.963 45.3841C199.001 45.0014 200.954 44.2706 202.734 43.2253C204.319 42.269 205.64 40.9464 206.579 39.3742C207.516 37.8021 208.044 36.0288 208.114 34.2106V33.0729C208.133 32.3987 208.084 31.7243 207.964 31.0599Z" fill="#264ECA"/>
<path d="M165.272 28.1136C166.716 27.2341 167.958 26.0718 168.919 24.7003C169.977 23.0895 170.642 21.2629 170.862 19.3616C170.967 18.304 170.967 17.2391 170.862 16.1816C170.835 15.2005 170.714 14.2239 170.504 13.2642C170.146 11.7629 169.506 10.3387 168.619 9.06323C167.687 7.74338 166.499 6.61371 165.122 5.73743C162.504 3.90201 159.376 2.88477 156.152 2.82007C155.674 2.82007 155.166 2.82007 154.688 2.82007C153.504 2.92962 152.334 3.14445 151.19 3.46188C148.288 4.22493 145.706 5.85762 143.805 8.12967C143.076 9.02498 142.463 10.0049 141.981 11.047C141.206 12.8956 140.849 14.886 140.935 16.8818C140.942 17.3442 141.061 17.7984 141.283 18.207C141.505 18.6156 141.822 18.9669 142.211 19.2319C142.599 19.497 143.047 19.6681 143.516 19.7311C143.986 19.7942 144.464 19.7476 144.911 19.5949C145.392 19.4507 145.827 19.1907 146.178 18.8388C146.528 18.487 146.78 18.0547 146.915 17.5819C146.958 17.1649 146.958 16.7445 146.915 16.3274C146.926 15.124 147.212 13.9381 147.751 12.8558C148.275 11.8835 149.048 11.0596 149.994 10.4636C150.656 10.0414 151.357 9.68007 152.086 9.38413C153.197 8.97389 154.368 8.74712 155.555 8.71314C156.369 8.71385 157.181 8.8019 157.976 8.9757C159.32 9.27489 160.595 9.8086 161.744 10.5511C162.676 11.1858 163.42 12.0518 163.896 13.06C164.398 14.1331 164.673 15.2941 164.703 16.4734C164.815 17.6274 164.725 18.7917 164.434 19.9158C164.121 21.103 163.377 22.1393 162.341 22.8332C160.884 23.7611 159.292 24.4693 157.618 24.9338C156.212 25.3714 154.628 25.7505 153.402 26.2174C151.642 26.7557 149.948 27.4796 148.349 28.3762C146.332 29.5187 144.626 31.1162 143.372 33.0349C142.119 34.9536 141.355 37.1376 141.145 39.4038C141.145 39.929 141.145 40.4541 140.995 41.0084C140.935 41.6586 140.935 42.3127 140.995 42.963C140.995 43.7367 141.31 44.4788 141.871 45.026C142.431 45.5731 143.192 45.8803 143.985 45.8803C144.56 45.8792 145.122 45.7162 145.605 45.4109C146.088 45.1056 146.47 44.671 146.706 44.1591C146.816 43.8865 146.896 43.6028 146.944 43.3132C146.975 42.7593 146.975 42.2041 146.944 41.6502C146.963 40.5533 147.133 39.464 147.453 38.4119C147.816 37.1429 148.494 35.9807 149.426 35.0277C150.18 34.2844 151.061 33.6725 152.027 33.2191C153.481 32.5347 154.991 31.9688 156.542 31.527C157.976 31.0602 159.53 30.6809 160.877 30.1849C162.411 29.6466 163.884 28.9524 165.272 28.1136Z" fill="#264ECA"/>
<path d="M204.796 13.1468C205.589 13.1468 206.349 12.8394 206.91 12.2923C207.471 11.7452 207.786 11.0031 207.786 10.2294C207.786 9.45565 207.471 8.71361 206.91 8.1665C206.349 7.61938 205.589 7.31201 204.796 7.31201C204.004 7.31201 203.242 7.61938 202.681 8.1665C202.122 8.71361 201.806 9.45565 201.806 10.2294C201.806 11.0031 202.122 11.7452 202.681 12.2923C203.242 12.8394 204.004 13.1468 204.796 13.1468Z" fill="#264ECA"/>
<path d="M216.425 8.94656C217.218 8.94656 217.978 8.63919 218.539 8.09207C219.1 7.54496 219.415 6.80292 219.415 6.02918C219.415 5.45219 219.24 4.88815 218.911 4.40838C218.582 3.92862 218.115 3.5547 217.57 3.3339C217.023 3.11309 216.423 3.0553 215.843 3.16787C215.263 3.28044 214.73 3.5583 214.312 3.9663C213.893 4.37429 213.609 4.89412 213.494 5.46004C213.378 6.02595 213.438 6.61253 213.664 7.14562C213.89 7.67869 214.273 8.13432 214.765 8.45489C215.256 8.77545 215.834 8.94656 216.425 8.94656Z" fill="#264ECA"/>
<path d="M167.991 39.7821C167.199 39.7821 166.438 40.0895 165.878 40.6366C165.317 41.1837 165.001 41.9257 165.001 42.6995C165.001 43.4732 165.317 44.2152 165.878 44.7623C166.438 45.3094 167.199 45.6168 167.991 45.6168C168.784 45.6168 169.544 45.3094 170.105 44.7623C170.666 44.2152 170.981 43.4732 170.981 42.6995C170.981 41.9257 170.666 41.1837 170.105 40.6366C169.544 40.0895 168.784 39.7821 167.991 39.7821Z" fill="#264ECA"/>
<path d="M96.9851 45.6767C97.778 45.6767 98.5384 45.3695 99.0991 44.8224C99.6598 44.2752 99.9747 43.5332 99.9747 42.7594C99.9747 41.9858 99.6598 41.2436 99.0991 40.6965C98.5384 40.1494 97.778 39.842 96.9851 39.842C96.1921 39.842 95.4317 40.1494 94.8711 40.6965C94.3104 41.2436 93.9954 41.9858 93.9954 42.7594C93.9954 43.5332 94.3104 44.2752 94.8711 44.8224C95.4317 45.3695 96.1921 45.6767 96.9851 45.6767Z" fill="#264ECA"/>
<path d="M150.622 52.2992H149.845C148.877 52.4857 148.009 53.0018 147.396 53.7553C146.783 54.5089 146.463 55.4509 146.496 56.4128C146.478 56.9508 146.572 57.4869 146.772 57.9884C146.972 58.4899 147.275 58.9465 147.662 59.3301C148.037 59.7371 148.5 60.058 149.017 60.2698C149.533 60.4817 150.093 60.5792 150.652 60.5554C151.223 60.5759 151.792 60.4652 152.311 60.2321C152.83 59.999 153.287 59.65 153.642 59.2134C154.236 58.5597 154.604 57.7407 154.695 56.8718C154.787 56.003 154.595 55.1281 154.15 54.3706C153.822 53.7354 153.317 53.2036 152.693 52.8371C152.069 52.4706 151.352 52.2841 150.622 52.2992ZM151.28 59.5343H151.071H150.414C149.836 59.5226 149.275 59.3482 148.798 59.0325C148.321 58.7167 147.947 58.273 147.722 57.7547C147.464 57.257 147.343 56.7027 147.369 56.1456C147.395 55.5884 147.569 55.0474 147.872 54.5747C148.133 54.0956 148.527 53.697 149.006 53.4239C149.487 53.1507 150.037 53.0138 150.593 53.0286C151.027 53.0434 151.452 53.1503 151.839 53.3418C152.226 53.5332 152.566 53.8047 152.835 54.1371C153.195 54.5541 153.445 55.0512 153.563 55.5847C153.68 56.1181 153.661 56.6717 153.508 57.1963C153.354 57.721 153.071 58.2006 152.681 58.5931C152.293 58.9855 151.812 59.2788 151.28 59.4468V59.5343Z" fill="#264ECA"/>
<path d="M191.97 52.2974C191.683 52.2526 191.39 52.2526 191.103 52.2974C190.286 52.4876 189.553 52.927 189.01 53.5518C188.646 53.9459 188.365 54.4069 188.187 54.9078C188.006 55.4087 187.93 55.9394 187.963 56.4691C188.015 57.3769 188.36 58.2453 188.95 58.9489C189.431 59.5274 190.076 59.955 190.805 60.1781C191.533 60.4011 192.312 60.4099 193.046 60.2034C193.926 59.948 194.688 59.4012 195.199 58.6572C195.722 57.9232 195.985 57.0419 195.945 56.1482C195.923 55.2952 195.631 54.47 195.109 53.7851C194.742 53.3138 194.266 52.9335 193.722 52.6749C193.176 52.4164 192.576 52.2871 191.97 52.2974ZM194.093 58.7155C193.742 59.073 193.306 59.3378 192.822 59.4855C192.34 59.6331 191.826 59.6585 191.33 59.5593C190.834 59.4602 190.372 59.2398 189.987 58.9187C189.602 58.5976 189.307 58.1864 189.129 57.7236C188.773 56.9465 188.736 56.0656 189.025 55.2623C189.313 54.4591 189.907 53.7947 190.684 53.4059C191.159 53.17 191.693 53.072 192.223 53.1238C192.753 53.1755 193.256 53.3747 193.674 53.6977C194.067 53.9818 194.393 54.3451 194.629 54.7631C194.865 55.181 195.008 55.6438 195.044 56.1198C195.081 56.596 195.013 57.0741 194.843 57.522C194.674 57.9699 194.407 58.377 194.062 58.7155H194.093Z" fill="#264ECA"/>
<path d="M112.622 57.5783C112.293 57.0241 112.353 56.9949 112.832 56.7907C113.281 56.5428 113.634 56.1562 113.834 55.6914C114.034 55.2268 114.071 54.7105 113.938 54.2234C113.824 53.7317 113.544 53.2918 113.142 52.9742C112.741 52.6568 112.242 52.4802 111.725 52.473C111.247 52.473 110.739 52.473 110.26 52.473H109.304C108.975 52.473 108.945 52.473 108.945 52.8523V59.854C108.945 60.3499 108.945 60.3499 109.483 60.3499C110.021 60.3499 109.842 60.3499 109.842 60.029V58.0452C109.842 56.9366 109.692 57.1116 110.858 57.1116C110.968 57.0961 111.081 57.1162 111.178 57.1689C111.275 57.2216 111.352 57.3039 111.397 57.4034L111.965 58.337L112.981 60.0874C112.981 60.0874 112.981 60.3207 113.28 60.3499C113.528 60.3804 113.779 60.3804 114.028 60.3499C114.064 60.256 114.064 60.1521 114.028 60.0582L112.622 57.5783ZM111.875 56.2364H110.171C109.932 56.2364 109.872 56.2364 109.872 55.9447V54.7194V53.4649C109.872 53.2899 109.872 53.2024 110.141 53.2024H111.845C112.127 53.2133 112.399 53.3048 112.627 53.4656C112.856 53.6265 113.031 53.8494 113.131 54.1067C113.287 54.4682 113.297 54.8743 113.159 55.2427C113.02 55.6111 112.743 55.9143 112.383 56.0906C112.225 56.1696 112.052 56.2189 111.875 56.2364Z" fill="#264ECA"/>
<path d="M164.435 56.674C163.878 56.3356 163.259 56.1076 162.612 56.0031C162.222 56.0031 161.834 55.8571 161.475 55.7404C161.256 55.6886 161.046 55.6102 160.848 55.5071C160.713 55.4258 160.599 55.3175 160.511 55.1894C160.424 55.0613 160.364 54.9164 160.339 54.7644C160.313 54.6125 160.322 54.4569 160.363 54.3082C160.405 54.1595 160.477 54.0213 160.579 53.9025C160.793 53.6452 161.071 53.4446 161.386 53.3191C161.868 53.2164 162.368 53.2164 162.85 53.3191C163.146 53.3316 163.434 53.4059 163.697 53.5367C163.961 53.6676 164.192 53.852 164.376 54.0776C164.614 54.3694 164.614 54.3694 164.943 54.2527C164.98 54.249 165.014 54.2361 165.044 54.2152C165.074 54.1945 165.098 54.1665 165.112 54.134C165.127 54.1015 165.133 54.0658 165.131 54.0303C165.127 53.9949 165.114 53.9608 165.093 53.9318C164.912 53.5629 164.621 53.2572 164.255 53.0564C163.635 52.6851 162.921 52.4836 162.193 52.473C161.732 52.4813 161.277 52.5704 160.848 52.7355C160.456 52.8863 160.108 53.1264 159.831 53.4358C159.65 53.656 159.52 53.9119 159.451 54.1857C159.381 54.4595 159.373 54.7448 159.426 55.022C159.481 55.2992 159.595 55.5617 159.764 55.7915C159.931 56.0213 160.148 56.2129 160.398 56.3531L160.817 56.5282C161.246 56.6755 161.687 56.7926 162.133 56.8782C162.542 56.9445 162.943 57.052 163.329 57.1992C163.533 57.2669 163.725 57.3653 163.897 57.4909C164.086 57.6346 164.22 57.8379 164.274 58.0663C164.329 58.2948 164.301 58.5345 164.195 58.7453C164.015 59.1131 163.693 59.3962 163.299 59.5331C162.754 59.75 162.152 59.7905 161.581 59.6487C161.011 59.5069 160.503 59.1902 160.129 58.7453C160.096 58.7167 160.055 58.7008 160.01 58.7008C159.966 58.7008 159.924 58.7167 159.891 58.7453L159.503 58.8913C159.503 58.8913 159.322 59.0371 159.503 59.1538C159.632 59.4362 159.826 59.6859 160.07 59.8831C160.567 60.2711 161.161 60.5241 161.792 60.6162C162.421 60.7085 163.065 60.6367 163.657 60.4083C164.033 60.2675 164.377 60.0597 164.674 59.7956C164.921 59.603 165.115 59.3547 165.242 59.0719C165.368 58.7892 165.421 58.4807 165.398 58.1733C165.374 57.8658 165.275 57.5686 165.107 57.3073C164.939 57.046 164.708 56.8286 164.435 56.674Z" fill="#264ECA"/>
<path d="M132.473 54.9538L131.546 52.7366C131.519 52.6417 131.461 52.5584 131.379 52.5001C131.298 52.442 131.198 52.4122 131.098 52.4157C130.32 52.4157 130.41 52.4157 130.112 53.0868V53.3201C129.393 55.3039 128.646 57.2878 127.898 59.1548C127.806 59.3837 127.726 59.6175 127.66 59.8551C127.66 60.0884 127.66 60.1467 127.839 60.176H128.198C128.272 60.1787 128.344 60.1571 128.404 60.1148C128.463 60.0724 128.506 60.0118 128.527 59.9425L128.975 58.8048C128.99 58.7171 129.038 58.6381 129.11 58.5839C129.183 58.5299 129.273 58.5044 129.364 58.513C130.41 58.513 131.486 58.513 132.562 58.513C132.669 58.5046 132.775 58.5361 132.858 58.6012C132.942 58.6663 132.996 58.76 133.011 58.8631L133.28 59.6216L133.459 60.0009C133.473 60.0444 133.5 60.0825 133.538 60.1089C133.576 60.1353 133.622 60.1487 133.669 60.1467C133.893 60.2062 134.131 60.2062 134.357 60.1467C134.398 60.0137 134.398 59.8714 134.357 59.7384C133.699 58.2212 133.1 56.5875 132.473 54.9538ZM129.484 57.8712C129.484 57.8712 129.484 57.8712 129.484 57.667C129.991 56.3542 130.47 55.0705 130.978 53.6993C131.211 54.1621 131.41 54.6397 131.576 55.1289C131.726 55.5665 131.905 56.0333 132.084 56.4708C132.275 56.9368 132.435 57.4144 132.562 57.9003C131.534 57.9257 130.505 57.8769 129.484 57.7545V57.8712Z" fill="#264ECA"/>
<path d="M101.052 59.5906L98.6605 52.8806C98.6718 52.7934 98.6718 52.7053 98.6605 52.6181C98.6452 52.5732 98.6175 52.5333 98.5807 52.5024C98.5438 52.4716 98.4991 52.4511 98.4513 52.443C98.1822 52.443 97.8833 52.443 97.644 52.443C97.405 52.443 97.4348 52.7932 97.3452 52.9973C96.538 55.1562 95.7605 57.2858 94.9533 59.4155C94.9533 59.6489 94.8038 59.8823 94.7142 60.1449C94.9314 60.1858 95.1547 60.1858 95.372 60.1449C95.4316 60.1381 95.4882 60.1155 95.5357 60.0794C95.5831 60.0435 95.6196 59.9955 95.641 59.9407V59.6781L95.91 58.9779C96.0895 58.4819 96.0895 58.4819 96.5678 58.4819H99.5575C99.6301 58.4838 99.7004 58.5071 99.7592 58.5489C99.8178 58.5905 99.8622 58.6486 99.8864 58.7154C99.8864 58.8612 99.8864 59.0363 100.036 59.1821C100.185 59.328 100.245 59.7073 100.335 59.9407C100.356 59.9955 100.393 60.0435 100.44 60.0794C100.488 60.1155 100.544 60.1381 100.604 60.1449C101.172 60.1449 101.351 60.1449 101.082 59.5615C101.082 59.6781 101.052 59.6197 101.052 59.5906ZM99.2585 57.811H96.538C96.2987 57.811 96.2688 57.811 96.3287 57.5484C96.3954 57.3301 96.4753 57.1158 96.5678 56.9066C96.9565 55.7981 97.375 54.7185 97.8235 53.5224C98.024 53.8288 98.1753 54.1634 98.272 54.5144L99.3183 57.4318V57.7234C99.3103 57.7589 99.289 57.7901 99.2585 57.811Z" fill="#264ECA"/>
<path d="M222.136 59.6216C221.418 57.6961 220.7 55.7999 220.013 53.7869L219.565 52.5908C219.557 52.5521 219.542 52.5152 219.52 52.4824C219.497 52.4495 219.47 52.4213 219.435 52.3996C219.402 52.3777 219.364 52.3627 219.325 52.3555C219.286 52.3482 219.245 52.3488 219.206 52.3574H218.966C218.966 52.3574 218.966 52.3574 218.787 52.3574C218.734 52.3446 218.678 52.343 218.624 52.3526C218.57 52.3622 218.519 52.3828 218.475 52.4132C218.429 52.4435 218.391 52.4828 218.362 52.5284C218.334 52.5742 218.316 52.6252 218.308 52.6783C218.308 52.6783 218.308 52.6783 218.308 52.8533L215.768 59.68C215.558 60.2051 215.588 60.2343 216.126 60.2343C216.664 60.2343 216.515 60.2342 216.575 59.9425C216.635 59.6508 216.844 59.2715 216.963 58.9215C216.978 58.8183 217.033 58.7246 217.117 58.6596C217.199 58.5945 217.306 58.5629 217.411 58.5714C218.448 58.5714 219.444 58.5714 220.401 58.5714C220.511 58.5595 220.622 58.5849 220.714 58.6433C220.807 58.7019 220.876 58.7898 220.91 58.8923C220.91 59.2715 221.179 59.6216 221.298 59.9717C221.319 60.0487 221.365 60.1167 221.43 60.1644C221.496 60.2122 221.576 60.2367 221.657 60.2343H221.896C222.195 60.2343 222.255 60.2342 222.165 59.8842C222.076 59.5341 222.165 59.7382 222.136 59.6216ZM220.431 57.842H217.442C217.442 57.842 217.442 57.6962 217.442 57.6378L218.877 53.7869C219.444 55.0537 219.943 56.3488 220.372 57.667C220.409 57.7184 220.429 57.7792 220.431 57.842Z" fill="#264ECA"/>
<path d="M237.741 53.2891H241.359C241.42 53.0893 241.42 52.8765 241.359 52.6765H241C239.725 52.6765 238.439 52.6765 237.143 52.6765C237.065 52.6622 236.983 52.6622 236.905 52.6765C236.725 52.6765 236.665 52.6765 236.636 52.91V60.2033C236.636 60.4659 236.636 60.495 236.994 60.5242H241.33C241.377 60.5242 241.423 60.5058 241.456 60.473C241.49 60.4401 241.509 60.3956 241.509 60.3492V59.9408C241.514 59.9166 241.514 59.8915 241.506 59.8677C241.5 59.8439 241.487 59.8222 241.468 59.8047C241.45 59.7871 241.429 59.7744 241.405 59.7675C241.379 59.7607 241.354 59.7601 241.33 59.7657H237.772C237.502 59.7657 237.472 59.7657 237.472 59.4448V57.1985C237.472 56.8776 237.472 56.8483 237.862 56.8192H240.402C240.821 56.8192 240.881 56.8192 240.881 56.3524C240.881 55.8856 240.881 55.9731 240.492 55.9731H240.074C239.357 55.9731 238.609 55.9731 237.891 55.9731C237.174 55.9731 237.472 55.9731 237.472 55.5939V53.8727C237.393 53.8378 237.331 53.7737 237.301 53.6944C237.27 53.615 237.273 53.527 237.308 53.4496C237.344 53.3722 237.41 53.3118 237.491 53.2818C237.572 53.2517 237.662 53.2543 237.741 53.2891Z" fill="#264ECA"/>
<path d="M121.891 53.3484C122.398 53.1292 122.962 53.0681 123.505 53.1734C124.131 53.2985 124.703 53.6033 125.15 54.0486C125.419 54.3112 125.479 54.3112 125.807 54.0486C126.017 54.0486 126.047 53.8152 125.807 53.6694C125.371 53.1324 124.791 52.7234 124.132 52.4866C123.473 52.2499 122.76 52.1948 122.07 52.3273C121.572 52.4099 121.097 52.5925 120.675 52.8637C120.253 53.1349 119.893 53.4887 119.619 53.9027C119.25 54.3965 118.999 54.9648 118.886 55.5656C118.772 56.1665 118.798 56.7845 118.961 57.3744C119.099 57.9791 119.383 58.5431 119.788 59.0198C120.194 59.4967 120.71 59.8726 121.293 60.1167C121.843 60.3702 122.451 60.4808 123.057 60.4377C124.014 60.3698 124.911 59.9533 125.568 59.2707C126.017 58.8038 126.017 58.7747 125.568 58.4829C125.517 58.4451 125.454 58.4246 125.389 58.4246C125.324 58.4246 125.261 58.4451 125.21 58.4829C125.122 58.5532 125.042 58.6313 124.97 58.7164C124.453 59.1856 123.781 59.4608 123.075 59.4928C122.369 59.5249 121.674 59.3117 121.114 58.8914C120.692 58.607 120.352 58.2214 120.127 57.7719C119.902 57.3223 119.799 56.8237 119.828 56.3241C119.824 55.683 120.02 55.0558 120.388 54.5247C120.756 53.9937 121.28 53.5837 121.891 53.3484Z" fill="#264ECA"/>
<path d="M185.66 58.5404L185.451 58.7446C185.168 59.0273 184.827 59.2508 184.452 59.4012C184.076 59.5517 183.674 59.626 183.268 59.6198C182.812 59.6075 182.364 59.4933 181.961 59.286C181.556 59.0786 181.206 58.7837 180.937 58.4237C180.511 57.8511 180.282 57.1619 180.282 56.4545C180.282 55.7472 180.511 55.058 180.937 54.4852C181.333 53.8758 181.945 53.4311 182.657 53.237C183.371 53.0431 184.131 53.1137 184.793 53.4351C185.138 53.6057 185.452 53.8326 185.72 54.106C185.9 54.3103 185.959 54.2811 186.198 54.106H186.467C186.467 54.106 186.617 53.9309 186.467 53.8143C186.113 53.3679 185.66 53.005 185.143 52.7524C184.626 52.5 184.056 52.3643 183.477 52.3556C182.91 52.3361 182.344 52.4443 181.826 52.672C181.307 52.8996 180.85 53.2405 180.487 53.6684C180.109 54.0962 179.822 54.5936 179.645 55.1311C179.467 55.6688 179.401 56.2359 179.451 56.7987C179.501 57.3617 179.666 57.909 179.937 58.4086C180.207 58.9082 180.577 59.3497 181.027 59.7074C181.741 60.2764 182.646 60.5673 183.567 60.5243C184.385 60.4929 185.171 60.2066 185.81 59.7074C186.109 59.4835 186.363 59.2064 186.557 58.8904C186.388 58.7514 186.197 58.6427 185.989 58.5697C185.972 58.5435 185.949 58.5215 185.921 58.5054C185.895 58.4893 185.863 58.4794 185.833 58.4767C185.801 58.4738 185.768 58.478 185.739 58.4892C185.708 58.5002 185.681 58.5177 185.66 58.5404Z" fill="#264ECA"/>
<path d="M214.78 52.8521H214.542C214.485 52.8529 214.429 52.8699 214.381 52.9009C214.334 52.932 214.296 52.9758 214.273 53.027C214.256 53.1334 214.256 53.2417 214.273 53.3479C213.735 54.7483 213.226 56.1195 212.718 57.5198C212.478 58.1616 212.209 58.8034 211.971 59.5037C211.816 59.3642 211.712 59.1801 211.671 58.9785C211.104 57.4615 210.536 56.061 209.997 54.4566C209.819 54.0189 209.669 53.5522 209.489 53.1146C209.482 53.0563 209.459 53.0011 209.423 52.9547C209.386 52.9085 209.336 52.8729 209.28 52.8521H208.681V53.027" fill="#264ECA"/>
<path d="M214.78 52.8521H214.542C214.485 52.8529 214.429 52.8699 214.381 52.9009C214.334 52.932 214.296 52.9758 214.273 53.027C214.256 53.1334 214.256 53.2417 214.273 53.3479C213.735 54.7483 213.226 56.1195 212.718 57.5198C212.478 58.1616 212.209 58.8034 211.971 59.5037C211.816 59.3642 211.712 59.1801 211.671 58.9785C211.104 57.4615 210.536 56.061 209.997 54.4566C209.819 54.0189 209.669 53.5522 209.489 53.1146C209.482 53.0563 209.459 53.0011 209.423 52.9547C209.386 52.9085 209.336 52.8729 209.28 52.8521H208.681V53.027" stroke="white" stroke-width="0.3"/>
<path d="M107.63 52.6472C107.623 52.5906 107.594 52.5385 107.55 52.5008C107.506 52.4631 107.449 52.4426 107.391 52.443H103.145C102.936 52.443 102.906 52.443 102.876 52.7348V59.6489C102.861 59.8041 102.861 59.9605 102.876 60.1157C102.857 60.1409 102.846 60.1717 102.846 60.2033C102.846 60.2348 102.857 60.2655 102.876 60.2907C103.061 60.3487 103.26 60.3487 103.444 60.2907C103.487 60.2838 103.525 60.2623 103.552 60.2302C103.58 60.1981 103.594 60.1575 103.594 60.1157V57.1984C103.579 57.0528 103.579 56.9063 103.594 56.7608C103.594 56.5857 103.594 56.5273 103.863 56.4982H106.404C106.882 56.4982 106.942 56.4982 106.912 55.973C106.882 55.4479 106.912 55.6521 106.554 55.6521C106.195 55.6521 105.298 55.6521 104.67 55.6521H103.893C103.654 55.6521 103.594 55.6521 103.594 55.3312C103.594 55.0103 103.594 54.4269 103.594 53.96C103.579 53.8244 103.579 53.6873 103.594 53.5517C103.594 53.3766 103.594 53.3182 103.833 53.2891H106.823C107.45 53.2891 107.391 53.289 107.391 52.7056L107.63 52.6472Z" fill="#264ECA"/>
<path d="M248.537 52.4435C248.457 52.4303 248.377 52.4433 248.306 52.4803C248.236 52.5174 248.18 52.5763 248.147 52.6477C248.061 52.7325 247.991 52.8312 247.938 52.9393L246.383 55.4484C246.383 55.4484 246.383 55.6817 246.085 55.7109L245.069 54.0772L244.231 52.7644C244.231 52.7644 244.081 52.5601 243.962 52.5601C243.843 52.5601 243.454 52.5601 243.214 52.5601C242.976 52.5601 243.393 52.9393 243.484 53.1436V53.2895L245.547 56.5278C245.604 56.6984 245.604 56.8823 245.547 57.0529V59.9703C245.547 60.1745 245.547 60.2328 245.845 60.262C246.145 60.2912 246.443 60.262 246.443 59.6785V57.1403C246.438 56.8548 246.51 56.5728 246.652 56.3235L248.895 53.1436C248.895 52.9686 249.223 52.7935 249.135 52.6477C249.044 52.5017 248.746 52.4726 248.537 52.4435Z" fill="#264ECA"/>
<path d="M145.001 52.4154C143.267 52.4154 141.533 52.4154 139.8 52.4154C139.26 52.4154 139.112 52.6196 139.26 53.1448C139.41 53.6699 139.26 53.1448 139.41 53.2906H141.712C141.862 53.2906 141.952 53.2906 141.952 53.524V59.6213C141.935 59.7765 141.935 59.9329 141.952 60.0882V60.234C142.056 60.2773 142.168 60.2997 142.28 60.2997C142.393 60.2997 142.505 60.2773 142.609 60.234V53.8157C142.609 53.4657 142.609 53.4073 143.028 53.4073H145.03C145.299 53.4073 145.359 53.4073 145.359 53.1156C145.359 52.8239 145.539 52.4154 145.001 52.4154Z" fill="#264ECA"/>
<path d="M234.574 59.4747H231.853C231.136 59.4747 231.165 59.4747 231.165 58.8037V52.969C231.165 52.4146 231.165 52.4146 230.567 52.4439C229.97 52.473 230.327 52.4439 230.298 52.6772V60.0874C230.298 60.0874 230.298 60.2623 230.537 60.2916H234.395C234.812 60.2916 234.843 60.2916 234.843 59.8247C234.843 59.5331 234.783 59.5038 234.574 59.4747Z" fill="#264ECA"/>
<path d="M228.354 59.504H225.574C224.857 59.504 224.886 59.504 224.886 58.8622V52.765C224.886 52.765 224.886 52.5023 224.886 52.4732C224.777 52.4291 224.66 52.4064 224.542 52.4064C224.424 52.4064 224.307 52.4291 224.198 52.4732V59.9417C224.193 59.9696 224.195 59.9984 224.203 60.0256C224.212 60.0528 224.227 60.0775 224.247 60.0976C224.269 60.1177 224.294 60.1326 224.322 60.141C224.349 60.1494 224.379 60.1512 224.407 60.1458H228.563C228.615 60.0518 228.643 59.9466 228.643 59.8396C228.643 59.7325 228.615 59.6273 228.563 59.5333C228.563 59.5333 228.384 59.504 228.354 59.504Z" fill="#264ECA"/>
<path d="M174.541 59.504H171.76C171.042 59.504 171.072 59.504 171.072 58.8622V52.765C171.072 52.765 171.072 52.5023 171.072 52.4732C170.963 52.4291 170.846 52.4064 170.728 52.4064C170.61 52.4064 170.494 52.4291 170.385 52.4732V59.9417C170.379 59.9696 170.381 59.9984 170.39 60.0256C170.398 60.0528 170.414 60.0775 170.434 60.0976C170.454 60.1177 170.48 60.1326 170.508 60.141C170.536 60.1494 170.565 60.1512 170.594 60.1458H174.75C174.802 60.0518 174.83 59.9466 174.83 59.8396C174.83 59.7325 174.802 59.6273 174.75 59.5333C174.75 59.5333 174.57 59.504 174.541 59.504Z" fill="#264ECA"/>
<path d="M167.662 52.4154C167.424 52.4154 167.393 52.4154 167.364 52.678V59.6213C167.349 59.7669 167.349 59.9134 167.364 60.0589V60.2048C167.468 60.2481 167.58 60.2704 167.693 60.2704C167.806 60.2704 167.918 60.2481 168.022 60.2048C168.022 60.2048 168.022 60.2048 168.022 60.0589C168.036 59.972 168.036 59.8833 168.022 59.7964V52.8821C168.141 52.4445 168.112 52.4154 167.662 52.4154Z" fill="#264ECA"/>
<path d="M177.529 52.7056C177.529 52.5014 177.529 52.443 177.23 52.443C176.931 52.443 176.692 52.443 176.692 52.939V59.7656C176.675 59.872 176.675 59.9802 176.692 60.0865V60.2324C176.796 60.2757 176.907 60.298 177.02 60.298C177.135 60.298 177.246 60.2757 177.35 60.2324C177.35 60.2324 177.35 60.2324 177.35 60.0865C177.364 59.941 177.364 59.7945 177.35 59.6489V52.7056H177.529Z" fill="#264ECA"/>
<path d="M116.599 52.4154C116.419 52.4154 116.36 52.4154 116.36 52.6488V59.7964C116.36 60.234 116.36 60.2631 116.808 60.2631C116.879 60.2631 116.948 60.2355 116.998 60.1862C117.049 60.137 117.077 60.0702 117.077 60.0006V52.8821C117.197 52.4445 117.137 52.4154 116.599 52.4154Z" fill="#264ECA"/>
<path d="M202.725 52.4313C202.666 52.4383 202.613 52.4661 202.575 52.5091C202.536 52.5522 202.515 52.6075 202.515 52.6646C202.5 52.8197 202.5 52.9761 202.515 53.1314V58.5577L202.127 58.266C201.02 56.6905 199.914 55.0277 198.838 53.3647L198.33 52.6354C198.036 52.4556 197.687 52.3831 197.343 52.4313C197.315 52.6345 197.315 52.8406 197.343 53.0438V60.0455C197.343 60.2206 197.343 60.279 197.612 60.279C197.881 60.279 198.18 60.279 198.18 59.7538V54.3275L199.496 56.2529L201.977 60.0455C202.032 60.1372 202.11 60.2128 202.204 60.2642C202.3 60.3155 202.407 60.3408 202.515 60.3372C203.322 60.3081 203.322 60.3081 203.322 59.7538V52.9563C203.322 52.4313 203.322 52.4313 202.725 52.4313Z" fill="#264ECA"/>
</g>
<defs>
<clipPath id="clip0_12595_9901">
<rect width="250" height="62" fill="white" transform="translate(0 0.625488)"/>
</clipPath>
</defs>
</svg>
