<svg width="223" height="58" viewBox="0 0 223 58" fill="none" xmlns="http://www.w3.org/2000/svg">
<path d="M83.3427 44.2188C80.1486 44.2188 77.6551 43.3083 75.8619 41.4873C74.0672 39.668 73.1697 37.1088 73.1697 33.8096C73.1697 31.9492 73.5101 30.2341 74.191 28.6665C74.8719 27.0948 75.9192 25.8243 77.3334 24.8523C78.7476 23.8844 80.4889 23.4004 82.5577 23.4004C84.4951 23.4004 86.1709 23.8515 87.5851 24.7538C88.9994 25.6577 90.0705 26.8628 90.8088 28.3712C91.547 29.8797 91.9088 31.5203 91.9088 33.3002C91.9088 33.7973 91.7456 34.2164 91.4166 34.5552C91.0876 34.8941 90.6496 35.0646 90.1001 35.0646H76.7871C76.9956 36.8986 77.6762 38.3259 78.8296 39.3464C79.9812 40.3684 81.5914 40.8795 83.6602 40.8795C84.7594 40.8795 85.7216 40.7744 86.5467 40.5645C87.3718 40.3546 88.1775 40.0534 88.9632 39.6614C89.1731 39.5563 89.4061 39.5039 89.6694 39.5039C90.0895 39.5039 90.4562 39.6483 90.7694 39.937C91.0844 40.2242 91.2419 40.5908 91.2419 41.037C91.2419 41.6128 90.9016 42.0968 90.2207 42.4888C89.1987 43.0647 88.1905 43.497 87.1939 43.7857C86.1972 44.0743 84.9144 44.2188 83.3427 44.2188ZM76.7847 32.1609H88.3701C88.2931 30.878 87.9592 29.8042 87.3686 28.9372C86.7797 28.0742 86.0538 27.4393 85.1908 27.0325C84.3263 26.6273 83.4485 26.4247 82.5577 26.4247C81.6669 26.4247 80.7901 26.6273 79.9246 27.0325C79.0602 27.4393 78.3399 28.0742 77.7641 28.9372C77.1882 29.8017 76.8609 30.8756 76.7797 32.1609H76.7847ZM103.101 44.2188C100.482 44.2188 98.0994 43.6289 95.9519 42.447C95.5057 42.1338 95.2825 41.7021 95.2825 41.1526C95.2825 40.7326 95.427 40.3659 95.7156 40.0527C96.0028 39.7377 96.3695 39.5802 96.8156 39.5802C97.0501 39.5802 97.2832 39.6326 97.5219 39.7377C98.3603 40.1036 99.1984 40.3915 100.037 40.5989C100.873 40.8089 101.816 40.9139 102.867 40.9139C105.774 40.9139 107.227 39.9845 107.227 38.1258C107.227 37.5222 106.893 37.0635 106.226 36.7478C105.558 36.4321 104.465 36.0792 102.945 35.6897C101.4 35.3223 100.124 34.9423 99.1165 34.5503C98.1075 34.1583 97.2431 33.5628 96.5228 32.7638C95.8025 31.9647 95.44 30.9108 95.44 29.6016C95.44 27.7676 96.1012 26.2746 97.4234 25.123C98.7456 23.9713 100.638 23.3955 103.101 23.3955C105.117 23.3955 107.015 23.7228 108.795 24.3798C109.162 24.4849 109.444 24.6808 109.639 24.9704C109.836 25.259 109.934 25.5602 109.934 25.8735C109.934 26.2936 109.787 26.6602 109.484 26.9735C109.182 27.2885 108.809 27.446 108.364 27.446C108.233 27.446 108.062 27.4196 107.852 27.3672C106.333 26.8965 104.84 26.661 103.374 26.661C101.961 26.661 100.856 26.9162 100.056 27.4238C99.2575 27.9315 98.8581 28.5952 98.8581 29.4072C98.8581 30.193 99.2272 30.7688 99.9581 31.1347C100.691 31.5021 101.83 31.8557 103.374 32.1929C104.919 32.5866 106.179 32.9729 107.146 33.3494C108.114 33.7301 108.942 34.3256 109.639 35.136C110.333 35.948 110.68 37.035 110.68 38.3965C110.68 40.0731 110.019 41.461 108.696 42.5602C107.374 43.6609 105.509 44.209 103.101 44.209V44.2188ZM117.239 44.0219C116.742 44.0219 116.323 43.8514 115.984 43.5101C115.643 43.1705 115.472 42.7522 115.472 42.2551V16.7612C115.472 16.2641 115.643 15.8384 115.984 15.4815C116.323 15.1289 116.742 14.9525 117.239 14.9525C117.477 14.9487 117.713 14.9937 117.932 15.0847C118.152 15.1757 118.351 15.3108 118.516 15.4815C118.687 15.6471 118.823 15.8461 118.914 16.0662C119.006 16.2863 119.051 16.5229 119.048 16.7612V32.8302L128.394 24.1879C128.787 23.8465 129.18 23.676 129.575 23.676C130.177 23.676 130.616 23.8465 130.891 24.1879C131.167 24.5292 131.305 24.9352 131.305 25.406C131.305 25.8506 131.082 26.296 130.635 26.7422L124.98 31.8114L132.092 41.2363C132.355 41.5759 132.486 41.9285 132.486 42.2944C132.486 42.8193 132.315 43.2387 131.974 43.5494C131.635 43.8644 131.202 44.0219 130.677 44.0219C130.416 44.0219 130.155 43.9562 129.89 43.8251C129.625 43.6939 129.405 43.5108 129.225 43.2763L122.468 34.0827L119.052 37.1834V42.2526C119.052 42.7497 118.875 43.168 118.521 43.5076C118.168 43.8489 117.743 44.0195 117.241 44.0195L117.239 44.0219ZM141.592 44.2188C140.44 44.2188 139.373 43.9826 138.393 43.5101C137.412 43.0393 136.632 42.3518 136.055 41.4479C135.479 40.5456 135.194 39.5046 135.194 38.3227C135.194 36.3853 135.96 34.8407 137.492 33.689C139.024 32.5356 141.27 31.9591 144.23 31.9591H148.979V31.6466C148.979 29.9173 148.553 28.6732 147.699 27.9135C146.845 27.1539 145.519 26.7742 143.713 26.7742C142.717 26.7742 141.834 26.8529 141.063 27.0104C140.29 27.1679 139.432 27.4041 138.489 27.7191C138.279 27.7715 138.109 27.7979 137.979 27.7979C137.585 27.7979 137.245 27.6534 136.958 27.3648C136.669 27.0761 136.525 26.7249 136.525 26.3066C136.525 25.5996 136.865 25.1016 137.546 24.8129C139.772 23.8712 142.037 23.4004 144.338 23.4004C146.146 23.4004 147.672 23.7695 148.915 24.5004C150.158 25.2312 151.075 26.1828 151.664 27.3475C152.253 28.5122 152.55 29.7756 152.55 31.1372V42.2551C152.55 42.7522 152.373 43.1705 152.021 43.5101C151.852 43.6761 151.653 43.807 151.434 43.8948C151.214 43.9827 150.98 44.0259 150.743 44.0219C150.246 44.0219 149.827 43.8514 149.488 43.5101C149.149 43.1705 148.979 42.7522 148.979 42.2551V41.2363C147.042 43.2263 144.58 44.2213 141.597 44.2213L141.592 44.2188ZM142.928 41.0763C144.08 41.0763 145.193 40.7941 146.267 40.2298C147.34 39.667 148.243 38.9674 148.974 38.1308V34.8333H144.692C140.739 34.8333 138.762 35.8676 138.762 37.9339C138.762 38.8757 139.083 39.6319 139.721 40.2101C140.363 40.7877 141.43 41.0763 142.921 41.0763H142.928ZM160.327 44.0219C159.829 44.0219 159.411 43.8514 159.072 43.5101C158.73 43.1705 158.56 42.7522 158.56 42.2551V16.7612C158.556 16.5249 158.599 16.2903 158.687 16.0709C158.775 15.8516 158.905 15.6521 159.072 15.484C159.411 15.1314 159.829 14.9549 160.327 14.9549C160.851 14.9549 161.286 15.1272 161.623 15.4643C161.965 15.8056 162.135 16.2377 162.135 16.7612V42.2551C162.135 42.7522 161.958 43.1705 161.604 43.5101C161.251 43.8514 160.825 44.0219 160.324 44.0219H160.327ZM173.446 44.2188C172.294 44.2188 171.227 43.9826 170.247 43.5101C169.266 43.0393 168.487 42.3518 167.909 41.4479C167.333 40.5456 167.048 39.5046 167.048 38.3227C167.048 36.3853 167.814 34.8407 169.346 33.689C170.878 32.5356 173.124 31.9591 176.084 31.9591H180.833V31.6466C180.833 29.9173 180.408 28.6732 179.554 27.9135C178.7 27.1539 177.374 26.7742 175.567 26.7742C174.571 26.7742 173.688 26.8529 172.917 27.0104C172.144 27.1679 171.286 27.4041 170.343 27.7191C170.133 27.7715 169.963 27.7979 169.834 27.7979C169.44 27.7979 169.099 27.6534 168.812 27.3648C168.523 27.0761 168.379 26.7249 168.379 26.3066C168.379 25.5996 168.72 25.1016 169.4 24.8129C171.627 23.8712 173.891 23.4004 176.192 23.4004C178 23.4004 179.526 23.7695 180.769 24.5004C182.013 25.2312 182.929 26.1828 183.518 27.3475C184.107 28.5122 184.404 29.7756 184.404 31.1372V42.2551C184.404 42.7522 184.228 43.1705 183.875 43.5101C183.707 43.6761 183.507 43.807 183.288 43.8948C183.069 43.9827 182.834 44.0259 182.598 44.0219C182.101 44.0219 181.681 43.8514 181.343 43.5101C181.003 43.1705 180.833 42.7522 180.833 42.2551V41.2363C178.896 43.2263 176.434 44.2213 173.451 44.2213L173.446 44.2188ZM174.782 41.0763C175.934 41.0763 177.047 40.7941 178.122 40.2298C179.195 39.667 180.098 38.9674 180.828 38.1308V34.8333H176.547C172.593 34.8333 170.616 35.8676 170.616 37.9339C170.616 38.8757 170.937 39.6319 171.576 40.2101C172.217 40.7877 173.284 41.0763 174.775 41.0763H174.782ZM196.855 44.2188C193.033 44.2188 191.121 42.4906 191.121 39.0339V26.8529H188.333C188.123 26.8529 187.946 26.7791 187.802 26.6388C187.657 26.4944 187.585 26.3172 187.585 26.1073C187.585 25.8464 187.703 25.6242 187.939 25.4429L193.279 20.2186C193.514 19.9823 193.736 19.8642 193.944 19.8642C194.044 19.863 194.144 19.8834 194.235 19.9242C194.327 19.965 194.409 20.0251 194.475 20.1005C194.618 20.258 194.689 20.4408 194.689 20.6492V23.7917H199.129C199.573 23.7917 199.94 23.9361 200.229 24.2248C200.517 24.5134 200.662 24.8801 200.662 25.3248C200.665 25.5245 200.628 25.7229 200.554 25.9083C200.479 26.0938 200.369 26.2626 200.229 26.405C199.94 26.7053 199.573 26.8554 199.129 26.8554H194.689V38.7164C194.689 39.7369 194.932 40.3849 195.418 40.6605C195.902 40.9361 196.51 41.0739 197.244 41.0739C197.776 41.0726 198.305 40.993 198.814 40.8377L199.148 40.7589C199.267 40.7326 199.417 40.7195 199.601 40.7195C199.967 40.7195 200.294 40.8573 200.586 41.1329C200.873 41.4068 201.016 41.7408 201.016 42.1345C201.016 42.7366 200.715 43.1944 200.113 43.5076C199.093 43.9801 198.006 44.2163 196.852 44.2163L196.855 44.2188ZM213.627 44.2188C210.432 44.2188 207.939 43.3083 206.146 41.4873C204.351 39.668 203.454 37.1088 203.454 33.8096C203.454 31.9492 203.794 30.2341 204.475 28.6665C205.156 27.0948 206.203 25.8243 207.617 24.8523C209.031 23.8844 210.773 23.4004 212.842 23.4004C214.779 23.4004 216.455 23.8515 217.869 24.7538C219.283 25.6577 220.354 26.8628 221.093 28.3712C221.831 29.8797 222.193 31.5203 222.193 33.3002C222.193 33.7973 222.029 34.2164 221.7 34.5552C221.371 34.8941 220.933 35.0646 220.384 35.0646H207.071C207.279 36.8986 207.96 38.3259 209.113 39.3464C210.265 40.3684 211.875 40.8795 213.944 40.8795C215.043 40.8795 216.005 40.7744 216.831 40.5645C217.656 40.3546 218.461 40.0534 219.247 39.6614C219.457 39.5563 219.69 39.5039 219.953 39.5039C220.373 39.5039 220.74 39.6483 221.053 39.937C221.368 40.2242 221.526 40.5908 221.526 41.037C221.526 41.6128 221.185 42.0968 220.505 42.4888C219.483 43.0647 218.474 43.497 217.478 43.7857C216.481 44.0743 215.198 44.2188 213.627 44.2188ZM207.069 32.1609H218.654C218.577 30.878 218.243 29.8042 217.652 28.9372C217.064 28.0742 216.338 27.4393 215.475 27.0325C214.61 26.6273 213.732 26.4247 212.842 26.4247C211.951 26.4247 211.074 26.6273 210.208 27.0325C209.344 27.4393 208.624 28.0742 208.048 28.9372C207.472 29.8017 207.145 30.8756 207.064 32.1609H207.069ZM55.9884 27.6281L55.9392 27.7634C55.9392 27.7634 54.9253 35.9579 47.4691 42.9589L47.0262 43.3526H47.0458C45.3134 44.9767 43.1086 46.687 40.5665 48.284C46.0935 47.2111 52.4276 45.1244 56.7045 41.8687C59.1825 37.6706 60.4744 33.1821 60.2628 29.1415C60.2382 28.6739 60.1964 28.2629 60.1447 27.8963C59.1358 27.195 57.8439 26.7791 55.9909 27.6256L55.9884 27.6281ZM36.6071 55.9027C33.7944 55.9765 30.7996 55.253 27.9352 53.8725C24.6697 54.751 21.2468 55.2358 17.7967 55.1275C18.7638 55.5582 19.7801 55.9396 20.8555 56.2546C36.4742 60.8464 49.7084 52.8488 56.1287 42.8088C55.6906 43.4806 55.0041 44.4747 54.037 45.6977C53.2175 46.7313 45.9163 55.6492 36.6071 55.9027ZM48.0449 24.7415C46.9769 29.1784 43.4137 38.5393 32.6329 39.0757C34.5892 39.5999 36.6932 39.5876 38.6865 39.0462C41.1227 38.3818 50.6066 35.4731 52.7672 24.931C53.0625 23.2946 54.5833 12.2333 42.481 6.54883C46.3937 11.4557 49.5239 18.6068 48.0425 24.7415H48.0449ZM11.9843 21.0159C12.4961 18.2106 13.4017 15.4126 14.6321 12.8091C12.4912 14.9131 10.776 17.1155 9.62684 19.0399C8.06916 21.6483 6.91996 24.3749 6.17188 27.1162C7.7714 25.1303 9.74004 23.0067 11.9843 21.0134V21.0159Z" fill="#1C9DD7"/>
<path opacity="0.6" d="M38.7561 5.11919C40.1243 5.54245 41.3645 6.0223 42.4842 6.54645C40.3433 3.86418 37.9686 1.84632 35.9803 1.04656C26.8458 -2.63972 18.8383 3.91832 14.6328 12.8043C20.3911 7.14443 29.2697 2.18345 38.7561 5.11673V5.11919Z" fill="url(#paint0_linear_11593_9769)"/>
<path d="M32.5961 12.8385L32.8422 12.8533C33.6001 12.9271 34.3236 13.0698 35.0126 13.2667C35.015 13.2667 35.0175 13.2667 35.02 13.2692C41.578 15.1467 44.937 22.1773 43.116 27.5664C41.8758 31.2256 37.8425 34.1368 35.4014 35.0669C33.8831 35.6477 32.2442 35.7461 30.9793 34.7864C28.2134 32.6849 30.7086 30.0863 31.5945 29.1216C32.756 27.8568 34.9486 25.5289 34.0455 23.5036C32.9996 21.156 29.6357 20.6565 27.2783 23.2157C24.9208 25.775 23.6855 29.065 26.0479 33.7184C27.4997 36.5828 29.9236 38.3447 32.633 39.0707C43.4162 38.5342 46.9795 29.1709 48.045 24.7365C49.5215 18.6017 46.3963 11.4482 42.4836 6.54378C41.3615 6.01717 40.1212 5.53485 38.7555 5.11651C29.2666 2.18324 20.3905 7.14667 14.6322 12.8065C13.4018 15.41 12.4913 18.208 11.9844 21.0133C17.5458 16.0671 24.8298 11.9502 32.5961 12.8385Z" fill="#1C9DD7"/>
<path opacity="0.6" d="M32.5961 12.8385L32.8422 12.8533C33.6001 12.9271 34.3236 13.0698 35.0126 13.2667C35.015 13.2667 35.0175 13.2667 35.02 13.2692C41.578 15.1467 44.937 22.1773 43.116 27.5664C41.8758 31.2256 37.8425 34.1368 35.4014 35.0669C33.8831 35.6477 32.2442 35.7461 30.9793 34.7864C28.2134 32.6849 30.7086 30.0863 31.5945 29.1216C32.756 27.8568 34.9486 25.5289 34.0455 23.5036C32.9996 21.156 29.6357 20.6565 27.2783 23.2157C24.9208 25.775 23.6855 29.065 26.0479 33.7184C27.4997 36.5828 29.9236 38.3447 32.633 39.0707C43.4162 38.5342 46.9795 29.1709 48.045 24.7365C49.5215 18.6017 46.3963 11.4482 42.4836 6.54378C41.3615 6.01717 40.1212 5.53485 38.7555 5.11651C29.2666 2.18324 20.3905 7.14667 14.6322 12.8065C13.4018 15.41 12.4913 18.208 11.9844 21.0133C17.5458 16.0671 24.8298 11.9502 32.5961 12.8385Z" fill="url(#paint1_linear_11593_9769)"/>
<path opacity="0.52" d="M6.17066 27.1113C4.1651 29.5967 2.72553 31.8533 2.0119 33.347C0.328709 36.8856 -4.74055 50.6366 12.4605 54.4705C14.2323 54.8643 16.0163 55.0734 17.7906 55.13C6.93843 50.2945 3.02575 38.5737 6.1682 27.1138L6.17066 27.1113Z" fill="#1C75BC"/>
<path d="M33.2426 49.1549L32.8242 49.1426L33.0998 49.1598L33.2475 49.1549H33.2426Z" fill="#1C9DD7"/>
<path opacity="0.52" d="M33.2426 49.1549L32.8242 49.1426L33.0998 49.1598L33.2475 49.1549H33.2426Z" fill="#1C75BC"/>
<path d="M40.5647 48.2869C43.1092 46.6874 45.3141 44.9821 47.044 43.3555H47.0244C43.3676 46.6529 39.5287 48.4542 35.8203 48.9907C37.2722 48.848 38.8816 48.6167 40.5647 48.2894V48.2869Z" fill="#1C9DD7"/>
<path opacity="0.52" d="M40.5647 48.2869C43.1092 46.6874 45.3141 44.9821 47.044 43.3555H47.0244C43.3676 46.6529 39.5287 48.4542 35.8203 48.9907C37.2722 48.848 38.8816 48.6167 40.5647 48.2894V48.2869Z" fill="#1C75BC"/>
<path d="M14.4451 36.7426C12.7693 33.9275 11.5733 30.5463 11.4995 26.5943C11.4675 24.7733 11.6373 22.8957 11.9794 21.0156C9.73512 23.0089 7.7714 25.1325 6.16696 27.1184C3.02697 38.5784 6.93965 50.2992 17.7893 55.1347C21.2418 55.2429 24.6648 54.7581 27.9278 53.8796C21.6356 50.843 16.0077 44.627 14.4426 36.7475L14.4451 36.7426Z" fill="#1C9DD7"/>
<path opacity="0.52" d="M14.4451 36.7426C12.7693 33.9275 11.5733 30.5463 11.4995 26.5943C11.4675 24.7733 11.6373 22.8957 11.9794 21.0156C9.73512 23.0089 7.7714 25.1325 6.16696 27.1184C3.02697 38.5784 6.93965 50.2992 17.7893 55.1347C21.2418 55.2429 24.6648 54.7581 27.9278 53.8796C21.6356 50.843 16.0077 44.627 14.4426 36.7475L14.4451 36.7426Z" fill="#1C75BC"/>
<path d="M27.9677 13.188C27.9677 13.188 27.6428 13.2544 27.1015 13.434C28.765 12.9246 30.6032 12.681 32.594 12.8434C24.8252 11.9576 17.5437 16.072 11.9798 21.0133C11.6353 22.8909 11.468 24.771 11.5 26.5919C11.5689 30.5465 12.7697 33.9251 14.4455 36.7428L14.2905 35.9061C11.2047 16.5051 27.9677 13.188 27.9677 13.188Z" fill="#1C9DD7"/>
<path opacity="0.6" d="M27.9677 13.188C27.9677 13.188 27.6428 13.2544 27.1015 13.434C28.765 12.9246 30.6032 12.681 32.594 12.8434C24.8252 11.9576 17.5437 16.072 11.9798 21.0133C11.6353 22.8909 11.468 24.771 11.5 26.5919C11.5689 30.5465 12.7697 33.9251 14.4455 36.7428L14.2905 35.9061C11.2047 16.5051 27.9677 13.188 27.9677 13.188Z" fill="url(#paint2_linear_11593_9769)"/>
<path opacity="0.52" d="M27.9677 13.188C27.9677 13.188 27.6428 13.2544 27.1015 13.434C28.765 12.9246 30.6032 12.681 32.594 12.8434C24.8252 11.9576 17.5437 16.072 11.9798 21.0133C11.6353 22.8909 11.468 24.771 11.5 26.5919C11.5689 30.5465 12.7697 33.9251 14.4455 36.7428L14.2905 35.9061C11.2047 16.5051 27.9677 13.188 27.9677 13.188Z" fill="#1C75BC"/>
<path d="M35.0239 13.2693C35.0211 13.2693 35.0184 13.2693 35.0156 13.2666C35.0184 13.2693 35.0211 13.2693 35.0239 13.2693Z" fill="#1C9DD7"/>
<path opacity="0.6" d="M35.0239 13.2693C35.0211 13.2693 35.0184 13.2693 35.0156 13.2666C35.0184 13.2693 35.0211 13.2693 35.0239 13.2693Z" fill="url(#paint3_linear_11593_9769)"/>
<path opacity="0.52" d="M35.0239 13.2693C35.0211 13.2693 35.0184 13.2693 35.0156 13.2666C35.0184 13.2693 35.0211 13.2693 35.0239 13.2693Z" fill="#1C75BC"/>
<path opacity="0.24" d="M56.7043 41.8682C56.7018 41.8682 56.7018 41.8706 56.6994 41.8706L56.1211 42.8106L56.7043 41.8682Z" fill="#262262"/>
<path d="M27.9336 53.8749C30.7955 55.2529 33.7903 55.9813 36.6055 55.9051C45.9122 55.654 53.2159 46.7361 54.0329 45.7001C54.9975 44.4795 55.6865 43.4854 56.1246 42.8111C56.3229 42.5012 56.5157 42.1878 56.7029 41.8711C52.4211 45.1267 46.0919 47.211 40.5649 48.2864C36.9278 50.57 32.5919 52.6223 27.9361 53.8724L27.9336 53.8749Z" fill="#1C9DD7"/>
<path opacity="0.24" d="M27.9336 53.8749C30.7955 55.2529 33.7903 55.9813 36.6055 55.9051C45.9122 55.654 53.2159 46.7361 54.0329 45.7001C54.9975 44.4795 55.6865 43.4854 56.1246 42.8111C56.3229 42.5012 56.5157 42.1878 56.7029 41.8711C52.4211 45.1267 46.0919 47.211 40.5649 48.2864C36.9278 50.57 32.5919 52.6223 27.9361 53.8724L27.9336 53.8749Z" fill="#262262"/>
<path d="M33.2409 49.1549L33.0933 49.1599C32.9998 49.1623 32.9087 49.15 32.8177 49.1426C30.3249 49.0516 27.9379 48.3946 25.7552 47.2478L25.7527 47.2527C25.7527 47.2527 18.6164 43.7633 14.4453 36.7451C16.0104 44.6271 21.6382 50.8406 27.9305 53.8723C32.5864 52.6173 36.9223 50.5674 40.5594 48.2863C38.8762 48.6136 37.2693 48.8449 35.8149 48.9876C34.9607 49.108 34.0986 49.1632 33.236 49.1525L33.2409 49.1549Z" fill="#1C9DD7"/>
<path opacity="0.52" d="M33.2409 49.1549L33.0933 49.1599C32.9998 49.1623 32.9087 49.15 32.8177 49.1426C30.3249 49.0516 27.9379 48.3946 25.7552 47.2478L25.7527 47.2527C25.7527 47.2527 18.6164 43.7633 14.4453 36.7451C16.0104 44.6271 21.6382 50.8406 27.9305 53.8723C32.5864 52.6173 36.9223 50.5674 40.5594 48.2863C38.8762 48.6136 37.2693 48.8449 35.8149 48.9876C34.9607 49.108 34.0986 49.1632 33.236 49.1525L33.2409 49.1549Z" fill="#1C75BC"/>
<path opacity="0.24" d="M33.2409 49.1549L33.0933 49.1599C32.9998 49.1623 32.9087 49.15 32.8177 49.1426C30.3249 49.0516 27.9379 48.3946 25.7552 47.2478L25.7527 47.2527C25.7527 47.2527 18.6164 43.7633 14.4453 36.7451C16.0104 44.6271 21.6382 50.8406 27.9305 53.8723C32.5864 52.6173 36.9223 50.5674 40.5594 48.2863C38.8762 48.6136 37.2693 48.8449 35.8149 48.9876C34.9607 49.108 34.0986 49.1632 33.236 49.1525L33.2409 49.1549Z" fill="#262262"/>
<path d="M25.7561 47.2509L25.7585 47.246C21.5407 45.0313 18.0882 41.003 16.1417 35.7221C14.9236 32.4123 13.425 25.965 18.413 19.5497C20.0864 17.3965 23.0886 14.6527 27.1046 13.4297C27.646 13.2525 27.9708 13.1836 27.9708 13.1836C27.9708 13.1836 11.2053 16.5057 14.2887 35.9017C14.333 36.1847 14.3871 36.4628 14.4437 36.7384C18.6173 43.7566 25.7536 47.246 25.7536 47.246L25.7561 47.2509Z" fill="#1C9DD7"/>
<path opacity="0.6" d="M25.7561 47.2509L25.7585 47.246C21.5407 45.0313 18.0882 41.003 16.1417 35.7221C14.9236 32.4123 13.425 25.965 18.413 19.5497C20.0864 17.3965 23.0886 14.6527 27.1046 13.4297C27.646 13.2525 27.9708 13.1836 27.9708 13.1836C27.9708 13.1836 11.2053 16.5057 14.2887 35.9017C14.333 36.1847 14.3871 36.4628 14.4437 36.7384C18.6173 43.7566 25.7536 47.246 25.7536 47.246L25.7561 47.2509Z" fill="url(#paint4_linear_11593_9769)"/>
<path opacity="0.52" d="M25.7561 47.2509L25.7585 47.246C21.5407 45.0313 18.0882 41.003 16.1417 35.7221C14.9236 32.4123 13.425 25.965 18.413 19.5497C20.0864 17.3965 23.0886 14.6527 27.1046 13.4297C27.646 13.2525 27.9708 13.1836 27.9708 13.1836C27.9708 13.1836 11.2053 16.5057 14.2887 35.9017C14.333 36.1847 14.3871 36.4628 14.4437 36.7384C18.6173 43.7566 25.7536 47.246 25.7536 47.246L25.7561 47.2509Z" fill="#1C75BC"/>
<path opacity="0.24" d="M25.7561 47.2509L25.7585 47.246C21.5407 45.0313 18.0882 41.003 16.1417 35.7221C14.9236 32.4123 13.425 25.965 18.413 19.5497C20.0864 17.3965 23.0886 14.6527 27.1046 13.4297C27.646 13.2525 27.9708 13.1836 27.9708 13.1836C27.9708 13.1836 11.2053 16.5057 14.2887 35.9017C14.333 36.1847 14.3871 36.4628 14.4437 36.7384C18.6173 43.7566 25.7536 47.246 25.7536 47.246L25.7561 47.2509Z" fill="#262262"/>
<path d="M58.8797 21.8211C58.3186 21.2625 57.5139 21.6833 56.6723 22.5594L58.4687 25.1235C58.4687 25.1235 57.8043 24.9685 57.1054 25.6723C56.9258 25.8544 56.7609 26.0857 56.6133 26.3244C56.6625 26.2752 59.4678 23.145 60.1396 27.8993C61.5669 28.8836 62.4355 30.4216 63.5355 29.7523C64.7979 28.9845 60.9763 23.9128 58.8748 21.8211H58.8797Z" fill="#1C9DD7"/>
<path d="M56.6158 26.3239C56.3008 26.8407 56.0793 27.382 55.9883 27.6281C57.8388 26.7841 59.1307 27.1999 60.1421 27.8988C59.4679 23.1495 56.6625 26.2747 56.6158 26.3239Z" fill="#1C9DD7"/>
<path d="M56.6166 26.3266C56.7642 26.0879 56.9267 25.859 57.1088 25.6744C57.8027 24.9706 58.472 25.1257 58.472 25.1257L56.6757 22.5615C55.9202 23.349 55.1327 24.5056 54.4609 25.6621L56.6166 26.3266Z" fill="#1C9DD7"/>
<path d="M54.4585 25.667C53.0656 28.0786 52.1625 30.505 53.0558 29.688C54.1705 28.6692 55.1401 28.0146 55.9915 27.6283C56.0826 27.3871 56.3041 26.8408 56.619 26.3241L56.6166 26.3265L54.4585 25.6621V25.667Z" fill="#1C9DD7"/>
<defs>
<linearGradient id="paint0_linear_11593_9769" x1="31.7457" y1="46.737" x2="27.7391" y2="0.137784" gradientUnits="userSpaceOnUse">
<stop stop-color="#2B3990"/>
<stop offset="0.061" stop-color="#294898"/>
<stop offset="0.181" stop-color="#2961A8"/>
<stop offset="0.306" stop-color="#2A75B7"/>
<stop offset="0.433" stop-color="#2A87C5"/>
<stop offset="0.563" stop-color="#2996D1"/>
<stop offset="0.697" stop-color="#28A1DA"/>
<stop offset="0.839" stop-color="#28A8E0"/>
<stop offset="1" stop-color="#27AAE1"/>
</linearGradient>
<linearGradient id="paint1_linear_11593_9769" x1="32.415" y1="46.68" x2="28.41" y2="0.0792498" gradientUnits="userSpaceOnUse">
<stop stop-color="#2B3990"/>
<stop offset="0.061" stop-color="#294898"/>
<stop offset="0.181" stop-color="#2961A8"/>
<stop offset="0.306" stop-color="#2A75B7"/>
<stop offset="0.433" stop-color="#2A87C5"/>
<stop offset="0.563" stop-color="#2996D1"/>
<stop offset="0.697" stop-color="#28A1DA"/>
<stop offset="0.839" stop-color="#28A8E0"/>
<stop offset="1" stop-color="#27AAE1"/>
</linearGradient>
<linearGradient id="paint2_linear_11593_9769" x1="24.4015" y1="47.3685" x2="20.3955" y2="0.769514" gradientUnits="userSpaceOnUse">
<stop stop-color="#2B3990"/>
<stop offset="0.061" stop-color="#294898"/>
<stop offset="0.181" stop-color="#2961A8"/>
<stop offset="0.306" stop-color="#2A75B7"/>
<stop offset="0.433" stop-color="#2A87C5"/>
<stop offset="0.563" stop-color="#2996D1"/>
<stop offset="0.697" stop-color="#28A1DA"/>
<stop offset="0.839" stop-color="#28A8E0"/>
<stop offset="1" stop-color="#27AAE1"/>
</linearGradient>
<linearGradient id="paint3_linear_11593_9769" x1="35.9575" y1="24.1659" x2="34.0838" y2="2.37723" gradientUnits="userSpaceOnUse">
<stop stop-color="#2B3990"/>
<stop offset="0.061" stop-color="#294898"/>
<stop offset="0.181" stop-color="#2961A8"/>
<stop offset="0.306" stop-color="#2A75B7"/>
<stop offset="0.433" stop-color="#2A87C5"/>
<stop offset="0.563" stop-color="#2996D1"/>
<stop offset="0.697" stop-color="#28A1DA"/>
<stop offset="0.839" stop-color="#28A8E0"/>
<stop offset="1" stop-color="#27AAE1"/>
</linearGradient>
<linearGradient id="paint4_linear_11593_9769" x1="23.0598" y1="47.4845" x2="19.0538" y2="0.88598" gradientUnits="userSpaceOnUse">
<stop stop-color="#2B3990"/>
<stop offset="0.061" stop-color="#294898"/>
<stop offset="0.181" stop-color="#2961A8"/>
<stop offset="0.306" stop-color="#2A75B7"/>
<stop offset="0.433" stop-color="#2A87C5"/>
<stop offset="0.563" stop-color="#2996D1"/>
<stop offset="0.697" stop-color="#28A1DA"/>
<stop offset="0.839" stop-color="#28A8E0"/>
<stop offset="1" stop-color="#27AAE1"/>
</linearGradient>
</defs>
</svg>
