<svg width="1024" height="960" viewBox="0 0 1024 960" fill="none" xmlns="http://www.w3.org/2000/svg">
<rect width="1024" height="960" fill="#23A6F0" fill-opacity="0.12"/>
<g clip-path="url(#clip0_8661_13544)">
<path d="M422.367 441.223C412.41 441.223 404.638 438.522 399.049 433.12C393.455 427.723 390.657 420.131 390.657 410.343C390.657 404.824 391.718 399.736 393.84 395.085C395.963 390.423 399.227 386.654 403.635 383.77C408.044 380.899 413.471 379.463 419.92 379.463C425.959 379.463 431.182 380.801 435.59 383.478C439.999 386.159 443.338 389.734 445.639 394.209C447.94 398.685 449.067 403.552 449.067 408.832C449.067 410.307 448.559 411.55 447.533 412.555C446.508 413.56 445.142 414.066 443.43 414.066H401.933C402.582 419.507 404.704 423.741 408.299 426.769C411.889 429.8 416.908 431.317 423.356 431.317C426.782 431.317 429.782 431.005 432.354 430.382C434.925 429.76 437.437 428.866 439.886 427.703C440.54 427.391 441.267 427.236 442.087 427.236C443.397 427.236 444.539 427.664 445.516 428.521C446.498 429.373 446.989 430.46 446.989 431.784C446.989 433.492 445.928 434.928 443.805 436.091C440.62 437.799 437.477 439.082 434.371 439.938C431.264 440.795 427.266 441.223 422.367 441.223ZM401.925 405.452H438.037C437.797 401.646 436.756 398.46 434.915 395.889C433.08 393.328 430.817 391.445 428.127 390.238C425.432 389.036 422.696 388.435 419.92 388.435C417.143 388.435 414.41 389.036 411.712 390.238C409.018 391.445 406.773 393.328 404.978 395.889C403.183 398.453 402.163 401.639 401.91 405.452H401.925ZM483.952 441.223C475.791 441.223 468.364 439.473 461.67 435.967C460.279 435.038 459.583 433.757 459.583 432.127C459.583 430.881 460.034 429.793 460.933 428.864C461.829 427.929 462.972 427.462 464.362 427.462C465.093 427.462 465.82 427.618 466.564 427.929C469.177 429.015 471.789 429.869 474.403 430.484C477.011 431.107 479.948 431.419 483.224 431.419C492.285 431.419 496.816 428.662 496.816 423.148C496.816 421.357 495.775 419.996 493.694 419.06C491.613 418.123 488.204 417.076 483.469 415.92C478.652 414.831 474.674 413.703 471.534 412.54C468.389 411.377 465.695 409.611 463.449 407.24C461.204 404.87 460.074 401.743 460.074 397.86C460.074 392.419 462.135 387.99 466.257 384.573C470.378 381.157 476.277 379.448 483.952 379.448C490.237 379.448 496.154 380.419 501.702 382.368C502.847 382.68 503.724 383.261 504.333 384.12C504.946 384.977 505.253 385.87 505.253 386.8C505.253 388.046 504.793 389.134 503.849 390.063C502.908 390.997 501.745 391.465 500.359 391.465C499.951 391.465 499.418 391.386 498.764 391.231C494.029 389.834 489.375 389.136 484.804 389.136C480.401 389.136 476.955 389.893 474.464 391.399C471.974 392.905 470.729 394.874 470.729 397.283C470.729 399.614 471.879 401.322 474.157 402.408C476.443 403.498 479.992 404.547 484.804 405.547C489.621 406.715 493.548 407.861 496.563 408.978C499.579 410.107 502.162 411.874 504.333 414.278C506.496 416.687 507.577 419.912 507.577 423.951C507.577 428.924 505.516 433.042 501.395 436.303C497.274 439.568 491.459 441.194 483.952 441.194V441.223ZM528.022 440.639C526.473 440.639 525.169 440.133 524.11 439.121C523.047 438.113 522.515 436.872 522.515 435.398V359.767C522.515 358.292 523.047 357.029 524.11 355.971C525.169 354.925 526.473 354.401 528.022 354.401C528.763 354.39 529.499 354.523 530.183 354.793C530.868 355.063 531.487 355.464 532.003 355.971C532.537 356.462 532.96 357.052 533.245 357.705C533.53 358.358 533.671 359.06 533.66 359.767V407.438L562.792 381.799C564.019 380.786 565.244 380.281 566.474 380.281C568.351 380.281 569.718 380.786 570.578 381.799C571.437 382.812 571.866 384.016 571.866 385.413C571.866 386.732 571.171 388.053 569.78 389.377L552.153 404.415L574.321 432.375C575.139 433.383 575.548 434.429 575.548 435.514C575.548 437.072 575.016 438.315 573.953 439.237C572.894 440.172 571.547 440.639 569.91 440.639C569.097 440.639 568.282 440.444 567.456 440.055C566.63 439.666 565.945 439.123 565.385 438.427L544.322 411.153L533.675 420.352V435.39C533.675 436.865 533.123 438.106 532.018 439.113C530.919 440.126 529.592 440.632 528.03 440.632L528.022 440.639ZM603.931 441.223C600.341 441.223 597.015 440.522 593.959 439.121C590.902 437.724 588.473 435.684 586.672 433.003C584.878 430.326 583.988 427.238 583.988 423.732C583.988 417.984 586.376 413.402 591.152 409.985C595.928 406.564 602.929 404.853 612.153 404.853H626.957V403.926C626.957 398.796 625.63 395.105 622.969 392.852C620.307 390.598 616.173 389.472 610.543 389.472C607.439 389.472 604.686 389.705 602.282 390.172C599.873 390.64 597.199 391.34 594.258 392.275C593.604 392.43 593.075 392.508 592.671 392.508C591.443 392.508 590.383 392.08 589.487 391.224C588.588 390.367 588.137 389.326 588.137 388.085C588.137 385.987 589.199 384.51 591.321 383.653C598.26 380.859 605.319 379.463 612.491 379.463C618.126 379.463 622.882 380.558 626.758 382.726C630.634 384.894 633.49 387.717 635.326 391.173C637.161 394.628 638.087 398.376 638.087 402.415V435.398C638.087 436.872 637.538 438.113 636.438 439.121C635.914 439.613 635.292 440.001 634.609 440.262C633.925 440.523 633.193 440.651 632.457 440.639C630.908 440.639 629.601 440.133 628.545 439.121C627.487 438.113 626.957 436.872 626.957 435.398V432.375C620.918 438.279 613.246 441.23 603.946 441.23L603.931 441.223ZM608.096 431.901C611.686 431.901 615.156 431.063 618.505 429.389C621.849 427.72 624.664 425.644 626.942 423.162V413.38H613.596C601.272 413.38 595.11 416.448 595.11 422.578C595.11 425.372 596.11 427.615 598.101 429.331C600.101 431.044 603.428 431.901 608.073 431.901H608.096ZM662.328 440.639C660.779 440.639 659.475 440.133 658.416 439.121C657.352 438.113 656.821 436.872 656.821 435.398V359.767C656.808 359.066 656.943 358.37 657.217 357.719C657.491 357.069 657.898 356.477 658.416 355.978C659.475 354.932 660.779 354.408 662.328 354.408C663.964 354.408 665.319 354.919 666.37 355.92C667.434 356.932 667.966 358.214 667.966 359.767V435.398C667.966 436.872 667.414 438.113 666.309 439.121C665.21 440.133 663.883 440.639 662.32 440.639H662.328ZM703.222 441.223C699.632 441.223 696.306 440.522 693.251 439.121C690.192 437.724 687.763 435.684 685.964 433.003C684.169 430.326 683.279 427.238 683.279 423.732C683.279 417.984 685.667 413.402 690.443 409.985C695.219 406.564 702.22 404.853 711.445 404.853H726.249V403.926C726.249 398.796 724.922 395.105 722.26 392.852C719.598 390.598 715.464 389.472 709.834 389.472C706.73 389.472 703.976 389.705 701.573 390.172C699.164 390.64 696.49 391.34 693.55 392.275C692.895 392.43 692.365 392.508 691.962 392.508C690.735 392.508 689.673 392.08 688.779 391.224C687.878 390.367 687.429 389.326 687.429 388.085C687.429 385.987 688.489 384.51 690.612 383.653C697.551 380.859 704.61 379.463 711.782 379.463C717.417 379.463 722.173 380.558 726.049 382.726C729.926 384.894 732.781 387.717 734.617 391.173C736.453 394.628 737.378 398.376 737.378 402.415V435.398C737.378 436.872 736.828 438.113 735.729 439.121C735.205 439.613 734.583 440.001 733.9 440.262C733.216 440.523 732.485 440.651 731.748 440.639C730.199 440.639 728.892 440.133 727.836 439.121C726.778 438.113 726.249 436.872 726.249 435.398V432.375C720.209 438.279 712.536 441.23 703.237 441.23L703.222 441.223ZM707.387 431.901C710.977 431.901 714.446 431.063 717.796 429.389C721.14 427.72 723.955 425.644 726.233 423.162V413.38H712.887C700.563 413.38 694.401 416.448 694.401 422.578C694.401 425.372 695.401 427.615 697.393 429.331C699.392 431.044 702.718 431.901 707.364 431.901H707.387ZM776.188 441.223C764.274 441.223 758.316 436.096 758.316 425.842V389.705H749.626C748.971 389.705 748.419 389.486 747.969 389.07C747.519 388.642 747.294 388.116 747.294 387.493C747.294 386.719 747.662 386.06 748.399 385.522L765.043 370.024C765.774 369.323 766.468 368.972 767.114 368.972C767.427 368.969 767.737 369.029 768.023 369.15C768.309 369.271 768.564 369.45 768.771 369.673C769.216 370.14 769.439 370.683 769.439 371.301V380.624H783.276C784.662 380.624 785.805 381.052 786.705 381.909C787.604 382.765 788.055 383.853 788.055 385.172C788.064 385.764 787.949 386.353 787.718 386.903C787.486 387.453 787.141 387.954 786.705 388.377C785.805 389.267 784.662 389.712 783.276 389.712H769.439V424.9C769.439 427.927 770.196 429.849 771.709 430.667C773.218 431.485 775.115 431.893 777.4 431.893C779.059 431.89 780.708 431.653 782.294 431.193L783.337 430.959C783.706 430.881 784.176 430.842 784.749 430.842C785.889 430.842 786.909 431.251 787.817 432.069C788.712 432.881 789.159 433.872 789.159 435.04C789.159 436.826 788.221 438.184 786.344 439.113C783.163 440.515 779.776 441.216 776.181 441.216L776.188 441.223ZM828.466 441.223C818.51 441.223 810.738 438.522 805.148 433.12C799.554 427.723 796.757 420.131 796.757 410.343C796.757 404.824 797.818 399.736 799.94 395.085C802.062 390.423 805.327 386.654 809.735 383.77C814.143 380.899 819.571 379.463 826.019 379.463C832.058 379.463 837.282 380.801 841.69 383.478C846.098 386.159 849.437 389.734 851.738 394.209C854.039 398.685 855.167 403.552 855.167 408.832C855.167 410.307 854.658 411.55 853.633 412.555C852.607 413.56 851.242 414.066 849.529 414.066H808.032C808.682 419.507 810.804 423.741 814.399 426.769C817.988 429.8 823.007 431.317 829.456 431.317C832.882 431.317 835.881 431.005 838.453 430.382C841.025 429.76 843.536 428.866 845.985 427.703C846.64 427.391 847.366 427.236 848.187 427.236C849.496 427.236 850.639 427.664 851.616 428.521C852.597 429.373 853.088 430.46 853.088 431.784C853.088 433.492 852.027 434.928 849.905 436.091C846.719 437.799 843.577 439.082 840.47 439.938C837.364 440.795 833.365 441.223 828.466 441.223ZM808.025 405.452H844.137C843.897 401.646 842.856 398.46 841.015 395.889C839.18 393.328 836.917 391.445 834.227 390.238C831.532 389.036 828.796 388.435 826.019 388.435C823.243 388.435 820.51 389.036 817.812 390.238C815.117 391.445 812.872 393.328 811.077 395.889C809.282 398.453 808.262 401.639 808.009 405.452H808.025ZM337.102 392.005L336.949 392.406C336.949 392.406 333.789 416.716 310.547 437.485L309.167 438.653H309.228C303.828 443.472 296.955 448.545 289.032 453.283C306.259 450.1 326.003 443.91 339.334 434.251C347.058 421.797 351.085 408.481 350.426 396.494C350.349 395.107 350.219 393.888 350.058 392.8C346.913 390.72 342.886 389.486 337.11 391.997L337.102 392.005ZM276.69 475.885C267.923 476.104 258.588 473.958 249.659 469.862C239.481 472.468 228.811 473.906 218.057 473.585C221.072 474.863 224.24 475.994 227.592 476.929C276.276 490.551 317.527 466.825 337.539 437.04C336.174 439.033 334.034 441.982 331.02 445.611C328.465 448.677 305.707 475.133 276.69 475.885ZM312.342 383.442C309.013 396.604 297.906 424.374 264.302 425.966C270.4 427.521 276.958 427.484 283.172 425.878C290.765 423.907 320.327 415.278 327.062 384.004C327.982 379.149 332.722 346.334 294.999 329.471C307.195 344.027 316.952 365.242 312.334 383.442H312.342ZM199.94 372.389C201.535 364.067 204.358 355.766 208.193 348.043C201.52 354.284 196.174 360.818 192.592 366.527C187.736 374.265 184.154 382.354 181.822 390.486C186.808 384.595 192.944 378.295 199.94 372.382V372.389Z" fill="#1C9DD7"/>
<path opacity="0.6" d="M283.388 325.23C287.653 326.485 291.519 327.909 295.009 329.464C288.335 321.507 280.933 315.52 274.736 313.148C246.263 302.212 221.304 321.667 208.195 348.028C226.144 331.238 253.818 316.52 283.388 325.222V325.23Z" fill="url(#paint0_linear_8661_13544)"/>
<path d="M264.197 348.13L264.964 348.174C267.327 348.393 269.582 348.816 271.729 349.4C271.737 349.4 271.745 349.4 271.753 349.408C292.194 354.978 302.664 375.835 296.988 391.822C293.122 402.678 280.55 411.314 272.941 414.073C268.209 415.796 263.1 416.088 259.158 413.241C250.536 407.007 258.314 399.298 261.075 396.436C264.696 392.684 271.53 385.778 268.715 379.769C265.455 372.805 254.97 371.323 247.621 378.915C240.273 386.508 236.423 396.268 243.786 410.073C248.312 418.57 255.867 423.797 264.312 425.951C297.924 424.359 309.031 396.582 312.352 383.427C316.954 365.227 307.213 344.005 295.017 329.456C291.519 327.894 287.653 326.463 283.396 325.222C253.819 316.52 226.152 331.245 208.203 348.035C204.368 355.759 201.53 364.059 199.95 372.382C217.285 357.708 239.989 345.495 264.197 348.13Z" fill="#1C9DD7"/>
<path opacity="0.6" d="M264.197 348.13L264.964 348.174C267.327 348.393 269.582 348.816 271.729 349.4C271.737 349.4 271.745 349.4 271.753 349.408C292.194 354.978 302.664 375.835 296.988 391.822C293.122 402.678 280.55 411.314 272.941 414.073C268.209 415.796 263.1 416.088 259.158 413.241C250.536 407.007 258.314 399.298 261.075 396.436C264.696 392.684 271.53 385.778 268.715 379.769C265.455 372.805 254.97 371.323 247.621 378.915C240.273 386.508 236.423 396.268 243.786 410.073C248.312 418.57 255.867 423.797 264.312 425.951C297.924 424.359 309.031 396.582 312.352 383.427C316.954 365.227 307.213 344.005 295.017 329.456C291.519 327.894 287.653 326.463 283.396 325.222C253.819 316.52 226.152 331.245 208.203 348.035C204.368 355.759 201.53 364.059 199.95 372.382C217.285 357.708 239.989 345.495 264.197 348.13Z" fill="url(#paint1_linear_8661_13544)"/>
<path opacity="0.52" d="M181.825 390.472C175.573 397.845 171.086 404.539 168.861 408.971C163.615 419.468 147.814 460.262 201.43 471.636C206.953 472.804 212.514 473.425 218.044 473.592C184.218 459.247 172.022 424.476 181.817 390.479L181.825 390.472Z" fill="#1C75BC"/>
<path d="M266.206 455.868L264.903 455.831L265.761 455.882L266.221 455.868H266.206Z" fill="#1C9DD7"/>
<path opacity="0.52" d="M266.206 455.868L264.903 455.831L265.761 455.882L266.221 455.868H266.206Z" fill="#1C75BC"/>
<path d="M289.027 453.291C296.958 448.546 303.831 443.487 309.223 438.661H309.162C297.763 448.443 285.798 453.787 274.238 455.379C278.764 454.955 283.78 454.269 289.027 453.298V453.291Z" fill="#1C9DD7"/>
<path opacity="0.52" d="M289.027 453.291C296.958 448.546 303.831 443.487 309.223 438.661H309.162C297.763 448.443 285.798 453.787 274.238 455.379C278.764 454.955 283.78 454.269 289.027 453.298V453.291Z" fill="#1C75BC"/>
<path d="M207.621 419.045C202.397 410.693 198.669 400.663 198.439 388.938C198.34 383.536 198.869 377.966 199.935 372.389C192.94 378.302 186.819 384.602 181.818 390.493C172.03 424.491 184.226 459.262 218.045 473.607C228.807 473.928 239.476 472.49 249.647 469.884C230.034 460.875 212.492 442.435 207.613 419.059L207.621 419.045Z" fill="#1C9DD7"/>
<path opacity="0.52" d="M207.621 419.045C202.397 410.693 198.669 400.663 198.439 388.938C198.34 383.536 198.869 377.966 199.935 372.389C192.94 378.302 186.819 384.602 181.818 390.493C172.03 424.491 184.226 459.262 218.045 473.607C228.807 473.928 239.476 472.49 249.647 469.884C230.034 460.875 212.492 442.435 207.613 419.059L207.621 419.045Z" fill="#1C75BC"/>
<path d="M249.771 349.166C249.771 349.166 248.758 349.364 247.071 349.897C252.256 348.385 257.986 347.663 264.191 348.144C239.976 345.516 217.279 357.722 199.936 372.381C198.862 377.951 198.341 383.529 198.44 388.931C198.655 400.663 202.398 410.686 207.622 419.045L207.139 416.563C197.52 359.007 249.771 349.166 249.771 349.166Z" fill="#1C9DD7"/>
<path opacity="0.6" d="M249.771 349.166C249.771 349.166 248.758 349.364 247.071 349.897C252.256 348.385 257.986 347.663 264.191 348.144C239.976 345.516 217.279 357.722 199.936 372.381C198.862 377.951 198.341 383.529 198.44 388.931C198.655 400.663 202.398 410.686 207.622 419.045L207.139 416.563C197.52 359.007 249.771 349.166 249.771 349.166Z" fill="url(#paint2_linear_8661_13544)"/>
<path opacity="0.52" d="M249.771 349.166C249.771 349.166 248.758 349.364 247.071 349.897C252.256 348.385 257.986 347.663 264.191 348.144C239.976 345.516 217.279 357.722 199.936 372.381C198.862 377.951 198.341 383.529 198.44 388.931C198.655 400.663 202.398 410.686 207.622 419.045L207.139 416.563C197.52 359.007 249.771 349.166 249.771 349.166Z" fill="#1C75BC"/>
<path d="M271.752 349.408C271.744 349.408 271.737 349.408 271.729 349.4C271.737 349.408 271.744 349.408 271.752 349.408Z" fill="#1C9DD7"/>
<path opacity="0.6" d="M271.752 349.408C271.744 349.408 271.737 349.408 271.729 349.4C271.737 349.408 271.744 349.408 271.752 349.408Z" fill="url(#paint3_linear_8661_13544)"/>
<path opacity="0.52" d="M271.752 349.408C271.744 349.408 271.737 349.408 271.729 349.4C271.737 349.408 271.744 349.408 271.752 349.408Z" fill="#1C75BC"/>
<path opacity="0.24" d="M339.341 434.252C339.333 434.252 339.333 434.259 339.326 434.259L337.524 437.048L339.341 434.252Z" fill="#262262"/>
<path d="M249.659 469.869C258.58 473.958 267.915 476.119 276.69 475.892C305.699 475.148 328.465 448.691 331.012 445.618C334.018 441.997 336.166 439.048 337.532 437.047C338.15 436.128 338.751 435.198 339.334 434.259C325.988 443.917 306.259 450.1 289.031 453.291C277.695 460.065 264.179 466.154 249.667 469.862L249.659 469.869Z" fill="#1C9DD7"/>
<path opacity="0.24" d="M249.659 469.869C258.58 473.958 267.915 476.119 276.69 475.892C305.699 475.148 328.465 448.691 331.012 445.618C334.018 441.997 336.166 439.048 337.532 437.047C338.15 436.128 338.751 435.198 339.334 434.259C325.988 443.917 306.259 450.1 289.031 453.291C277.695 460.065 264.179 466.154 249.667 469.862L249.659 469.869Z" fill="#262262"/>
<path d="M266.205 455.867L265.745 455.882C265.453 455.889 265.169 455.852 264.886 455.83C257.115 455.56 249.675 453.611 242.871 450.209L242.864 450.224C242.864 450.224 220.62 439.872 207.618 419.052C212.497 442.435 230.039 460.868 249.652 469.862C264.165 466.138 277.68 460.057 289.017 453.29C283.77 454.261 278.761 454.947 274.228 455.371C271.566 455.728 268.878 455.891 266.189 455.86L266.205 455.867Z" fill="#1C9DD7"/>
<path opacity="0.52" d="M266.205 455.867L265.745 455.882C265.453 455.889 265.169 455.852 264.886 455.83C257.115 455.56 249.675 453.611 242.871 450.209L242.864 450.224C242.864 450.224 220.62 439.872 207.618 419.052C212.497 442.435 230.039 460.868 249.652 469.862C264.165 466.138 277.68 460.057 289.017 453.29C283.77 454.261 278.761 454.947 274.228 455.371C271.566 455.728 268.878 455.891 266.189 455.86L266.205 455.867Z" fill="#1C75BC"/>
<path opacity="0.24" d="M266.205 455.867L265.745 455.882C265.453 455.889 265.169 455.852 264.886 455.83C257.115 455.56 249.675 453.611 242.871 450.209L242.864 450.224C242.864 450.224 220.62 439.872 207.618 419.052C212.497 442.435 230.039 460.868 249.652 469.862C264.165 466.138 277.68 460.057 289.017 453.29C283.77 454.261 278.761 454.947 274.228 455.371C271.566 455.728 268.878 455.891 266.189 455.86L266.205 455.867Z" fill="#262262"/>
<path d="M242.871 450.217L242.879 450.203C229.732 443.632 218.97 431.682 212.903 416.015C209.106 406.197 204.435 387.07 219.983 368.038C225.199 361.65 234.557 353.511 247.075 349.882C248.762 349.357 249.775 349.152 249.775 349.152C249.775 349.152 197.516 359.008 207.127 416.548C207.265 417.388 207.434 418.213 207.61 419.03C220.62 439.851 242.864 450.203 242.864 450.203L242.871 450.217Z" fill="#1C9DD7"/>
<path opacity="0.6" d="M242.871 450.217L242.879 450.203C229.732 443.632 218.97 431.682 212.903 416.015C209.106 406.197 204.435 387.07 219.983 368.038C225.199 361.65 234.557 353.511 247.075 349.882C248.762 349.357 249.775 349.152 249.775 349.152C249.775 349.152 197.516 359.008 207.127 416.548C207.265 417.388 207.434 418.213 207.61 419.03C220.62 439.851 242.864 450.203 242.864 450.203L242.871 450.217Z" fill="url(#paint4_linear_8661_13544)"/>
<path opacity="0.52" d="M242.871 450.217L242.879 450.203C229.732 443.632 218.97 431.682 212.903 416.015C209.106 406.197 204.435 387.07 219.983 368.038C225.199 361.65 234.557 353.511 247.075 349.882C248.762 349.357 249.775 349.152 249.775 349.152C249.775 349.152 197.516 359.008 207.127 416.548C207.265 417.388 207.434 418.213 207.61 419.03C220.62 439.851 242.864 450.203 242.864 450.203L242.871 450.217Z" fill="#1C75BC"/>
<path opacity="0.24" d="M242.871 450.217L242.879 450.203C229.732 443.632 218.97 431.682 212.903 416.015C209.106 406.197 204.435 387.07 219.983 368.038C225.199 361.65 234.557 353.511 247.075 349.882C248.762 349.357 249.775 349.152 249.775 349.152C249.775 349.152 197.516 359.008 207.127 416.548C207.265 417.388 207.434 418.213 207.61 419.03C220.62 439.851 242.864 450.203 242.864 450.203L242.871 450.217Z" fill="#262262"/>
<path d="M346.118 374.776C344.369 373.119 341.861 374.367 339.238 376.966L344.837 384.573C344.837 384.573 342.766 384.113 340.588 386.201C340.028 386.741 339.514 387.428 339.054 388.136C339.207 387.99 347.951 378.704 350.045 392.808C354.494 395.728 357.202 400.291 360.631 398.305C364.566 396.027 352.653 380.981 346.103 374.776H346.118Z" fill="#1C9DD7"/>
<path d="M339.062 388.136C338.081 389.669 337.39 391.275 337.106 392.005C342.875 389.501 346.902 390.735 350.054 392.808C347.952 378.718 339.208 387.99 339.062 388.136Z" fill="#1C9DD7"/>
<path d="M339.064 388.143C339.525 387.435 340.031 386.756 340.599 386.208C342.762 384.121 344.848 384.581 344.848 384.581L339.249 376.974C336.894 379.31 334.439 382.741 332.345 386.172L339.064 388.143Z" fill="#1C9DD7"/>
<path d="M332.337 386.186C327.995 393.341 325.18 400.539 327.964 398.115C331.439 395.093 334.461 393.151 337.115 392.005C337.399 391.289 338.089 389.669 339.071 388.136L339.064 388.143L332.337 386.172V386.186Z" fill="#1C9DD7"/>
<path d="M396.592 482.44V485.848H402.088V489.016H396.592V492.712H402.808V496H392.488V479.152H402.808V482.44H396.592ZM423.04 482.464C424.704 482.464 426.024 482.968 427 483.976C427.992 484.984 428.488 486.384 428.488 488.176V496H424.408V488.728C424.408 487.864 424.176 487.2 423.712 486.736C423.264 486.256 422.64 486.016 421.84 486.016C421.04 486.016 420.408 486.256 419.944 486.736C419.496 487.2 419.272 487.864 419.272 488.728V496H415.192V488.728C415.192 487.864 414.96 487.2 414.496 486.736C414.048 486.256 413.424 486.016 412.624 486.016C411.824 486.016 411.192 486.256 410.728 486.736C410.28 487.2 410.056 487.864 410.056 488.728V496H405.952V482.608H410.056V484.288C410.472 483.728 411.016 483.288 411.688 482.968C412.36 482.632 413.12 482.464 413.968 482.464C414.976 482.464 415.872 482.68 416.656 483.112C417.456 483.544 418.08 484.16 418.528 484.96C418.992 484.224 419.624 483.624 420.424 483.16C421.224 482.696 422.096 482.464 423.04 482.464ZM435.943 484.504C436.343 483.88 436.895 483.376 437.599 482.992C438.303 482.608 439.127 482.416 440.071 482.416C441.175 482.416 442.175 482.696 443.071 483.256C443.967 483.816 444.671 484.616 445.183 485.656C445.711 486.696 445.975 487.904 445.975 489.28C445.975 490.656 445.711 491.872 445.183 492.928C444.671 493.968 443.967 494.776 443.071 495.352C442.175 495.912 441.175 496.192 440.071 496.192C439.143 496.192 438.319 496 437.599 495.616C436.895 495.232 436.343 494.736 435.943 494.128V502.384H431.839V482.608H435.943V484.504ZM441.799 489.28C441.799 488.256 441.511 487.456 440.935 486.88C440.375 486.288 439.679 485.992 438.847 485.992C438.031 485.992 437.335 486.288 436.759 486.88C436.199 487.472 435.919 488.28 435.919 489.304C435.919 490.328 436.199 491.136 436.759 491.728C437.335 492.32 438.031 492.616 438.847 492.616C439.663 492.616 440.359 492.32 440.935 491.728C441.511 491.12 441.799 490.304 441.799 489.28ZM454.704 496.192C453.392 496.192 452.208 495.912 451.152 495.352C450.112 494.792 449.288 493.992 448.68 492.952C448.088 491.912 447.792 490.696 447.792 489.304C447.792 487.928 448.096 486.72 448.704 485.68C449.312 484.624 450.144 483.816 451.2 483.256C452.256 482.696 453.44 482.416 454.752 482.416C456.064 482.416 457.248 482.696 458.304 483.256C459.36 483.816 460.192 484.624 460.8 485.68C461.408 486.72 461.712 487.928 461.712 489.304C461.712 490.68 461.4 491.896 460.776 492.952C460.168 493.992 459.328 494.792 458.256 495.352C457.2 495.912 456.016 496.192 454.704 496.192ZM454.704 492.64C455.488 492.64 456.152 492.352 456.696 491.776C457.256 491.2 457.536 490.376 457.536 489.304C457.536 488.232 457.264 487.408 456.72 486.832C456.192 486.256 455.536 485.968 454.752 485.968C453.952 485.968 453.288 486.256 452.76 486.832C452.232 487.392 451.968 488.216 451.968 489.304C451.968 490.376 452.224 491.2 452.736 491.776C453.264 492.352 453.92 492.64 454.704 492.64ZM483.593 482.608L479.969 496H475.433L473.321 487.312L471.137 496H466.625L462.977 482.608H467.081L468.977 492.184L471.233 482.608H475.577L477.857 492.136L479.729 482.608H483.593ZM498.262 489.088C498.262 489.472 498.238 489.872 498.19 490.288H488.902C488.966 491.12 489.23 491.76 489.694 492.208C490.174 492.64 490.758 492.856 491.446 492.856C492.47 492.856 493.182 492.424 493.582 491.56H497.95C497.726 492.44 497.318 493.232 496.726 493.936C496.15 494.64 495.422 495.192 494.542 495.592C493.662 495.992 492.678 496.192 491.59 496.192C490.278 496.192 489.11 495.912 488.086 495.352C487.062 494.792 486.262 493.992 485.686 492.952C485.11 491.912 484.822 490.696 484.822 489.304C484.822 487.912 485.102 486.696 485.662 485.656C486.238 484.616 487.038 483.816 488.062 483.256C489.086 482.696 490.262 482.416 491.59 482.416C492.886 482.416 494.038 482.688 495.046 483.232C496.054 483.776 496.838 484.552 497.398 485.56C497.974 486.568 498.262 487.744 498.262 489.088ZM494.062 488.008C494.062 487.304 493.822 486.744 493.342 486.328C492.862 485.912 492.262 485.704 491.542 485.704C490.854 485.704 490.27 485.904 489.79 486.304C489.326 486.704 489.038 487.272 488.926 488.008H494.062ZM505.011 484.84C505.491 484.104 506.091 483.528 506.811 483.112C507.531 482.68 508.331 482.464 509.211 482.464V486.808H508.083C507.059 486.808 506.291 487.032 505.779 487.48C505.267 487.912 505.011 488.68 505.011 489.784V496H500.907V482.608H505.011V484.84ZM513.717 481.216C512.997 481.216 512.405 481.008 511.941 480.592C511.493 480.16 511.269 479.632 511.269 479.008C511.269 478.368 511.493 477.84 511.941 477.424C512.405 476.992 512.997 476.776 513.717 476.776C514.421 476.776 514.997 476.992 515.445 477.424C515.909 477.84 516.141 478.368 516.141 479.008C516.141 479.632 515.909 480.16 515.445 480.592C514.997 481.008 514.421 481.216 513.717 481.216ZM515.757 482.608V496H511.653V482.608H515.757ZM527.371 482.464C528.939 482.464 530.187 482.976 531.115 484C532.059 485.008 532.531 486.4 532.531 488.176V496H528.451V488.728C528.451 487.832 528.219 487.136 527.755 486.64C527.291 486.144 526.667 485.896 525.883 485.896C525.099 485.896 524.475 486.144 524.011 486.64C523.547 487.136 523.315 487.832 523.315 488.728V496H519.211V482.608H523.315V484.384C523.731 483.792 524.291 483.328 524.995 482.992C525.699 482.64 526.491 482.464 527.371 482.464ZM540.951 482.416C541.895 482.416 542.719 482.608 543.423 482.992C544.143 483.376 544.695 483.88 545.079 484.504V482.608H549.183V495.976C549.183 497.208 548.935 498.32 548.439 499.312C547.959 500.32 547.215 501.12 546.207 501.712C545.215 502.304 543.975 502.6 542.487 502.6C540.503 502.6 538.895 502.128 537.663 501.184C536.431 500.256 535.727 498.992 535.551 497.392H539.607C539.735 497.904 540.039 498.304 540.519 498.592C540.999 498.896 541.591 499.048 542.295 499.048C543.143 499.048 543.815 498.8 544.311 498.304C544.823 497.824 545.079 497.048 545.079 495.976V494.08C544.679 494.704 544.127 495.216 543.423 495.616C542.719 496 541.895 496.192 540.951 496.192C539.847 496.192 538.847 495.912 537.951 495.352C537.055 494.776 536.343 493.968 535.815 492.928C535.303 491.872 535.047 490.656 535.047 489.28C535.047 487.904 535.303 486.696 535.815 485.656C536.343 484.616 537.055 483.816 537.951 483.256C538.847 482.696 539.847 482.416 540.951 482.416ZM545.079 489.304C545.079 488.28 544.791 487.472 544.215 486.88C543.655 486.288 542.967 485.992 542.151 485.992C541.335 485.992 540.639 486.288 540.063 486.88C539.503 487.456 539.223 488.256 539.223 489.28C539.223 490.304 539.503 491.12 540.063 491.728C540.639 492.32 541.335 492.616 542.151 492.616C542.967 492.616 543.655 492.32 544.215 491.728C544.791 491.136 545.079 490.328 545.079 489.304ZM568.398 487.36C569.374 487.568 570.158 488.056 570.75 488.824C571.342 489.576 571.638 490.44 571.638 491.416C571.638 492.824 571.142 493.944 570.15 494.776C569.174 495.592 567.806 496 566.046 496H558.198V479.152H565.782C567.494 479.152 568.83 479.544 569.79 480.328C570.766 481.112 571.254 482.176 571.254 483.52C571.254 484.512 570.99 485.336 570.462 485.992C569.95 486.648 569.262 487.104 568.398 487.36ZM562.302 485.968H564.99C565.662 485.968 566.174 485.824 566.526 485.536C566.894 485.232 567.078 484.792 567.078 484.216C567.078 483.64 566.894 483.2 566.526 482.896C566.174 482.592 565.662 482.44 564.99 482.44H562.302V485.968ZM565.326 492.688C566.014 492.688 566.542 492.536 566.91 492.232C567.294 491.912 567.486 491.456 567.486 490.864C567.486 490.272 567.286 489.808 566.886 489.472C566.502 489.136 565.966 488.968 565.278 488.968H562.302V492.688H565.326ZM587.722 482.608V496H583.618V494.176C583.202 494.768 582.634 495.248 581.914 495.616C581.21 495.968 580.426 496.144 579.562 496.144C578.538 496.144 577.634 495.92 576.85 495.472C576.066 495.008 575.458 494.344 575.026 493.48C574.594 492.616 574.378 491.6 574.378 490.432V482.608H578.458V489.88C578.458 490.776 578.69 491.472 579.154 491.968C579.618 492.464 580.242 492.712 581.026 492.712C581.826 492.712 582.458 492.464 582.922 491.968C583.386 491.472 583.618 490.776 583.618 489.88V482.608H587.722ZM596.598 496.192C595.43 496.192 594.39 495.992 593.478 495.592C592.566 495.192 591.846 494.648 591.318 493.96C590.79 493.256 590.494 492.472 590.43 491.608H594.486C594.534 492.072 594.75 492.448 595.134 492.736C595.518 493.024 595.99 493.168 596.55 493.168C597.062 493.168 597.454 493.072 597.726 492.88C598.014 492.672 598.158 492.408 598.158 492.088C598.158 491.704 597.958 491.424 597.558 491.248C597.158 491.056 596.51 490.848 595.614 490.624C594.654 490.4 593.854 490.168 593.214 489.928C592.574 489.672 592.022 489.28 591.558 488.752C591.094 488.208 590.862 487.48 590.862 486.568C590.862 485.8 591.07 485.104 591.486 484.48C591.918 483.84 592.542 483.336 593.358 482.968C594.19 482.6 595.174 482.416 596.31 482.416C597.99 482.416 599.31 482.832 600.27 483.664C601.246 484.496 601.806 485.6 601.95 486.976H598.158C598.094 486.512 597.886 486.144 597.534 485.872C597.198 485.6 596.75 485.464 596.19 485.464C595.71 485.464 595.342 485.56 595.086 485.752C594.83 485.928 594.702 486.176 594.702 486.496C594.702 486.88 594.902 487.168 595.302 487.36C595.718 487.552 596.358 487.744 597.222 487.936C598.214 488.192 599.022 488.448 599.646 488.704C600.27 488.944 600.814 489.344 601.278 489.904C601.758 490.448 602.006 491.184 602.022 492.112C602.022 492.896 601.798 493.6 601.35 494.224C600.918 494.832 600.286 495.312 599.454 495.664C598.638 496.016 597.686 496.192 596.598 496.192ZM607.077 481.216C606.357 481.216 605.765 481.008 605.301 480.592C604.853 480.16 604.629 479.632 604.629 479.008C604.629 478.368 604.853 477.84 605.301 477.424C605.765 476.992 606.357 476.776 607.077 476.776C607.781 476.776 608.357 476.992 608.805 477.424C609.269 477.84 609.501 478.368 609.501 479.008C609.501 479.632 609.269 480.16 608.805 480.592C608.357 481.008 607.781 481.216 607.077 481.216ZM609.117 482.608V496H605.013V482.608H609.117ZM620.731 482.464C622.299 482.464 623.547 482.976 624.475 484C625.419 485.008 625.891 486.4 625.891 488.176V496H621.811V488.728C621.811 487.832 621.579 487.136 621.115 486.64C620.651 486.144 620.027 485.896 619.243 485.896C618.459 485.896 617.835 486.144 617.371 486.64C616.907 487.136 616.675 487.832 616.675 488.728V496H612.571V482.608H616.675V484.384C617.091 483.792 617.651 483.328 618.355 482.992C619.059 482.64 619.851 482.464 620.731 482.464ZM641.847 489.088C641.847 489.472 641.823 489.872 641.775 490.288H632.487C632.551 491.12 632.815 491.76 633.279 492.208C633.759 492.64 634.343 492.856 635.031 492.856C636.055 492.856 636.767 492.424 637.167 491.56H641.535C641.311 492.44 640.903 493.232 640.311 493.936C639.735 494.64 639.007 495.192 638.127 495.592C637.247 495.992 636.263 496.192 635.175 496.192C633.863 496.192 632.695 495.912 631.671 495.352C630.647 494.792 629.847 493.992 629.271 492.952C628.695 491.912 628.407 490.696 628.407 489.304C628.407 487.912 628.687 486.696 629.247 485.656C629.823 484.616 630.623 483.816 631.647 483.256C632.671 482.696 633.847 482.416 635.175 482.416C636.471 482.416 637.623 482.688 638.631 483.232C639.639 483.776 640.423 484.552 640.983 485.56C641.559 486.568 641.847 487.744 641.847 489.088ZM637.647 488.008C637.647 487.304 637.407 486.744 636.927 486.328C636.447 485.912 635.847 485.704 635.127 485.704C634.439 485.704 633.855 485.904 633.375 486.304C632.911 486.704 632.623 487.272 632.511 488.008H637.647ZM649.94 496.192C648.772 496.192 647.732 495.992 646.82 495.592C645.908 495.192 645.188 494.648 644.66 493.96C644.132 493.256 643.836 492.472 643.772 491.608H647.828C647.876 492.072 648.092 492.448 648.476 492.736C648.86 493.024 649.332 493.168 649.892 493.168C650.404 493.168 650.796 493.072 651.068 492.88C651.356 492.672 651.5 492.408 651.5 492.088C651.5 491.704 651.3 491.424 650.9 491.248C650.5 491.056 649.852 490.848 648.956 490.624C647.996 490.4 647.196 490.168 646.556 489.928C645.916 489.672 645.364 489.28 644.9 488.752C644.436 488.208 644.204 487.48 644.204 486.568C644.204 485.8 644.412 485.104 644.828 484.48C645.26 483.84 645.884 483.336 646.7 482.968C647.532 482.6 648.516 482.416 649.652 482.416C651.332 482.416 652.652 482.832 653.612 483.664C654.588 484.496 655.148 485.6 655.292 486.976H651.5C651.436 486.512 651.228 486.144 650.876 485.872C650.54 485.6 650.092 485.464 649.532 485.464C649.052 485.464 648.684 485.56 648.428 485.752C648.172 485.928 648.044 486.176 648.044 486.496C648.044 486.88 648.244 487.168 648.644 487.36C649.06 487.552 649.7 487.744 650.564 487.936C651.556 488.192 652.364 488.448 652.988 488.704C653.612 488.944 654.156 489.344 654.62 489.904C655.1 490.448 655.348 491.184 655.364 492.112C655.364 492.896 655.14 493.6 654.692 494.224C654.26 494.832 653.628 495.312 652.796 495.664C651.98 496.016 651.028 496.192 649.94 496.192ZM663.803 496.192C662.635 496.192 661.595 495.992 660.683 495.592C659.771 495.192 659.051 494.648 658.523 493.96C657.995 493.256 657.699 492.472 657.635 491.608H661.691C661.739 492.072 661.955 492.448 662.339 492.736C662.723 493.024 663.195 493.168 663.755 493.168C664.267 493.168 664.659 493.072 664.931 492.88C665.219 492.672 665.363 492.408 665.363 492.088C665.363 491.704 665.163 491.424 664.763 491.248C664.363 491.056 663.715 490.848 662.819 490.624C661.859 490.4 661.059 490.168 660.419 489.928C659.779 489.672 659.227 489.28 658.763 488.752C658.299 488.208 658.067 487.48 658.067 486.568C658.067 485.8 658.275 485.104 658.691 484.48C659.123 483.84 659.747 483.336 660.563 482.968C661.395 482.6 662.379 482.416 663.515 482.416C665.195 482.416 666.515 482.832 667.475 483.664C668.451 484.496 669.011 485.6 669.155 486.976H665.363C665.299 486.512 665.091 486.144 664.739 485.872C664.403 485.6 663.955 485.464 663.395 485.464C662.915 485.464 662.547 485.56 662.291 485.752C662.035 485.928 661.907 486.176 661.907 486.496C661.907 486.88 662.107 487.168 662.507 487.36C662.923 487.552 663.563 487.744 664.427 487.936C665.419 488.192 666.227 488.448 666.851 488.704C667.475 488.944 668.019 489.344 668.483 489.904C668.963 490.448 669.211 491.184 669.227 492.112C669.227 492.896 669.003 493.6 668.555 494.224C668.123 494.832 667.491 495.312 666.659 495.664C665.843 496.016 664.891 496.192 663.803 496.192ZM684.841 489.088C684.841 489.472 684.817 489.872 684.769 490.288H675.481C675.545 491.12 675.809 491.76 676.273 492.208C676.753 492.64 677.337 492.856 678.025 492.856C679.049 492.856 679.761 492.424 680.161 491.56H684.529C684.305 492.44 683.897 493.232 683.305 493.936C682.729 494.64 682.001 495.192 681.121 495.592C680.241 495.992 679.257 496.192 678.169 496.192C676.857 496.192 675.689 495.912 674.665 495.352C673.641 494.792 672.841 493.992 672.265 492.952C671.689 491.912 671.401 490.696 671.401 489.304C671.401 487.912 671.681 486.696 672.241 485.656C672.817 484.616 673.617 483.816 674.641 483.256C675.665 482.696 676.841 482.416 678.169 482.416C679.465 482.416 680.617 482.688 681.625 483.232C682.633 483.776 683.417 484.552 683.977 485.56C684.553 486.568 684.841 487.744 684.841 489.088ZM680.641 488.008C680.641 487.304 680.401 486.744 679.921 486.328C679.441 485.912 678.841 485.704 678.121 485.704C677.433 485.704 676.849 485.904 676.369 486.304C675.905 486.704 675.617 487.272 675.505 488.008H680.641ZM692.934 496.192C691.766 496.192 690.726 495.992 689.814 495.592C688.902 495.192 688.182 494.648 687.654 493.96C687.126 493.256 686.83 492.472 686.766 491.608H690.822C690.87 492.072 691.086 492.448 691.47 492.736C691.854 493.024 692.326 493.168 692.886 493.168C693.398 493.168 693.79 493.072 694.062 492.88C694.35 492.672 694.494 492.408 694.494 492.088C694.494 491.704 694.294 491.424 693.894 491.248C693.494 491.056 692.846 490.848 691.95 490.624C690.99 490.4 690.19 490.168 689.55 489.928C688.91 489.672 688.358 489.28 687.894 488.752C687.43 488.208 687.198 487.48 687.198 486.568C687.198 485.8 687.406 485.104 687.822 484.48C688.254 483.84 688.878 483.336 689.694 482.968C690.526 482.6 691.51 482.416 692.646 482.416C694.326 482.416 695.646 482.832 696.606 483.664C697.582 484.496 698.142 485.6 698.286 486.976H694.494C694.43 486.512 694.222 486.144 693.87 485.872C693.534 485.6 693.086 485.464 692.526 485.464C692.046 485.464 691.678 485.56 691.422 485.752C691.166 485.928 691.038 486.176 691.038 486.496C691.038 486.88 691.238 487.168 691.638 487.36C692.054 487.552 692.694 487.744 693.558 487.936C694.55 488.192 695.358 488.448 695.982 488.704C696.606 488.944 697.15 489.344 697.614 489.904C698.094 490.448 698.342 491.184 698.358 492.112C698.358 492.896 698.134 493.6 697.686 494.224C697.254 494.832 696.622 495.312 695.79 495.664C694.974 496.016 694.022 496.192 692.934 496.192ZM714.379 492.52V496H712.291C710.803 496 709.643 495.64 708.811 494.92C707.979 494.184 707.563 492.992 707.563 491.344V486.016H705.931V482.608H707.563V479.344H711.667V482.608H714.355V486.016H711.667V491.392C711.667 491.792 711.763 492.08 711.955 492.256C712.147 492.432 712.467 492.52 712.915 492.52H714.379ZM725.377 482.464C726.913 482.464 728.145 482.976 729.073 484C730.001 485.008 730.465 486.4 730.465 488.176V496H726.385V488.728C726.385 487.832 726.153 487.136 725.689 486.64C725.225 486.144 724.601 485.896 723.817 485.896C723.033 485.896 722.409 486.144 721.945 486.64C721.481 487.136 721.249 487.832 721.249 488.728V496H717.145V478.24H721.249V484.408C721.665 483.816 722.233 483.344 722.953 482.992C723.673 482.64 724.481 482.464 725.377 482.464ZM737.901 484.84C738.381 484.104 738.981 483.528 739.701 483.112C740.421 482.68 741.221 482.464 742.101 482.464V486.808H740.973C739.949 486.808 739.181 487.032 738.669 487.48C738.157 487.912 737.901 488.68 737.901 489.784V496H733.797V482.608H737.901V484.84ZM750.639 496.192C749.327 496.192 748.143 495.912 747.087 495.352C746.047 494.792 745.223 493.992 744.615 492.952C744.023 491.912 743.727 490.696 743.727 489.304C743.727 487.928 744.031 486.72 744.639 485.68C745.247 484.624 746.079 483.816 747.135 483.256C748.191 482.696 749.375 482.416 750.687 482.416C751.999 482.416 753.183 482.696 754.239 483.256C755.295 483.816 756.127 484.624 756.735 485.68C757.343 486.72 757.647 487.928 757.647 489.304C757.647 490.68 757.335 491.896 756.711 492.952C756.103 493.992 755.263 494.792 754.191 495.352C753.135 495.912 751.951 496.192 750.639 496.192ZM750.639 492.64C751.423 492.64 752.087 492.352 752.631 491.776C753.191 491.2 753.471 490.376 753.471 489.304C753.471 488.232 753.199 487.408 752.655 486.832C752.127 486.256 751.471 485.968 750.687 485.968C749.887 485.968 749.223 486.256 748.695 486.832C748.167 487.392 747.903 488.216 747.903 489.304C747.903 490.376 748.159 491.2 748.671 491.776C749.199 492.352 749.855 492.64 750.639 492.64ZM773.528 482.608V496H769.424V494.176C769.008 494.768 768.44 495.248 767.72 495.616C767.016 495.968 766.232 496.144 765.368 496.144C764.344 496.144 763.44 495.92 762.656 495.472C761.872 495.008 761.264 494.344 760.832 493.48C760.4 492.616 760.184 491.6 760.184 490.432V482.608H764.264V489.88C764.264 490.776 764.496 491.472 764.96 491.968C765.424 492.464 766.048 492.712 766.832 492.712C767.632 492.712 768.264 492.464 768.728 491.968C769.192 491.472 769.424 490.776 769.424 489.88V482.608H773.528ZM782.044 482.416C782.988 482.416 783.812 482.608 784.516 482.992C785.236 483.376 785.788 483.88 786.172 484.504V482.608H790.276V495.976C790.276 497.208 790.028 498.32 789.532 499.312C789.052 500.32 788.308 501.12 787.3 501.712C786.308 502.304 785.068 502.6 783.58 502.6C781.596 502.6 779.988 502.128 778.756 501.184C777.524 500.256 776.82 498.992 776.644 497.392H780.7C780.828 497.904 781.132 498.304 781.612 498.592C782.092 498.896 782.684 499.048 783.388 499.048C784.236 499.048 784.908 498.8 785.404 498.304C785.916 497.824 786.172 497.048 786.172 495.976V494.08C785.772 494.704 785.22 495.216 784.516 495.616C783.812 496 782.988 496.192 782.044 496.192C780.94 496.192 779.94 495.912 779.044 495.352C778.148 494.776 777.436 493.968 776.908 492.928C776.396 491.872 776.14 490.656 776.14 489.28C776.14 487.904 776.396 486.696 776.908 485.656C777.436 484.616 778.148 483.816 779.044 483.256C779.94 482.696 780.94 482.416 782.044 482.416ZM786.172 489.304C786.172 488.28 785.884 487.472 785.308 486.88C784.748 486.288 784.06 485.992 783.244 485.992C782.428 485.992 781.732 486.288 781.156 486.88C780.596 487.456 780.316 488.256 780.316 489.28C780.316 490.304 780.596 491.12 781.156 491.728C781.732 492.32 782.428 492.616 783.244 492.616C784.06 492.616 784.748 492.32 785.308 491.728C785.884 491.136 786.172 490.328 786.172 489.304ZM801.957 482.464C803.493 482.464 804.725 482.976 805.653 484C806.581 485.008 807.045 486.4 807.045 488.176V496H802.965V488.728C802.965 487.832 802.733 487.136 802.269 486.64C801.805 486.144 801.181 485.896 800.397 485.896C799.613 485.896 798.989 486.144 798.525 486.64C798.061 487.136 797.829 487.832 797.829 488.728V496H793.725V478.24H797.829V484.408C798.245 483.816 798.813 483.344 799.533 482.992C800.253 482.64 801.061 482.464 801.957 482.464ZM826.431 493.024H820.143L819.135 496H814.839L820.935 479.152H825.687L831.783 496H827.439L826.431 493.024ZM825.375 489.856L823.287 483.688L821.223 489.856H825.375ZM840.838 486.016H838.63V496H834.526V486.016H833.038V482.608H834.526V482.224C834.526 480.576 834.998 479.328 835.942 478.48C836.886 477.616 838.27 477.184 840.094 477.184C840.398 477.184 840.622 477.192 840.766 477.208V480.688C839.982 480.64 839.43 480.752 839.11 481.024C838.79 481.296 838.63 481.784 838.63 482.488V482.608H840.838V486.016ZM847.35 484.84C847.83 484.104 848.43 483.528 849.15 483.112C849.87 482.68 850.67 482.464 851.55 482.464V486.808H850.422C849.398 486.808 848.63 487.032 848.118 487.48C847.606 487.912 847.35 488.68 847.35 489.784V496H843.246V482.608H847.35V484.84ZM856.056 481.216C855.336 481.216 854.744 481.008 854.28 480.592C853.832 480.16 853.608 479.632 853.608 479.008C853.608 478.368 853.832 477.84 854.28 477.424C854.744 476.992 855.336 476.776 856.056 476.776C856.76 476.776 857.336 476.992 857.784 477.424C858.248 477.84 858.48 478.368 858.48 479.008C858.48 479.632 858.248 480.16 857.784 480.592C857.336 481.008 856.76 481.216 856.056 481.216ZM858.096 482.608V496H853.992V482.608H858.096ZM860.734 489.304C860.734 487.912 861.014 486.696 861.574 485.656C862.15 484.616 862.942 483.816 863.95 483.256C864.974 482.696 866.142 482.416 867.454 482.416C869.134 482.416 870.534 482.856 871.654 483.736C872.79 484.616 873.534 485.856 873.886 487.456H869.518C869.15 486.432 868.438 485.92 867.382 485.92C866.63 485.92 866.03 486.216 865.582 486.808C865.134 487.384 864.91 488.216 864.91 489.304C864.91 490.392 865.134 491.232 865.582 491.824C866.03 492.4 866.63 492.688 867.382 492.688C868.438 492.688 869.15 492.176 869.518 491.152H873.886C873.534 492.72 872.79 493.952 871.654 494.848C870.518 495.744 869.118 496.192 867.454 496.192C866.142 496.192 864.974 495.912 863.95 495.352C862.942 494.792 862.15 493.992 861.574 492.952C861.014 491.912 860.734 490.696 860.734 489.304ZM875.745 489.28C875.745 487.904 876.001 486.696 876.513 485.656C877.041 484.616 877.753 483.816 878.649 483.256C879.545 482.696 880.545 482.416 881.649 482.416C882.593 482.416 883.417 482.608 884.121 482.992C884.841 483.376 885.393 483.88 885.777 484.504V482.608H889.881V496H885.777V494.104C885.377 494.728 884.817 495.232 884.097 495.616C883.393 496 882.569 496.192 881.625 496.192C880.537 496.192 879.545 495.912 878.649 495.352C877.753 494.776 877.041 493.968 876.513 492.928C876.001 491.872 875.745 490.656 875.745 489.28ZM885.777 489.304C885.777 488.28 885.489 487.472 884.913 486.88C884.353 486.288 883.665 485.992 882.849 485.992C882.033 485.992 881.337 486.288 880.761 486.88C880.201 487.456 879.921 488.256 879.921 489.28C879.921 490.304 880.201 491.12 880.761 491.728C881.337 492.32 882.033 492.616 882.849 492.616C883.665 492.616 884.353 492.32 884.913 491.728C885.489 491.136 885.777 490.328 885.777 489.304ZM896.186 476.8L895.874 482.104H893.114L892.802 476.8H896.186ZM904.555 496.192C903.387 496.192 902.347 495.992 901.435 495.592C900.523 495.192 899.803 494.648 899.275 493.96C898.747 493.256 898.451 492.472 898.387 491.608H902.443C902.491 492.072 902.707 492.448 903.091 492.736C903.475 493.024 903.947 493.168 904.507 493.168C905.019 493.168 905.411 493.072 905.683 492.88C905.971 492.672 906.115 492.408 906.115 492.088C906.115 491.704 905.915 491.424 905.515 491.248C905.115 491.056 904.467 490.848 903.571 490.624C902.611 490.4 901.811 490.168 901.171 489.928C900.531 489.672 899.979 489.28 899.515 488.752C899.051 488.208 898.819 487.48 898.819 486.568C898.819 485.8 899.027 485.104 899.443 484.48C899.875 483.84 900.499 483.336 901.315 482.968C902.147 482.6 903.131 482.416 904.267 482.416C905.947 482.416 907.267 482.832 908.227 483.664C909.203 484.496 909.763 485.6 909.907 486.976H906.115C906.051 486.512 905.843 486.144 905.491 485.872C905.155 485.6 904.707 485.464 904.147 485.464C903.667 485.464 903.299 485.56 903.043 485.752C902.787 485.928 902.659 486.176 902.659 486.496C902.659 486.88 902.859 487.168 903.259 487.36C903.675 487.552 904.315 487.744 905.179 487.936C906.171 488.192 906.979 488.448 907.603 488.704C908.227 488.944 908.771 489.344 909.235 489.904C909.715 490.448 909.963 491.184 909.979 492.112C909.979 492.896 909.755 493.6 909.307 494.224C908.875 494.832 908.243 495.312 907.411 495.664C906.595 496.016 905.643 496.192 904.555 496.192ZM402.688 523.36C403.664 523.568 404.448 524.056 405.04 524.824C405.632 525.576 405.928 526.44 405.928 527.416C405.928 528.824 405.432 529.944 404.44 530.776C403.464 531.592 402.096 532 400.336 532H392.488V515.152H400.072C401.784 515.152 403.12 515.544 404.08 516.328C405.056 517.112 405.544 518.176 405.544 519.52C405.544 520.512 405.28 521.336 404.752 521.992C404.24 522.648 403.552 523.104 402.688 523.36ZM396.592 521.968H399.28C399.952 521.968 400.464 521.824 400.816 521.536C401.184 521.232 401.368 520.792 401.368 520.216C401.368 519.64 401.184 519.2 400.816 518.896C400.464 518.592 399.952 518.44 399.28 518.44H396.592V521.968ZM399.616 528.688C400.304 528.688 400.832 528.536 401.2 528.232C401.584 527.912 401.776 527.456 401.776 526.864C401.776 526.272 401.576 525.808 401.176 525.472C400.792 525.136 400.256 524.968 399.568 524.968H396.592V528.688H399.616ZM421.412 525.088C421.412 525.472 421.388 525.872 421.34 526.288H412.052C412.116 527.12 412.38 527.76 412.844 528.208C413.324 528.64 413.908 528.856 414.596 528.856C415.62 528.856 416.332 528.424 416.732 527.56H421.1C420.876 528.44 420.468 529.232 419.876 529.936C419.3 530.64 418.572 531.192 417.692 531.592C416.812 531.992 415.828 532.192 414.74 532.192C413.428 532.192 412.26 531.912 411.236 531.352C410.212 530.792 409.412 529.992 408.836 528.952C408.26 527.912 407.972 526.696 407.972 525.304C407.972 523.912 408.252 522.696 408.812 521.656C409.388 520.616 410.188 519.816 411.212 519.256C412.236 518.696 413.412 518.416 414.74 518.416C416.036 518.416 417.188 518.688 418.196 519.232C419.204 519.776 419.988 520.552 420.548 521.56C421.124 522.568 421.412 523.744 421.412 525.088ZM417.212 524.008C417.212 523.304 416.972 522.744 416.492 522.328C416.012 521.912 415.412 521.704 414.692 521.704C414.004 521.704 413.42 521.904 412.94 522.304C412.476 522.704 412.188 523.272 412.076 524.008H417.212ZM429.505 532.192C428.337 532.192 427.297 531.992 426.385 531.592C425.473 531.192 424.753 530.648 424.225 529.96C423.697 529.256 423.401 528.472 423.337 527.608H427.393C427.441 528.072 427.657 528.448 428.041 528.736C428.425 529.024 428.897 529.168 429.457 529.168C429.969 529.168 430.361 529.072 430.633 528.88C430.921 528.672 431.065 528.408 431.065 528.088C431.065 527.704 430.865 527.424 430.465 527.248C430.065 527.056 429.417 526.848 428.521 526.624C427.561 526.4 426.761 526.168 426.121 525.928C425.481 525.672 424.929 525.28 424.465 524.752C424.001 524.208 423.769 523.48 423.769 522.568C423.769 521.8 423.977 521.104 424.393 520.48C424.825 519.84 425.449 519.336 426.265 518.968C427.097 518.6 428.081 518.416 429.217 518.416C430.897 518.416 432.217 518.832 433.177 519.664C434.153 520.496 434.713 521.6 434.857 522.976H431.065C431.001 522.512 430.793 522.144 430.441 521.872C430.105 521.6 429.657 521.464 429.097 521.464C428.617 521.464 428.249 521.56 427.993 521.752C427.737 521.928 427.609 522.176 427.609 522.496C427.609 522.88 427.809 523.168 428.209 523.36C428.625 523.552 429.265 523.744 430.129 523.936C431.121 524.192 431.929 524.448 432.553 524.704C433.177 524.944 433.721 525.344 434.185 525.904C434.665 526.448 434.913 527.184 434.929 528.112C434.929 528.896 434.705 529.6 434.257 530.224C433.825 530.832 433.193 531.312 432.361 531.664C431.545 532.016 430.593 532.192 429.505 532.192ZM445.384 528.52V532H443.296C441.808 532 440.648 531.64 439.816 530.92C438.984 530.184 438.568 528.992 438.568 527.344V522.016H436.936V518.608H438.568V515.344H442.672V518.608H445.36V522.016H442.672V527.392C442.672 527.792 442.768 528.08 442.96 528.256C443.152 528.432 443.472 528.52 443.92 528.52H445.384ZM465.836 515.152V518.44H461.372V532H457.268V518.44H452.804V515.152H465.836ZM467.56 525.28C467.56 523.904 467.816 522.696 468.328 521.656C468.856 520.616 469.568 519.816 470.464 519.256C471.36 518.696 472.36 518.416 473.464 518.416C474.408 518.416 475.232 518.608 475.936 518.992C476.656 519.376 477.208 519.88 477.592 520.504V518.608H481.696V532H477.592V530.104C477.192 530.728 476.632 531.232 475.912 531.616C475.208 532 474.384 532.192 473.44 532.192C472.352 532.192 471.36 531.912 470.464 531.352C469.568 530.776 468.856 529.968 468.328 528.928C467.816 527.872 467.56 526.656 467.56 525.28ZM477.592 525.304C477.592 524.28 477.304 523.472 476.728 522.88C476.168 522.288 475.48 521.992 474.664 521.992C473.848 521.992 473.152 522.288 472.576 522.88C472.016 523.456 471.736 524.256 471.736 525.28C471.736 526.304 472.016 527.12 472.576 527.728C473.152 528.32 473.848 528.616 474.664 528.616C475.48 528.616 476.168 528.32 476.728 527.728C477.304 527.136 477.592 526.328 477.592 525.304ZM489.249 514.24V532H485.145V514.24H489.249ZM505.327 525.088C505.327 525.472 505.303 525.872 505.255 526.288H495.967C496.031 527.12 496.295 527.76 496.759 528.208C497.239 528.64 497.823 528.856 498.511 528.856C499.535 528.856 500.247 528.424 500.647 527.56H505.015C504.791 528.44 504.383 529.232 503.791 529.936C503.215 530.64 502.487 531.192 501.607 531.592C500.727 531.992 499.743 532.192 498.655 532.192C497.343 532.192 496.175 531.912 495.151 531.352C494.127 530.792 493.327 529.992 492.751 528.952C492.175 527.912 491.887 526.696 491.887 525.304C491.887 523.912 492.167 522.696 492.727 521.656C493.303 520.616 494.103 519.816 495.127 519.256C496.151 518.696 497.327 518.416 498.655 518.416C499.951 518.416 501.103 518.688 502.111 519.232C503.119 519.776 503.903 520.552 504.463 521.56C505.039 522.568 505.327 523.744 505.327 525.088ZM501.127 524.008C501.127 523.304 500.887 522.744 500.407 522.328C499.927 521.912 499.327 521.704 498.607 521.704C497.919 521.704 497.335 521.904 496.855 522.304C496.391 522.704 496.103 523.272 495.991 524.008H501.127ZM516.132 518.464C517.7 518.464 518.948 518.976 519.876 520C520.82 521.008 521.292 522.4 521.292 524.176V532H517.212V524.728C517.212 523.832 516.98 523.136 516.516 522.64C516.052 522.144 515.428 521.896 514.644 521.896C513.86 521.896 513.236 522.144 512.772 522.64C512.308 523.136 512.076 523.832 512.076 524.728V532H507.972V518.608H512.076V520.384C512.492 519.792 513.052 519.328 513.756 518.992C514.46 518.64 515.252 518.464 516.132 518.464ZM532.088 528.52V532H530C528.512 532 527.352 531.64 526.52 530.92C525.688 530.184 525.272 528.992 525.272 527.344V522.016H523.64V518.608H525.272V515.344H529.376V518.608H532.064V522.016H529.376V527.392C529.376 527.792 529.472 528.08 529.664 528.256C529.856 528.432 530.176 528.52 530.624 528.52H532.088Z" fill="#1C9DD7"/>
</g>
<g filter="url(#filter0_i_8661_13544)">
<ellipse cx="219.349" cy="760.534" rx="72.7432" ry="69.3333" fill="url(#paint5_linear_8661_13544)"/>
</g>
<g filter="url(#filter1_i_8661_13544)">
<ellipse cx="74.4219" cy="894.4" rx="36.3716" ry="34.6667" fill="url(#paint6_linear_8661_13544)"/>
</g>
<defs>
<filter id="filter0_i_8661_13544" x="146.605" y="666.2" width="158.486" height="163.667" filterUnits="userSpaceOnUse" color-interpolation-filters="sRGB">
<feFlood flood-opacity="0" result="BackgroundImageFix"/>
<feBlend mode="normal" in="SourceGraphic" in2="BackgroundImageFix" result="shape"/>
<feColorMatrix in="SourceAlpha" type="matrix" values="0 0 0 0 0 0 0 0 0 0 0 0 0 0 0 0 0 0 127 0" result="hardAlpha"/>
<feOffset dx="13" dy="-25"/>
<feGaussianBlur stdDeviation="16.95"/>
<feComposite in2="hardAlpha" operator="arithmetic" k2="-1" k3="1"/>
<feColorMatrix type="matrix" values="0 0 0 0 0 0 0 0 0 0 0 0 0 0 0 0 0 0 0.25 0"/>
<feBlend mode="normal" in2="shape" result="effect1_innerShadow_8661_13544"/>
</filter>
<filter id="filter1_i_8661_13544" x="38.0503" y="834.733" width="85.7432" height="94.333" filterUnits="userSpaceOnUse" color-interpolation-filters="sRGB">
<feFlood flood-opacity="0" result="BackgroundImageFix"/>
<feBlend mode="normal" in="SourceGraphic" in2="BackgroundImageFix" result="shape"/>
<feColorMatrix in="SourceAlpha" type="matrix" values="0 0 0 0 0 0 0 0 0 0 0 0 0 0 0 0 0 0 127 0" result="hardAlpha"/>
<feOffset dx="13" dy="-25"/>
<feGaussianBlur stdDeviation="16.95"/>
<feComposite in2="hardAlpha" operator="arithmetic" k2="-1" k3="1"/>
<feColorMatrix type="matrix" values="0 0 0 0 0 0 0 0 0 0 0 0 0 0 0 0 0 0 0.25 0"/>
<feBlend mode="normal" in2="shape" result="effect1_innerShadow_8661_13544"/>
</filter>
<linearGradient id="paint0_linear_8661_13544" x1="261.536" y1="448.694" x2="250.216" y2="310.356" gradientUnits="userSpaceOnUse">
<stop stop-color="#2B3990"/>
<stop offset="0.061" stop-color="#294898"/>
<stop offset="0.181" stop-color="#2961A8"/>
<stop offset="0.306" stop-color="#2A75B7"/>
<stop offset="0.433" stop-color="#2A87C5"/>
<stop offset="0.563" stop-color="#2996D1"/>
<stop offset="0.697" stop-color="#28A1DA"/>
<stop offset="0.839" stop-color="#28A8E0"/>
<stop offset="1" stop-color="#27AAE1"/>
</linearGradient>
<linearGradient id="paint1_linear_8661_13544" x1="263.633" y1="448.525" x2="252.317" y2="310.183" gradientUnits="userSpaceOnUse">
<stop stop-color="#2B3990"/>
<stop offset="0.061" stop-color="#294898"/>
<stop offset="0.181" stop-color="#2961A8"/>
<stop offset="0.306" stop-color="#2A75B7"/>
<stop offset="0.433" stop-color="#2A87C5"/>
<stop offset="0.563" stop-color="#2996D1"/>
<stop offset="0.697" stop-color="#28A1DA"/>
<stop offset="0.839" stop-color="#28A8E0"/>
<stop offset="1" stop-color="#27AAE1"/>
</linearGradient>
<linearGradient id="paint2_linear_8661_13544" x1="238.655" y1="450.567" x2="227.336" y2="312.23" gradientUnits="userSpaceOnUse">
<stop stop-color="#2B3990"/>
<stop offset="0.061" stop-color="#294898"/>
<stop offset="0.181" stop-color="#2961A8"/>
<stop offset="0.306" stop-color="#2A75B7"/>
<stop offset="0.433" stop-color="#2A87C5"/>
<stop offset="0.563" stop-color="#2996D1"/>
<stop offset="0.697" stop-color="#28A1DA"/>
<stop offset="0.839" stop-color="#28A8E0"/>
<stop offset="1" stop-color="#27AAE1"/>
</linearGradient>
<linearGradient id="paint3_linear_8661_13544" x1="274.37" y1="378.51" x2="269.6" y2="320.278" gradientUnits="userSpaceOnUse">
<stop stop-color="#2B3990"/>
<stop offset="0.061" stop-color="#294898"/>
<stop offset="0.181" stop-color="#2961A8"/>
<stop offset="0.306" stop-color="#2A75B7"/>
<stop offset="0.433" stop-color="#2A87C5"/>
<stop offset="0.563" stop-color="#2996D1"/>
<stop offset="0.697" stop-color="#28A1DA"/>
<stop offset="0.839" stop-color="#28A8E0"/>
<stop offset="1" stop-color="#27AAE1"/>
</linearGradient>
<linearGradient id="paint4_linear_8661_13544" x1="234.467" y1="450.91" x2="223.148" y2="312.574" gradientUnits="userSpaceOnUse">
<stop stop-color="#2B3990"/>
<stop offset="0.061" stop-color="#294898"/>
<stop offset="0.181" stop-color="#2961A8"/>
<stop offset="0.306" stop-color="#2A75B7"/>
<stop offset="0.433" stop-color="#2A87C5"/>
<stop offset="0.563" stop-color="#2996D1"/>
<stop offset="0.697" stop-color="#28A1DA"/>
<stop offset="0.839" stop-color="#28A8E0"/>
<stop offset="1" stop-color="#27AAE1"/>
</linearGradient>
<linearGradient id="paint5_linear_8661_13544" x1="267.507" y1="701.472" x2="186.785" y2="823.548" gradientUnits="userSpaceOnUse">
<stop stop-color="#23A6F0"/>
<stop offset="1" stop-color="#38B6FF"/>
</linearGradient>
<linearGradient id="paint6_linear_8661_13544" x1="98.5012" y1="864.869" x2="58.1401" y2="925.907" gradientUnits="userSpaceOnUse">
<stop stop-color="#23A6F0"/>
<stop offset="1" stop-color="#38B6FF"/>
</linearGradient>
<clipPath id="clip0_8661_13544">
<rect width="761.005" height="206.933" fill="white" transform="translate(130.938 294.4)"/>
</clipPath>
</defs>
</svg>
