<svg width="459" height="109" viewBox="0 0 459 109" fill="none" xmlns="http://www.w3.org/2000/svg">
<path d="M175.776 77.3374C169.771 77.3374 165.083 75.9146 161.711 73.069C158.337 70.2262 156.65 66.227 156.65 61.0716C156.65 58.1645 157.29 55.4843 158.57 53.0348C159.85 50.5788 161.819 48.5934 164.478 47.0745C167.137 45.5622 170.41 44.8058 174.3 44.8058C177.942 44.8058 181.093 45.5106 183.752 46.9207C186.41 48.3331 188.424 50.2162 189.812 52.5734C191.2 54.9306 191.88 57.4943 191.88 60.2756C191.88 61.0523 191.573 61.7072 190.955 62.2367C190.336 62.7662 189.513 63.0327 188.48 63.0327H163.451C163.843 65.8986 165.122 68.1289 167.291 69.7236C169.456 71.3206 172.483 72.1192 176.372 72.1192C178.439 72.1192 180.248 71.955 181.799 71.627C183.35 71.299 184.865 70.8284 186.342 70.2158C186.737 70.0516 187.175 69.9697 187.67 69.9697C188.46 69.9697 189.149 70.1954 189.738 70.6465C190.33 71.0952 190.626 71.6682 190.626 72.3653C190.626 73.2651 189.987 74.0215 188.706 74.6341C186.785 75.5339 184.89 76.2095 183.016 76.6606C181.142 77.1116 178.73 77.3374 175.776 77.3374ZM163.446 58.4952H185.227C185.083 56.4906 184.455 54.8125 183.344 53.4578C182.237 52.1092 180.873 51.1171 179.25 50.4815C177.625 49.8482 175.975 49.5317 174.3 49.5317C172.625 49.5317 170.977 49.8482 169.35 50.4815C167.724 51.1171 166.37 52.1092 165.288 53.4578C164.205 54.8087 163.59 56.4868 163.437 58.4952H163.446ZM212.921 77.3374C207.999 77.3374 203.519 76.4156 199.481 74.5687C198.643 74.0792 198.223 73.4047 198.223 72.5461C198.223 71.8897 198.495 71.3167 199.037 70.8272C199.577 70.335 200.266 70.0889 201.105 70.0889C201.546 70.0889 201.984 70.1708 202.433 70.335C204.009 70.9068 205.585 71.3567 207.161 71.6809C208.734 72.0089 210.506 72.1731 212.482 72.1731C217.947 72.1731 220.68 70.7207 220.68 67.8163C220.68 66.873 220.052 66.1563 218.797 65.6629C217.541 65.1696 215.485 64.6181 212.63 64.0094C209.724 63.4353 207.324 62.8416 205.431 62.229C203.534 61.6165 201.909 60.6859 200.555 59.4373C199.201 58.1887 198.519 56.5418 198.519 54.496C198.519 51.6301 199.762 49.2971 202.248 47.4975C204.734 45.6979 208.291 44.7981 212.921 44.7981C216.711 44.7981 220.28 45.3095 223.627 46.3362C224.317 46.5004 224.847 46.8065 225.213 47.2591C225.584 47.7102 225.769 48.1808 225.769 48.6704C225.769 49.3268 225.491 49.8997 224.922 50.3892C224.354 50.8814 223.653 51.1275 222.817 51.1275C222.57 51.1275 222.249 51.0864 221.855 51.0045C218.999 50.2689 216.192 49.9009 213.435 49.9009C210.779 49.9009 208.7 50.2996 207.198 51.0929C205.696 51.8862 204.945 52.9233 204.945 54.1923C204.945 55.4201 205.639 56.3199 207.013 56.8917C208.392 57.4658 210.532 58.0184 213.435 58.5452C216.34 59.1604 218.709 59.7642 220.527 60.3525C222.346 60.9474 223.904 61.8779 225.213 63.1442C226.518 64.4132 227.17 66.1117 227.17 68.2393C227.17 70.8591 225.927 73.0279 223.441 74.7456C220.956 76.4656 217.449 77.322 212.921 77.322V77.3374ZM239.502 77.0297C238.567 77.0297 237.781 76.7633 237.142 76.2299C236.501 75.6993 236.18 75.0455 236.18 74.2688V34.4311C236.18 33.6543 236.501 32.9891 237.142 32.4315C237.781 31.8804 238.567 31.6047 239.502 31.6047C239.949 31.5989 240.392 31.6692 240.805 31.8114C241.218 31.9536 241.592 32.1646 241.903 32.4315C242.225 32.6902 242.48 33.0012 242.652 33.3451C242.824 33.6891 242.909 34.0587 242.902 34.4311V59.5411L260.473 46.0363C261.213 45.5029 261.952 45.2365 262.694 45.2365C263.826 45.2365 264.651 45.5029 265.169 46.0363C265.687 46.5696 265.946 47.2041 265.946 47.9397C265.946 48.6346 265.527 49.3306 264.688 50.0278L254.056 57.9492L267.427 72.6768C267.92 73.2075 268.167 73.7585 268.167 74.3303C268.167 75.1505 267.846 75.8058 267.205 76.2914C266.566 76.7836 265.754 77.0297 264.766 77.0297C264.276 77.0297 263.784 76.9271 263.286 76.7221C262.788 76.5172 262.375 76.2311 262.037 75.8646L249.333 61.4984L242.911 66.3435V74.2649C242.911 75.0417 242.578 75.6954 241.912 76.2261C241.249 76.7594 240.449 77.0259 239.506 77.0259L239.502 77.0297ZM285.286 77.3374C283.121 77.3374 281.115 76.9682 279.272 76.2299C277.428 75.4943 275.962 74.4199 274.877 73.0075C273.794 71.5974 273.257 69.9708 273.257 68.1239C273.257 65.0965 274.698 62.6828 277.578 60.8832C280.459 59.0808 284.682 58.1799 290.245 58.1799H299.174V57.6915C299.174 54.9894 298.374 53.0452 296.769 51.8581C295.163 50.6711 292.67 50.0777 289.274 50.0777C287.402 50.0777 285.741 50.2008 284.291 50.4469C282.839 50.693 281.226 51.0622 279.452 51.5544C279.057 51.6363 278.738 51.6774 278.494 51.6774C277.754 51.6774 277.114 51.4517 276.574 51.0006C276.032 50.5496 275.76 50.0008 275.76 49.3471C275.76 48.2424 276.4 47.4641 277.68 47.013C281.866 45.5414 286.123 44.8058 290.449 44.8058C293.848 44.8058 296.716 45.3826 299.054 46.5247C301.392 47.6667 303.115 49.1537 304.222 50.9737C305.329 52.7937 305.887 54.7679 305.887 56.8955V74.2688C305.887 75.0455 305.556 75.6993 304.893 76.2299C304.577 76.4894 304.202 76.6938 303.789 76.8312C303.377 76.9685 302.936 77.036 302.492 77.0297C301.557 77.0297 300.769 76.7633 300.132 76.2299C299.494 75.6993 299.174 75.0455 299.174 74.2688V72.6768C295.532 75.7865 290.904 77.3412 285.295 77.3412L285.286 77.3374ZM287.798 72.4269C289.963 72.4269 292.056 71.9858 294.076 71.1041C296.093 70.2246 297.791 69.1314 299.165 67.824V62.6712H291.115C283.682 62.6712 279.966 64.2874 279.966 67.5164C279.966 68.988 280.569 70.1697 281.77 71.0733C282.976 71.9758 284.982 72.4269 287.784 72.4269H287.798ZM320.508 77.0297C319.574 77.0297 318.787 76.7633 318.149 76.2299C317.507 75.6993 317.186 75.0455 317.186 74.2688V34.4311C317.179 34.0619 317.26 33.6952 317.425 33.3525C317.591 33.0098 317.837 32.698 318.149 32.4353C318.787 31.8843 319.574 31.6086 320.508 31.6086C321.495 31.6086 322.312 31.8778 322.946 32.4046C323.588 32.9379 323.909 33.6132 323.909 34.4311V74.2688C323.909 75.0455 323.576 75.6993 322.909 76.2299C322.246 76.7633 321.446 77.0297 320.504 77.0297H320.508ZM345.173 77.3374C343.008 77.3374 341.002 76.9682 339.159 76.2299C337.315 75.4943 335.849 74.4199 334.764 73.0075C333.681 71.5974 333.145 69.9708 333.145 68.1239C333.145 65.0965 334.585 62.6828 337.466 60.8832C340.346 59.0808 344.569 58.1799 350.133 58.1799H359.062V57.6915C359.062 54.9894 358.262 53.0452 356.656 51.8581C355.051 50.6711 352.557 50.0777 349.161 50.0777C347.289 50.0777 345.628 50.2008 344.179 50.4469C342.726 50.693 341.113 51.0622 339.34 51.5544C338.944 51.6363 338.625 51.6774 338.382 51.6774C337.642 51.6774 337.001 51.4517 336.462 51.0006C335.919 50.5496 335.648 50.0008 335.648 49.3471C335.648 48.2424 336.287 47.4641 337.568 47.013C341.753 45.5414 346.011 44.8058 350.337 44.8058C353.735 44.8058 356.603 45.3826 358.942 46.5247C361.28 47.6667 363.002 49.1537 364.109 50.9737C365.217 52.7937 365.775 54.7679 365.775 56.8955V74.2688C365.775 75.0455 365.443 75.6993 364.78 76.2299C364.464 76.4894 364.089 76.6938 363.677 76.8312C363.264 76.9685 362.823 77.036 362.379 77.0297C361.445 77.0297 360.656 76.7633 360.02 76.2299C359.381 75.6993 359.062 75.0455 359.062 74.2688V72.6768C355.419 75.7865 350.791 77.3412 345.183 77.3412L345.173 77.3374ZM347.686 72.4269C349.851 72.4269 351.943 71.9858 353.964 71.1041C355.981 70.2246 357.679 69.1314 359.053 67.824V62.6712H351.003C343.569 62.6712 339.853 64.2874 339.853 67.5164C339.853 68.988 340.456 70.1697 341.657 71.0733C342.863 71.9758 344.87 72.4269 347.672 72.4269H347.686ZM389.183 77.3374C381.997 77.3374 378.404 74.6368 378.404 69.2352V50.2008H373.162C372.767 50.2008 372.434 50.0854 372.163 49.8663C371.891 49.6405 371.755 49.3637 371.755 49.0357C371.755 48.6281 371.977 48.2808 372.422 47.9974L382.461 39.8338C382.902 39.4646 383.32 39.28 383.71 39.28C383.899 39.2781 384.086 39.31 384.258 39.3737C384.431 39.4375 384.585 39.5314 384.709 39.6492C384.978 39.8953 385.112 40.181 385.112 40.5067V45.4172H393.458C394.294 45.4172 394.983 45.6429 395.526 46.094C396.069 46.545 396.34 47.118 396.34 47.8128C396.346 48.125 396.277 48.435 396.137 48.7248C395.997 49.0146 395.789 49.2784 395.526 49.5009C394.983 49.9701 394.294 50.2046 393.458 50.2046H385.112V68.7392C385.112 70.3338 385.568 71.3463 386.481 71.777C387.391 72.2077 388.535 72.423 389.914 72.423C390.914 72.421 391.909 72.2966 392.866 72.0539L393.495 71.9308C393.717 71.8897 394.001 71.8693 394.346 71.8693C395.034 71.8693 395.649 72.0846 396.197 72.5153C396.737 72.9433 397.006 73.4651 397.006 74.0804C397.006 75.0213 396.441 75.7365 395.308 76.2261C393.39 76.9644 391.347 77.3335 389.178 77.3335L389.183 77.3374ZM420.714 77.3374C414.709 77.3374 410.021 75.9146 406.65 73.069C403.276 70.2262 401.589 66.227 401.589 61.0716C401.589 58.1645 402.229 55.4843 403.509 53.0348C404.789 50.5788 406.758 48.5934 409.417 47.0745C412.075 45.5622 415.349 44.8058 419.239 44.8058C422.881 44.8058 426.031 45.5106 428.69 46.9207C431.349 48.3331 433.363 50.2162 434.751 52.5734C436.139 54.9306 436.819 57.4943 436.819 60.2756C436.819 61.0523 436.512 61.7072 435.894 62.2367C435.275 62.7662 434.452 63.0327 433.418 63.0327H408.39C408.781 65.8986 410.061 68.1289 412.23 69.7236C414.395 71.3206 417.422 72.1192 421.311 72.1192C423.378 72.1192 425.187 71.955 426.738 71.627C428.289 71.299 429.804 70.8284 431.281 70.2158C431.676 70.0516 432.114 69.9697 432.609 69.9697C433.399 69.9697 434.088 70.1954 434.677 70.6465C435.269 71.0952 435.565 71.6682 435.565 72.3653C435.565 73.2651 434.925 74.0215 433.645 74.6341C431.724 75.5339 429.828 76.2095 427.955 76.6606C426.081 77.1116 423.669 77.3374 420.714 77.3374ZM408.385 58.4952H430.166C430.021 56.4906 429.394 54.8125 428.283 53.4578C427.176 52.1092 425.811 51.1171 424.189 50.4815C422.564 49.8482 420.913 49.5317 419.239 49.5317C417.564 49.5317 415.915 49.8482 414.288 50.4815C412.663 51.1171 411.309 52.1092 410.226 53.4578C409.144 54.8087 408.528 56.4868 408.376 58.4952H408.385ZM124.348 51.4121L124.256 51.6236C124.256 51.6236 122.35 64.4286 108.332 75.3685L107.499 75.9838H107.536C104.279 78.5217 100.134 81.1942 95.3547 83.6899C105.746 82.0133 117.654 78.7524 125.695 73.6651C130.354 67.1049 132.782 60.091 132.385 53.777C132.338 53.0464 132.26 52.4042 132.162 51.8312C130.266 50.7353 127.837 50.0854 124.353 51.4082L124.348 51.4121ZM87.9108 95.595C82.6229 95.7104 76.9925 94.5799 71.6074 92.4226C65.4681 93.7954 59.0328 94.553 52.5466 94.3838C54.3647 95.0567 56.2755 95.6527 58.2972 96.1449C87.661 103.32 112.542 90.823 124.612 75.134C123.789 76.1838 122.498 77.7373 120.68 79.6484C119.139 81.2635 105.413 95.199 87.9108 95.595ZM109.414 46.9015C107.407 53.8346 100.707 68.4623 80.4392 69.3006C84.1172 70.1197 88.0728 70.1004 91.8202 69.2545C96.4003 68.2162 114.23 63.671 118.292 47.1976C118.848 44.6404 121.707 27.3556 98.9541 18.4729C106.31 26.1405 112.195 37.3151 109.41 46.9015H109.414ZM41.619 41.0797C42.5813 36.696 44.2838 32.3238 46.597 28.2554C42.572 31.5432 39.3474 34.9848 37.1869 37.9918C34.2584 42.0679 32.0978 46.3285 30.6914 50.6123C33.6986 47.5091 37.3997 44.1905 41.619 41.0758V41.0797Z" fill="white"/>
<path opacity="0.6" d="M91.9503 16.2387C94.5226 16.9001 96.8543 17.6499 98.9594 18.469C94.9344 14.2776 90.4699 11.1244 86.7318 9.87465C69.5585 4.11433 54.5042 14.3622 46.5977 28.2477C57.4235 19.4034 74.1155 11.6512 91.9503 16.2348V16.2387Z" fill="white"/>
<path d="M80.3758 28.3016L80.8384 28.3247C82.2634 28.44 83.6235 28.663 84.9189 28.9707C84.9236 28.9707 84.9282 28.9707 84.9328 28.9745C97.2622 31.9085 103.577 42.8946 100.154 51.3159C97.822 57.034 90.2393 61.583 85.6499 63.0365C82.7954 63.944 79.7142 64.0978 77.3363 62.5982C72.1362 59.3142 76.8274 55.2536 78.4929 53.7462C80.6765 51.7697 84.7986 48.132 83.1008 44.9673C81.1345 41.2988 74.8102 40.5182 70.3781 44.5174C65.946 48.5165 63.6236 53.6577 68.0649 60.9293C70.7945 65.4053 75.3515 68.1585 80.4452 69.2929C100.718 68.4546 107.417 53.8231 109.42 46.8938C112.196 37.3074 106.321 26.129 98.9647 18.4652C96.8551 17.6423 94.5234 16.8886 91.9557 16.2349C74.1163 11.6513 57.4288 19.4073 46.603 28.2516C44.2898 32.32 42.578 36.6921 41.625 41.0758C52.0807 33.3467 65.7749 26.9134 80.3758 28.3016Z" fill="white"/>
<path opacity="0.6" d="M80.3758 28.3016L80.8384 28.3247C82.2634 28.44 83.6235 28.663 84.9189 28.9707C84.9236 28.9707 84.9282 28.9707 84.9328 28.9745C97.2622 31.9085 103.577 42.8946 100.154 51.3159C97.822 57.034 90.2393 61.583 85.6499 63.0365C82.7954 63.944 79.7142 64.0978 77.3363 62.5982C72.1362 59.3142 76.8274 55.2536 78.4929 53.7462C80.6765 51.7697 84.7986 48.132 83.1008 44.9673C81.1345 41.2988 74.8102 40.5182 70.3781 44.5174C65.946 48.5165 63.6236 53.6577 68.0649 60.9293C70.7945 65.4053 75.3515 68.1585 80.4452 69.2929C100.718 68.4546 107.417 53.8231 109.42 46.8938C112.196 37.3074 106.321 26.129 98.9647 18.4652C96.8551 17.6423 94.5234 16.8886 91.9557 16.2349C74.1163 11.6513 57.4288 19.4073 46.603 28.2516C44.2898 32.32 42.578 36.6921 41.625 41.0758C52.0807 33.3467 65.7749 26.9134 80.3758 28.3016Z" fill="white"/>
<path opacity="0.52" d="M30.6919 50.6047C26.9214 54.4885 24.2149 58.0147 22.8733 60.3488C19.7088 65.8784 10.1784 87.3662 42.517 93.3572C45.848 93.9725 49.2022 94.2993 52.5378 94.3878C32.1353 86.8317 24.7794 68.5163 30.6873 50.6086L30.6919 50.6047Z" fill="white"/>
<path d="M81.5867 85.0524L80.8008 85.032L81.3186 85.0605L81.5959 85.0524H81.5867Z" fill="white"/>
<path opacity="0.52" d="M81.5867 85.0524L80.8008 85.032L81.3186 85.0605L81.5959 85.0524H81.5867Z" fill="white"/>
<path d="M95.3514 83.6936C100.135 81.1941 104.28 78.5293 107.533 75.9875H107.496C100.621 81.1403 93.4036 83.9551 86.4316 84.7934C89.1612 84.5703 92.1869 84.2089 95.3514 83.6975V83.6936Z" fill="white"/>
<path opacity="0.52" d="M95.3514 83.6936C100.135 81.1941 104.28 78.5293 107.533 75.9875H107.496C100.621 81.1403 93.4036 83.9551 86.4316 84.7934C89.1612 84.5703 92.1869 84.2089 95.3514 83.6975V83.6936Z" fill="white"/>
<path d="M46.2517 65.6552C43.1011 61.2561 40.8527 55.9726 40.7139 49.797C40.6537 46.9514 40.973 44.0174 41.616 41.0796C37.3967 44.1943 33.7049 47.5128 30.6884 50.616C24.7851 68.5238 32.1411 86.8391 52.539 94.3952C59.0298 94.5644 65.4652 93.8069 71.5998 92.4341C59.7701 87.689 49.1895 77.9756 46.2471 65.6628L46.2517 65.6552Z" fill="white"/>
<path opacity="0.52" d="M46.2517 65.6552C43.1011 61.2561 40.8527 55.9726 40.7139 49.797C40.6537 46.9514 40.973 44.0174 41.616 41.0796C37.3967 44.1943 33.7049 47.5128 30.6884 50.616C24.7851 68.5238 32.1411 86.8391 52.539 94.3952C59.0298 94.5644 65.4652 93.8069 71.5998 92.4341C59.7701 87.689 49.1895 77.9756 46.2471 65.6628L46.2517 65.6552Z" fill="white"/>
<path d="M71.6742 28.8475C71.6742 28.8475 71.0635 28.9513 70.0457 29.232C73.1732 28.436 76.6291 28.0553 80.3719 28.3091C65.7663 26.9248 52.0768 33.3542 41.6164 41.0756C40.9687 44.0096 40.6541 46.9475 40.7143 49.793C40.8438 55.9725 43.1015 61.2521 46.2521 65.655L45.9606 64.3476C40.1591 34.031 71.6742 28.8475 71.6742 28.8475Z" fill="white"/>
<path opacity="0.6" d="M71.6742 28.8475C71.6742 28.8475 71.0635 28.9513 70.0457 29.232C73.1732 28.436 76.6291 28.0553 80.3719 28.3091C65.7663 26.9248 52.0768 33.3542 41.6164 41.0756C40.9687 44.0096 40.6541 46.9475 40.7143 49.793C40.8438 55.9725 43.1015 61.2521 46.2521 65.655L45.9606 64.3476C40.1591 34.031 71.6742 28.8475 71.6742 28.8475Z" fill="white"/>
<path opacity="0.52" d="M71.6742 28.8475C71.6742 28.8475 71.0635 28.9513 70.0457 29.232C73.1732 28.436 76.6291 28.0553 80.3719 28.3091C65.7663 26.9248 52.0768 33.3542 41.6164 41.0756C40.9687 44.0096 40.6541 46.9475 40.7143 49.793C40.8438 55.9725 43.1015 61.2521 46.2521 65.655L45.9606 64.3476C40.1591 34.031 71.6742 28.8475 71.6742 28.8475Z" fill="white"/>
<path d="M84.9317 28.9755C84.9271 28.9755 84.9225 28.9755 84.918 28.9709C84.9225 28.9755 84.9271 28.9755 84.9317 28.9755Z" fill="white"/>
<path opacity="0.6" d="M84.9317 28.9755C84.9271 28.9755 84.9225 28.9755 84.918 28.9709C84.9225 28.9755 84.9271 28.9755 84.9317 28.9755Z" fill="white"/>
<path opacity="0.52" d="M84.9317 28.9755C84.9271 28.9755 84.9225 28.9755 84.918 28.9709C84.9225 28.9755 84.9271 28.9755 84.9317 28.9755Z" fill="white"/>
<path opacity="0.24" d="M125.698 73.665C125.694 73.665 125.694 73.6689 125.689 73.6689L124.603 75.1378L125.698 73.665Z" fill="white"/>
<path d="M71.6074 92.4265C76.9879 94.5799 82.6183 95.7181 87.9109 95.5989C105.408 95.2067 119.139 81.2712 120.675 79.6523C122.489 77.745 123.784 76.1915 124.608 75.1379C124.98 74.6536 125.343 74.1639 125.695 73.6689C117.645 78.7563 105.746 82.0133 95.3548 83.6937C88.517 87.2622 80.3652 90.4692 71.612 92.4227L71.6074 92.4265Z" fill="white"/>
<path opacity="0.24" d="M71.6074 92.4265C76.9879 94.5799 82.6183 95.7181 87.9109 95.5989C105.408 95.2067 119.139 81.2712 120.675 79.6523C122.489 77.745 123.784 76.1915 124.608 75.1379C124.98 74.6536 125.343 74.1639 125.695 73.6689C117.645 78.7563 105.746 82.0133 95.3548 83.6937C88.517 87.2622 80.3652 90.4692 71.612 92.4227L71.6074 92.4265Z" fill="white"/>
<path d="M81.5865 85.051L81.3089 85.0587C81.1331 85.0625 80.962 85.0433 80.7908 85.0318C76.1042 84.8895 71.6166 83.8628 67.513 82.0708L67.5084 82.0785C67.5084 82.0785 54.0918 76.6258 46.25 65.6589C49.1924 77.9756 59.773 87.685 71.6027 92.4225C80.3559 90.4614 88.5076 87.2582 95.3455 83.6936C92.181 84.205 89.1599 84.5665 86.4257 84.7895C84.8198 84.9777 83.199 85.0638 81.5773 85.0471L81.5865 85.051Z" fill="white"/>
<path opacity="0.52" d="M81.5865 85.051L81.3089 85.0587C81.1331 85.0625 80.962 85.0433 80.7908 85.0318C76.1042 84.8895 71.6166 83.8628 67.513 82.0708L67.5084 82.0785C67.5084 82.0785 54.0918 76.6258 46.25 65.6589C49.1924 77.9756 59.773 87.685 71.6027 92.4225C80.3559 90.4614 88.5076 87.2582 95.3455 83.6936C92.181 84.205 89.1599 84.5665 86.4257 84.7895C84.8198 84.9777 83.199 85.0638 81.5773 85.0471L81.5865 85.051Z" fill="white"/>
<path opacity="0.24" d="M81.5865 85.051L81.3089 85.0587C81.1331 85.0625 80.962 85.0433 80.7908 85.0318C76.1042 84.8895 71.6166 83.8628 67.513 82.0708L67.5084 82.0785C67.5084 82.0785 54.0918 76.6258 46.25 65.6589C49.1924 77.9756 59.773 87.685 71.6027 92.4225C80.3559 90.4614 88.5076 87.2582 95.3455 83.6936C92.181 84.205 89.1599 84.5665 86.4257 84.7895C84.8198 84.9777 83.199 85.0638 81.5773 85.0471L81.5865 85.051Z" fill="white"/>
<path d="M67.5129 82.075L67.5176 82.0673C59.5879 78.6065 53.0971 72.3117 49.4376 64.0596C47.1475 58.8876 44.33 48.8128 53.7077 38.788C56.8537 35.4233 62.4979 31.1358 70.0482 29.2246C71.066 28.9478 71.6767 28.8401 71.6767 28.8401C71.6767 28.8401 40.157 34.0313 45.9539 64.3403C46.0372 64.7825 46.1389 65.217 46.2454 65.6477C54.0917 76.6146 67.5083 82.0673 67.5083 82.0673L67.5129 82.075Z" fill="white"/>
<path opacity="0.6" d="M67.5129 82.075L67.5176 82.0673C59.5879 78.6065 53.0971 72.3117 49.4376 64.0596C47.1475 58.8876 44.33 48.8128 53.7077 38.788C56.8537 35.4233 62.4979 31.1358 70.0482 29.2246C71.066 28.9478 71.6767 28.8401 71.6767 28.8401C71.6767 28.8401 40.157 34.0313 45.9539 64.3403C46.0372 64.7825 46.1389 65.217 46.2454 65.6477C54.0917 76.6146 67.5083 82.0673 67.5083 82.0673L67.5129 82.075Z" fill="white"/>
<path opacity="0.52" d="M67.5129 82.075L67.5176 82.0673C59.5879 78.6065 53.0971 72.3117 49.4376 64.0596C47.1475 58.8876 44.33 48.8128 53.7077 38.788C56.8537 35.4233 62.4979 31.1358 70.0482 29.2246C71.066 28.9478 71.6767 28.8401 71.6767 28.8401C71.6767 28.8401 40.157 34.0313 45.9539 64.3403C46.0372 64.7825 46.1389 65.217 46.2454 65.6477C54.0917 76.6146 67.5083 82.0673 67.5083 82.0673L67.5129 82.075Z" fill="white"/>
<path opacity="0.24" d="M67.5129 82.075L67.5176 82.0673C59.5879 78.6065 53.0971 72.3117 49.4376 64.0596C47.1475 58.8876 44.33 48.8128 53.7077 38.788C56.8537 35.4233 62.4979 31.1358 70.0482 29.2246C71.066 28.9478 71.6767 28.8401 71.6767 28.8401C71.6767 28.8401 40.157 34.0313 45.9539 64.3403C46.0372 64.7825 46.1389 65.217 46.2454 65.6477C54.0917 76.6146 67.5083 82.0673 67.5083 82.0673L67.5129 82.075Z" fill="white"/>
<path d="M129.786 42.3371C128.731 41.4642 127.219 42.1218 125.636 43.4907L129.014 47.4976C129.014 47.4976 127.765 47.2553 126.451 48.3551C126.113 48.6396 125.803 49.0011 125.525 49.3741C125.618 49.2972 130.892 44.4059 132.155 51.8351C134.838 53.3732 136.471 55.7766 138.539 54.7306C140.913 53.5309 133.728 45.6056 129.777 42.3371H129.786Z" fill="white"/>
<path d="M125.53 49.3739C124.938 50.1814 124.522 51.0274 124.351 51.4119C127.83 50.093 130.259 50.7429 132.16 51.8349C130.892 44.4134 125.618 49.297 125.53 49.3739Z" fill="white"/>
<path d="M125.531 49.378C125.809 49.005 126.114 48.6474 126.457 48.359C127.761 47.2592 129.02 47.5015 129.02 47.5015L125.642 43.4946C124.222 44.7251 122.742 46.5324 121.479 48.3398L125.531 49.378Z" fill="white"/>
<path d="M121.473 48.3475C118.855 52.116 117.157 55.9075 118.836 54.6308C120.932 53.0389 122.755 52.016 124.356 51.4123C124.527 51.0354 124.943 50.1818 125.535 49.3742L125.531 49.3781L121.473 48.3398V48.3475Z" fill="white"/>
</svg>
