<svg width="2342" height="601" viewBox="0 0 2342 601" fill="none" xmlns="http://www.w3.org/2000/svg">
<circle cx="2165.5" cy="212.5" r="176.5" fill="#E0F2FE"/>
<circle cx="228" cy="348" r="228" fill="#F0F9FF"/>
<circle cx="1312.5" cy="348.5" r="176.5" fill="#E0F2FE"/>
<g filter="url(#filter0_d_248_4568)">
<path d="M415 427.598C490.422 462.575 666.092 528.533 765.397 512.543C889.529 492.556 920.169 389.623 1111.87 365.638C1303.56 341.654 1444.19 425.1 1592.68 304.678C1741.17 184.256 1813.45 105.307 2013 122.296" stroke="#37A0F4" stroke-width="5" stroke-linecap="round" stroke-linejoin="round"/>
</g>
<rect x="583" y="475" width="50.5714" height="48" rx="20" fill="white"/>
<rect x="598.796" y="490" width="18.1741" height="17.25" rx="8.625" fill="#C4C4C4"/>
<path opacity="0.05" d="M662.001 474.211V444.467H710.478V549H677.159V474.211H662.001Z" fill="#3F3F46"/>
<rect x="931" y="387.75" width="50.1741" height="47.25" rx="20" fill="white"/>
<rect x="947" y="402.75" width="18.1741" height="17.25" rx="8.625" fill="#C4C4C4"/>
<path opacity="0.05" d="M994.178 357.689C1006.95 348.156 1017.06 339.528 1024.49 331.806C1031.93 323.989 1035.65 316.696 1035.65 309.927C1035.65 307.639 1035.12 305.875 1034.07 304.636C1033.12 303.397 1031.83 302.777 1030.21 302.777C1028.31 302.777 1026.78 303.778 1025.64 305.78C1024.59 307.687 1024.21 310.642 1024.49 314.646H993.749C994.035 305.78 995.941 298.487 999.469 292.767C1003.09 287.047 1007.76 282.852 1013.48 280.183C1019.2 277.514 1025.49 276.179 1032.36 276.179C1044.56 276.179 1053.48 279.134 1059.1 285.045C1064.82 290.86 1067.68 298.344 1067.68 307.496C1067.68 317.125 1064.58 326.181 1058.38 334.666C1052.28 343.055 1044.61 350.158 1035.36 355.973H1068.11V381.57H994.178V357.689Z" fill="#3F3F46"/>
<rect x="1389" y="343.375" width="48.2753" height="43.25" rx="20" fill="white"/>
<rect x="1404" y="356.375" width="18.2753" height="17.25" rx="8.625" fill="#C4C4C4"/>
<path opacity="0.05" d="M1465.53 344.222C1465.81 333.195 1469.01 324.762 1475.12 318.924C1481.33 313.086 1490.09 310.167 1501.39 310.167C1508.71 310.167 1514.97 311.418 1520.16 313.92C1525.35 316.422 1529.24 319.804 1531.83 324.067C1534.52 328.33 1535.86 333.148 1535.86 338.523C1535.86 345.01 1534.34 350.106 1531.28 353.813C1528.22 357.427 1524.79 359.883 1520.99 361.18V361.736C1532.11 365.906 1537.67 373.644 1537.67 384.949C1537.67 390.88 1536.28 396.115 1533.5 400.656C1530.72 405.197 1526.74 408.718 1521.55 411.22C1516.45 413.722 1510.38 414.973 1503.34 414.973C1491.29 414.973 1481.84 412.1 1474.98 406.355C1468.13 400.61 1464.6 391.621 1464.42 379.389H1494.44C1494.26 382.725 1494.72 385.273 1495.83 387.034C1497.04 388.702 1499.08 389.536 1501.95 389.536C1503.62 389.536 1505.01 388.934 1506.12 387.729C1507.23 386.432 1507.79 384.764 1507.79 382.725C1507.79 380.13 1506.91 378.184 1505.15 376.887C1503.48 375.497 1500.6 374.802 1496.53 374.802H1491.38V349.921H1496.39C1502.69 350.292 1505.84 347.79 1505.84 342.415C1505.84 340.098 1505.33 338.384 1504.31 337.272C1503.38 336.16 1502.18 335.604 1500.7 335.604C1497.27 335.604 1495.55 338.477 1495.55 344.222H1465.53Z" fill="#3F3F46"/>
<rect x="1700" y="168.75" width="47.25" height="47.25" rx="20" fill="white"/>
<rect x="1715" y="183.75" width="17.25" height="17.25" rx="8.625" fill="#C4C4C4"/>
<path opacity="0.05" d="M1760.69 136.27V109.815L1803.3 49.04H1837.48V108.814H1847.77V136.27H1837.48V152H1805.45V136.27H1760.69ZM1808.02 85.219L1792.58 108.814H1808.02V85.219Z" fill="#3F3F46"/>
<defs>
<filter id="filter0_d_248_4568" x="388.5" y="117.5" width="1651" height="447.999" filterUnits="userSpaceOnUse" color-interpolation-filters="sRGB">
<feFlood flood-opacity="0" result="BackgroundImageFix"/>
<feColorMatrix in="SourceAlpha" type="matrix" values="0 0 0 0 0 0 0 0 0 0 0 0 0 0 0 0 0 0 127 0" result="hardAlpha"/>
<feOffset dy="24"/>
<feGaussianBlur stdDeviation="12"/>
<feComposite in2="hardAlpha" operator="out"/>
<feColorMatrix type="matrix" values="0 0 0 0 0.215686 0 0 0 0 0.203922 0 0 0 0 0.662745 0 0 0 0.3 0"/>
<feBlend mode="normal" in2="BackgroundImageFix" result="effect1_dropShadow_248_4568"/>
<feBlend mode="normal" in="SourceGraphic" in2="effect1_dropShadow_248_4568" result="shape"/>
</filter>
</defs>
</svg>
